/* XPM */
static char *_9317474221842acb29f2096b27b391cayguCmK90f9KNKQf[] = {
/* columns rows colors chars-per-pixel */
"60 60 202 2 ",
"   c #65451F",
".  c #664621",
"X  c #684722",
"o  c #6B4A24",
"O  c #6D4E29",
"+  c #74522C",
"@  c #78552D",
"#  c #7A5A34",
"$  c #856234",
"%  c #8D663B",
"&  c #8F683D",
"*  c #91673C",
"=  c #926A3E",
"-  c #996E3F",
";  c #99723E",
":  c #876746",
">  c #8C6944",
",  c #956D41",
"<  c #996E43",
"1  c #956F4B",
"2  c #8F704C",
"3  c #977044",
"4  c #9D7345",
"5  c #93734E",
"6  c #9D7449",
"7  c #9E794C",
"8  c #997653",
"9  c #9E7951",
"0  c #A17446",
"q  c #A3764A",
"w  c #A87749",
"e  c #A4794D",
"r  c #AB7B4D",
"t  c #B17D4E",
"y  c #A37C53",
"u  c #AB7D52",
"i  c #B37F50",
"p  c #967C63",
"a  c #9A8439",
"s  c #A3923E",
"d  c #A88944",
"f  c #B7824F",
"g  c #B2974B",
"h  c #B6994C",
"j  c #AB8155",
"k  c #A5825B",
"l  c #AC855C",
"z  c #B68253",
"x  c #B98253",
"c  c #BC8956",
"v  c #B5855A",
"b  c #BA8659",
"n  c #B6885D",
"m  c #BC8A5B",
"M  c #BE915F",
"N  c #AB8663",
"B  c #B58663",
"V  c #B88661",
"C  c #B38B63",
"Z  c #BC8C62",
"A  c #B58B6B",
"S  c #B88E6A",
"D  c #BD9165",
"F  c #B49069",
"G  c #BC926B",
"H  c #BF9D6D",
"J  c #AB8E73",
"K  c #B38E74",
"L  c #B69474",
"P  c #BB9373",
"I  c #BD9974",
"U  c #B4967D",
"Y  c #B8967C",
"T  c #BD9A7C",
"R  c #C28F59",
"E  c #C4935C",
"W  c #CA975B",
"Q  c #C5985D",
"!  c #CB9B5D",
"~  c #D19F5E",
"^  c #D8A55E",
"/  c #CCB858",
"(  c #EBB55F",
")  c #C18E63",
"_  c #C29365",
"`  c #C29867",
"'  c #C3946A",
"]  c #C69B6D",
"[  c #D09F60",
"{  c #C39B72",
"}  c #C59B77",
"|  c #CA9E76",
" . c #C49B78",
".. c #CCA36C",
"X. c #D4A561",
"o. c #DCAB62",
"O. c #D7AB6C",
"+. c #CAA473",
"@. c #CEAB72",
"#. c #C4A27B",
"$. c #CAA37C",
"%. c #D5AD75",
"&. c #D3AC7B",
"*. c #D9B278",
"=. c #E1AF62",
"-. c #E5B363",
";. c #EBB661",
":. c #E6BA64",
">. c #EDB965",
",. c #E5B66B",
"<. c #E9B769",
"1. c #EAB969",
"2. c #EEBB68",
"3. c #EFBB68",
"4. c #EABA6D",
"5. c #F0BB67",
"6. c #F1BB69",
"7. c #F2BB69",
"8. c #F0BC69",
"9. c #F2BC69",
"0. c #E6BC74",
"q. c #EABB72",
"w. c #EABD75",
"e. c #CFC251",
"r. c #D7C657",
"t. c #E5DA5B",
"y. c #F6EB4D",
"u. c #F6ED54",
"i. c #F9EE53",
"p. c #F0E45D",
"a. c #F5ED5B",
"s. c #F8EF59",
"d. c #F7F156",
"f. c #F9F256",
"g. c #F7F25D",
"h. c #FAF35C",
"j. c #FCF85D",
"k. c #D9C76D",
"l. c #E8C266",
"z. c #E5C769",
"x. c #E7DC67",
"c. c #F0DD6F",
"v. c #EBD67D",
"b. c #EDDC78",
"n. c #EEE261",
"m. c #EDE36A",
"M. c #F4EB62",
"N. c #F9EF64",
"B. c #F2E568",
"V. c #F5EA69",
"C. c #F6F262",
"Z. c #FAF461",
"A. c #F2E473",
"S. c #9F8B81",
"D. c #A39188",
"F. c #B79681",
"G. c #BC9D84",
"H. c #B29B8C",
"J. c #BD9E8B",
"K. c #AE9E98",
"L. c #B49E93",
"P. c #B7A08E",
"I. c #BCA394",
"U. c #BCA59B",
"Y. c #B8A69E",
"T. c #AB9CA4",
"R. c #AEA0A1",
"E. c #B8ABA5",
"W. c #B4ABB7",
"Q. c #BDB8BB",
"!. c #C7A586",
"~. c #CEAA84",
"^. c #CDAF8E",
"/. c #D1AC84",
"(. c #D4AE8B",
"). c #CDB08F",
"_. c #D8B483",
"`. c #DCBC84",
"'. c #D7B688",
"]. c #DCBC8D",
"[. c #C5A995",
"{. c #D8B891",
"}. c #E1BC9F",
"|. c #C7B4AB",
" X c #C6B7B1",
".X c #C4BBBE",
"XX c #E3CB83",
"oX c #E1C48C",
"OX c #E6CB8C",
"+X c #EAD485",
"@X c #E2C59D",
"#X c #F0E081",
"$X c #D9C3A9",
"%X c #BFBDC5",
"&X c #C7BEC1",
"*X c #C7C3C8",
"=X c #D7CFCB",
"-X c #C6C5D3",
";X c #C8CAD6",
":X c #CDCED9",
">X c #D1CFD8",
",X c #CFD0DA",
/* pixels */
"w.0.0.q.q.,.=.=.o.=.-.-.,.,.1.>.6.3.3.6.8.8.8.7.7.7.7.7.7.>.8.6.3.>.>.>.>.>.>.>.>.>.>.>.>.>.>.>.>.>.>.>.>.>.>.>.7.;.7.;.",
"q.q.,.,.,.-.=.-.( -.-.-.<.<.,.3.3.3.3.3.8.8.7.7.7.7.7.7.7.7.8.3.3.>.3.;.>.>.>.>.>.>.3.>.>.3.>.>.>.>.>.>.>.3.>.>.;.;.;.;.",
"<.<.<.<.-.-.-.:.-.-.;.:.:.:.<.3.3.3.3.6.3.8.8.8.7.7.7.7.6.6.8.8.3.3.3.>.3.>.>.>.>.:.>.>.>.>.>.>.>.3.>.>.>.>.>.>.;.7.;.;.",
":.:.:.-.;.;.:.:.;.:.;.>.;.;.;.>.>.3.>.3.3.6.8.8.7.7.>.7.6.8.8.8.3.5.>.>.>.>.>.>.3.>.>.>.>.>.>.>.>.>.>.>.>.>.>.;.6.;.;.( ",
">.>.>.>.>.>.>.;.;.>.>.>.( 5.>.5.3.>.3.8.8.3.3.3.8.8.5.5.8.8.8.8.8.3.3.3.>.>.3.>.>.>.>.>.>.>.3.:.>.>.>.>.>.>.;.;.( ( ;.( ",
">.>.>.>.;.;.;.;.>.;.;.;.>.;.;.;.>.>.>.6.3.3.3.3.3.3.5.5.8.7.8.8.8.3.3.3.l.3.>.>.>.>.>.>.>.>.>.>.>.>.>.>.>.>.;.;.;.;.;.;.",
">.( >.>.;.;.;.>.( ;.;.>.;.>.( l.>.>.>.>.>.3.3.>.3.3.3.3.8.>.>.8.5.3.>.6.5.8.3.>.>.>.>.>.3.>.>.>.>.>.>.>.>.>.6.;.<.;.>.>.",
":.>.>.;.;.>.( >.>.>.>.5.( >.>.>.>.>.>.>.>.>.3.3.>.3.3.3.8.8.6.6.3.6.8.8.5.5.,.'.].q.>.>.>.>.>.>.>.>.>.>.>.>.;.6.>.>.>.>.",
">.>.>.>.>.>.>.>.>.>.>.>.>.( >.:.>.;.>.>.>.>.>.>.3.>.3.3.4.w.w.q.q.q.q.4.4.4.{.=X=X$X0.4.4.4.1.1.4.,.-.;.>.>.>.>.>.>.>.>.",
">.>.>.>.>.>.>.>.>.>.>.>.>.>.>.( ;.:.;.;.>.>.>.>.3.>.3.1.#.L #.#.#.#.$.$.$.$.!.^.^.).~.&././._././.{.!.[ >.>.>.>.>.>.>.>.",
">.>.>.>.>.3.>.>.>.>.>.>.>.( >.( ( >.;.;.:.;.;.;.>.>.>.*.: + = - , , 3 , 3 , 4 4 3 3 4 4 6 6 4 e y (.E. .-.>.;.3.>.>.>.>.",
">.>.>.>.>.>.>.>.>.>.>.>.>.( ( ( ( ( ( -.;.;.:.>.>.>.l.H o X $ & * = = & = & % & % & % % % % % = A ~.B i ~ >.3.;.>.>.>.>.",
">.>.>.>.>.>.>.>.>.>.1.>.>.>.( >.( ( ( ( ( ;.;.>.>.>.*.2   . $ 6 0 0 0 4 0 0 4 0 6 4 4 0 4 4 4 4 !.' t t m ;.;.3.>.>.>.>.",
"l.>.>.>.>.>.>.>.>.>.>.>.>.;.( ( >.( ( ( ;.( ( ;.<.>.@.+   . @ = = - ; , < 3 3 3 3 4 4 4 3 4 4 l /.z 0 w b o.6.>.>.>.>.>.",
";.>.>.>.>.>.>.>.>.>.>.>.>.>.( ( ( ( ( ( ( ;.( :.;.,.N . X   + = = = = = * * & & % % % % % % % L | u , w v X.>.>.>.>.>.>.",
"5.>.>.>.>.>.3.>.>.>.>.>.>.>.;.>.>.( ( ( ( ( ( ;.;.%.#   . X @ 4 4 4 4 0 4 0 6 4 4 6 6 6 4 4 y ~.Z w < w V X.6.;.<.>.>.>.",
">.>.>.>.>.>.>.>.>.>.>.>.>.>.>.( ( ( ( ( ( ( ;.;.,.F o . . . @ 3 4 3 4 < 4 4 4 0 4 0 4 0 6 4 C ~.z < < 6 I.%.>.>.5.;.;.6.",
">.>.3.>.;.>.>.>.>.>.>.>.>.>.>.>.( ( ( ( ( ( ( ( *.: . . . . # & % * % % % % % * * * = = , , $.' r , 4 6 B X.6.>.5.5.;.;.",
">.>.>.>.>.>.>.>.>.>.>.>.>.>.>.( >.( ( ( ( -.;.:...O   . X   % 6 4 4 4 4 4 < 4 < , , , = * e ). .q < < w x o.;.>.;.5.;.>.",
">.>.>.>.>.>.>.1.>.>.>.>.>.>.>.( ( ( ( ( ( ( ( ,.5   . . . O & 3 4 4 4 0 0 0 0 6 4 0 6 0 4 { [.H.4 < , r c o.6.>.( 5.6.>.",
">.>.>.3.>.>.>.>.>.>.>.>.>.( ( >.( ( ;.:.z.l.;.@.# .     . @ & % % % % % = , , , < 4 < 4 e ~.) y < < 4 v R -.;.>.>.>.>.>.",
">.>.>.>.>.>.>.>.>.>.>.>.( ( ( ( ( ( :.m.f.N.m.x.e.a     O = 0 4 4 4 < < , 3 , = * % % % k ~.z 4 < < 9 I.X.( ;.>.>.>.>.>.",
">.>.>.>.>.>.>.>.>.>.>.>.( ( :.:.l.x.u.s.C.s.C.h.j.M.e.s $ & , , < 4 4 0 4 6 0 0 6 6 4 6 #.{ u , < < u K ( ( ( ( ;.;.;.;.",
"3.>.>.>.>.>.>.>.>.>.>.:.>.z.M.a.a.g.f.i.i.i.u.u.j.d.j.C.t.r.g ; % % % > = = , 4 4 4 4 u (.b w , < 0 x E ( l.( ( 5.5.;.;.",
">.>.>.>.>.>.>.>.>.:.<.z.m.a.f.h.u.i.u.s.s.Z.C.h.g.Z.h.Z.Z.Z.Z.n./ g d < , * = % % % > S $.i < < - u c ^ ( ;.;.;.( ;.;.;.",
">.>.>.>.>.>.>.1.x.a.p.a.f.d.i.y.u.C.h.s.h.h.C.h.j.Z.h.h.Z.Z.Z.Z.Z.C.m.r./ h 6 0 6 < 6 ~.) r < 6 N c ! ;.>.;.( 5.;.;.;.;.",
">.>.>.;.:.>.,.z.C.h.h.i.i.i.y.i.h.h.f.u.s.h.h.h.g.f.f.d.f.f.Z.Z.h.h.Z.h.j.n.d * > * N /.b 0 4 N L.] ;.6.;.5.5.( >.;.;.;.",
">.;.:.-.! ` &.*.+X+XA.V.N.h.i.y.y.d.s.s.h.Z.h.Z.g.f.d.y.f.g.g.j.h.h.h.h.Z.h.p.k.#.L !.| n r t v ] >.>.>.;.;.;.5.>.;.;.;.",
";.;.;.-.m G S m ) { $.'.oXOXv.b.V.p.s.i.h.h.h.Z.f.s.f.h.g.d.f.h.Z.C.f.u.s.N.V.#X@X}.(.Y.T c E o.>.>.>.>.l.5.;.5.>.>.>.>.",
">.;.;.<.E P Z t x x x c Z I | /.].oX+Xv.m.M.C.h.h.f.f.h.d.f.C.N.N.A.A.v.XX`.*.+.] m ` O.O.=.<.>.>.>.>.>.5.;.5.;.>.>.>.>.",
">.>.>.>.W b b x z f x n [. X|.{ b ) { $._.}.oX+X+Xc.B.Z.V.c.v.XX_.&.+.' m b x i K A ! >.>.>.5.>.>.>.>.>.;.5.;.;.>.>.>.>.",
">.>.>.5.X.i m Z r r t !..XQ.-X[.x x x x b m ' | /.].].`.&...' R R x x i x i f z K A ^ >.>.>.>.>.>.>.5.( 5.5.;.5.3.>.>.>.",
">.>.>.>.o.x x S q 4 4 U L.*X>X[.f x x f x x x A P R Z S b z z z x x z x z i x z x c o.>.>.>.>.>.>.>.>.>.>.>.>.>.>.>.>.>.",
">.>.;.;.=.m x ' 7 4 4 9 D.%X>XI.e r f z x f x S G.b G I.b x i x i t r r w q v m x b -.>.>.>.>.>.>.>.>.>.>.>.>.>.>.>.>.3.",
";.;.;.;.;.R x ) j , & * 8 K..XP.4 4 q q e r t z x b Z n t e e 6 y J U 7 < 4 G m z M <.>.3.>.>.>.>.>.3.>.>.>.>.3.>.>.>.>.",
"-.( -.( ;.W i b Z 6 4 < , & 3 ; - , 4 6 0 4 4 t x m Z x u 6 4 J &X>XQ.5 * > ' x x Q ;.>.>.>.>.>.>.>.>.>.>.>.>.>.>.>.>.>.",
"( ( ( ( ( ~ P P D 3 3 4 4 6 4 , = * % * = 3 4 t f R ) x u , = U ;X,X&X8 , y ' i i X.>.>.>.>.>.>.>.;.3.>.3.>.>.>.3.>.>.>.",
"( -.:.;.-.o.Y Y D 1 % % , , 4 q 0 0 4 < < = * w i m ) x w * = L.,X;X&X9 4 A ) f b o.>.:.>.>.>.>.>.>.:.>.;.>.>.>.>.>.>.>.",
"( ( -.;.;.-.m x Z C 6 4 , % % % - < 4 0 0 4 4 r i R ) x r 0 4 H.-X:X&XN , C Z I m -.>.3.>.>.3.>.>.>.;.3.3.;.>.>.>.>.>.>.",
"( ;.;.;.7.;.Q x b n = < 4 q 4 , = % % = 3 4 q r x b Z i t 0 1 R.;X-X;XH., G A L._ <.>.>.>.>.>.>.>.>.3.>.>.3.>.3.>.>.>.3.",
">.;.;.3.6.>.^ z z D 4 % % * 3 0 6 0 < = % % & e V Z ) B e % > W..XE.*XU u _ f v ! ;.>.>.>.>.>.>.>.>.>.>.>.>.>.>.5.;.;.5.",
">.;.3.>.>.:.=.c z D l 6 3 = % % , 4 q 6 4 4 , q [.Y L [.u < 8 T.E.Y.E.6 l Z z b ^ 5.>.>.>.>.>.>.5.;.>.>.>.>.>.>.;.;.5.( ",
">.>.3.>.>.>.>.E m S ] P l e 4 3 = * % = 6 4 4 r V C ) A u 6 4 p D.S.1 % C b i m ;.>.>.;.>.>.>.>.5.5.;.5.>.>.>.>.5.5.5.5.",
">.3.;.3.>.:.6.! J.F.i )  .{ G j 7 6 < , % % ; e i m ) i w , % % > , 4 w G c x ! >.;.;.>.( >.>.>.;.5.;.5.>.>.>.>.5.;.5.5.",
">.>.>.>.>.>.>.=.` B t G I.n Z { } C u 4 4 , * < x R ) i 0 % , 4 4 4 7 C _ x x ^ l.( ( 5.( ;.;.5.;.l.5.;.6.>.>.>.( >.>.>.",
">.>.:.>.>.>.>.>.-.o.! Z A z i S T '  .{ l e 6 w x b ) x r 6 q y N I #.+.m V m -.( ( ( ( ;.;.;.( ;.5.;.5.>.>.>.>.5.>.>.( ",
"3.;.3.;.>.;.;.>.;.;.;.-.X.) R P H.x x ) | #.{ v x b ) i u C { $.| ' b z v U.X.( ( ( 5.( ;.;.;.;.;.;.( 5.>.>.5.( >.>.>.;.",
";.3.>.;.;.;.>.>.;.>.6.;.6.;.=.[ ) b i G J.V ' ' x R ) i ] | ) b U G.z z x ) o.l.( ( ;.;.;.;.;.;.;.;.;.( >.>.5.;.>.>.>.>.",
";.>.( >.>.( >.:.>.>.>.>.>.>.>.3.<.o.W S K i x x b Z ) V i i x x S G m ! o.-.;.;.;.;.;.;.;.;.( 5.( ( ( ( l.( 5.( ;.5.;.;.",
">.>.>.>.>.>.;.3.>.>.>.>.>.>.>.>.>.>.>.-.^ R v b [.F.S [.Z b x R ! o.<.>.>.>.>.>.;.;.;.;.;.;.( 5.( ( 5.( ( ( ( ( ;.;.;.( ",
">.>.>.>.>.>.3.>.>.>.>.>.3.>.>.>.>.>.>.>.;.<.o.W S S S S R ~ o.-.>.>.>.>.>.>.>.>.>.5.5.;.;.( ;.( 5.( 5.( l.( ( ( ;.;.;.;.",
">.>.>.>.>.3.>.>.>.>.>.>.>.>.>.>.>.>.>.>.6.>.>.<.-.o.o.o.<.6.5.>.>.>.>.>.>.>.>.>.>.>.>.;.5.;.;.5.( 5.5.( ( ( ( ( ( ( ;.( ",
">.>.:.>.>.>.>.>.>.>.>.>.>.>.>.>.>.>.3.>.;.>.>.>.>.>.6.>.>.>.>.>.>.>.>.>.>.;.>.>.>.>.>.>.>.;.>.;.;.5.5.5.( 5.( ( ( ( ( ;.",
"3.>.>.>.>.>.>.>.>.>.3.<.>.>.>.<.>.>.>.>.>.>.>.>.>.>.>.>.3.>.>.>.>.>.>.>.>.6.>.>.>.>.>.6.5.5.>.5.;.;.( ( 5.( ( ( ( ( ( ( ",
">.>.>.>.>.>.>.>.>.>.>.>.>.>.>.>.>.>.>.>.>.>.>.>.>.>.>.>.<.>.>.>.>.>.>.>.>.>.>.>.;.>.5.;.;.5.5.;.;.;.( 5.5.( ( ( ( ;.;.;.",
">.>.>.>.>.>.>.>.>.>.3.>.>.>.>.>.>.>.>.>.>.>.>.>.>.>.>.>.>.>.>.3.>.3.>.>.>.>.>.;.>.;.;.;.;.;.;.;.;.;.( 5.( 5.( ( ( ;.;.>.",
">.>.>.>.3.:.>.>.>.>.>.6.3.>.>.>.3.>.>.>.>.>.>.>.3.>.>.>.>.>.>.>.>.>.>.>.>.>.>.<.;.;.;.;.;.;.;.;.;.;.5.;.;.;.;.;.;.;.5.;.",
">.>.>.3.>.>.>.>.>.>.>.>.>.>.>.>.>.>.>.>.>.>.>.>.>.>.>.>.>.3.>.>.>.>.>.3.>.;.;.;.;.;.;.;.;.;.;.;.;.l.;.5.>.>.5.5.>.>.>.>.",
">.>.>.>.>.>.>.>.>.>.>.>.>.>.>.>.>.>.>.>.>.>.>.>.>.>.>.>.>.>.>.>.>.>.>.>.>.>.>.;.;.;.;.;.5.;.;.;.5.;.;.;.>.>.;.5.>.>.>.>.",
">.>.>.>.>.>.>.3.3.>.>.>.>.>.>.>.>.>.3.>.1.>.>.>.>.>.>.<.>.>.>.>.>.>.;.,.>.>.;.>.;.<.;.;.;.;.;.<.;.;.;.;.5.;.5.5.>.>.>.>."
};
