/* XPM */
static char *be76dac0e3fa47caaaf31e26b704e2f6zoIqA4N41eK5I67m[] = {
/* columns rows colors chars-per-pixel */
"60 60 225 2 ",
"   c #33262E",
".  c #392B34",
"X  c #3B2D34",
"o  c #3D3137",
"O  c #3E3238",
"+  c #5F2A16",
"@  c #5E2B1D",
"#  c #63240D",
"$  c #6D270E",
"%  c #74290D",
"&  c #792B0D",
"*  c #672916",
"=  c #612A19",
"-  c #742D15",
";  c #7C2E12",
":  c #793219",
">  c #4E2D2B",
",  c #5A2D24",
"<  c #5B3125",
"1  c #58342D",
"2  c #5B342C",
"3  c #43343B",
"4  c #46373B",
"5  c #5C3933",
"6  c #583834",
"7  c #5D3D3B",
"8  c #66382D",
"9  c #773C27",
"0  c #5C423D",
"q  c #66443C",
"w  c #754933",
"e  c #7B4836",
"r  c #4A3C42",
"t  c #4F4047",
"y  c #5D4342",
"u  c #54444C",
"i  c #5C4749",
"p  c #5E4A54",
"a  c #624849",
"s  c #78574B",
"d  c #614D53",
"f  c #644F58",
"g  c #675357",
"h  c #65535B",
"j  c #68545B",
"k  c #735952",
"l  c #7A6254",
"z  c #6A5862",
"x  c #6C5B63",
"c  c #715D66",
"v  c #755F69",
"b  c #776366",
"n  c #75626A",
"m  c #7A656D",
"M  c #7C6770",
"N  c #7E6972",
"B  c #812F13",
"V  c #843314",
"C  c #8A3415",
"Z  c #8A3618",
"A  c #943C1B",
"S  c #9A3F20",
"D  c #96431C",
"F  c #9B421E",
"G  c #A34B1F",
"H  c #874328",
"J  c #9D4322",
"K  c #9D4923",
"L  c #914F2B",
"P  c #91553A",
"I  c #A34423",
"U  c #A54C24",
"Y  c #AA4E28",
"T  c #AB552B",
"R  c #AC592E",
"E  c #B2542D",
"W  c #B25C2C",
"Q  c #B85E2F",
"!  c #AA5B32",
"~  c #B45C32",
"^  c #B95E33",
"/  c #B05C3E",
"(  c #B8642E",
")  c #B66234",
"_  c #BA6435",
"`  c #BD6B34",
"'  c #B76539",
"]  c #BB6539",
"[  c #BD6C3A",
"{  c #BD713C",
"}  c #C16436",
"|  c #C36639",
" . c #C46A3A",
".. c #C66D39",
"X. c #C7773B",
"o. c #C5733C",
"O. c #C9743E",
"+. c #8C5B4A",
"@. c #9A6B4E",
"#. c #977657",
"$. c #B0734E",
"%. c #A37B59",
"&. c #937065",
"*. c #836C75",
"=. c #866F79",
"-. c #86737A",
";. c #8B767E",
":. c #A57F60",
">. c #C57642",
",. c #CA7740",
"<. c #CD7C42",
"1. c #C47A49",
"2. c #D07F43",
"3. c #C37857",
"4. c #B48657",
"5. c #A88872",
"6. c #CE8344",
"7. c #CA844A",
"8. c #D28445",
"9. c #D38946",
"0. c #D88D47",
"q. c #D28549",
"w. c #D48C4A",
"e. c #D98E4C",
"r. c #D6924D",
"t. c #DB934E",
"y. c #DC984D",
"u. c #CC8954",
"i. c #D58E54",
"p. c #C7945B",
"a. c #D59352",
"s. c #DB9651",
"d. c #DC9B53",
"f. c #D7985A",
"g. c #E09954",
"h. c #D5A25C",
"j. c #DEA259",
"k. c #E2A35C",
"l. c #EAB45E",
"z. c #D9996A",
"x. c #D2AD78",
"c. c #DDB67A",
"v. c #E6B565",
"b. c #EBB762",
"n. c #EDB965",
"m. c #E5B66A",
"M. c #E6B86D",
"N. c #EBBA6A",
"B. c #F0BB67",
"V. c #E5B973",
"C. c #E2B876",
"Z. c #EABC73",
"A. c #EFC37B",
"S. c #8B7B81",
"D. c #8C7B84",
"F. c #917E85",
"G. c #97858C",
"H. c #99858C",
"J. c #9D8D92",
"K. c #9E9594",
"L. c #A18C8B",
"P. c #A5928D",
"I. c #A59797",
"U. c #A4949A",
"Y. c #AA9A9D",
"T. c #B6A390",
"R. c #B6A79F",
"E. c #AC9DA1",
"W. c #B09FA4",
"Q. c #AEA4A5",
"!. c #B1A2A6",
"~. c #B2A6A8",
"^. c #B5AAAA",
"/. c #BAADAA",
"(. c #BAAEB1",
"). c #BCB2B3",
"_. c #BFB5B9",
"`. c #CBB18E",
"'. c #D6B686",
"]. c #DDBA84",
"[. c #DBBC8C",
"{. c #D8BC93",
"}. c #D6BE9C",
"|. c #E1BC83",
" X c #C1AFA6",
".X c #C9B9A6",
"XX c #C1B6B6",
"oX c #C2B7BA",
"OX c #C5BBBC",
"+X c #DEC299",
"@X c #E9C48A",
"#X c #E6C796",
"$X c #DCC4A5",
"%X c #D4C2AB",
"&X c #C8C0BF",
"*X c #D4C5B4",
"=X c #D3C6BA",
"-X c #D5C9BC",
";X c #DDCCB8",
":X c #E6CCA5",
">X c #E8D3B9",
",X c #F0D7B2",
"<X c #C9BEC1",
"1X c #CCC3C4",
"2X c #CEC6C8",
"3X c #D5CBC3",
"4X c #D5CAC8",
"5X c #D4CCCB",
"6X c #D9D1CB",
"7X c #DAD1CC",
"8X c #D8CED1",
"9X c #D8D2D2",
"0X c #DCD5D5",
"qX c #DED6D8",
"wX c #DFD8D9",
"eX c #E6D6C5",
"rX c #E4D6CA",
"tX c #E1D8D6",
"yX c #E3DCDC",
"uX c #E7E0DE",
"iX c #E5DFE0",
"pX c #E8DFE0",
"aX c #E6E1E1",
"sX c #E9E2E2",
"dX c #F1EBED",
/* pixels */
"b.n.b.B.b.b.b.b.l.n.n.n.n.@X:X+Xc.c.M.n.B.B.B.N.B.B.N.B.B.n.n.n.b.b.n.b.m.c.c.C.M.b.n.n.n.n.n.n.n.n.n.n.n.n.n.n.n.n.n.n.",
"b.b.l.b.b.b.n.l.l.n.n.n.A.-X5X9X9X3X/.c.n.n.B.B.B.B.B.N.N.N.Z.V.|.[.:X;X3X1XOX X/.`.c.n.n.n.n.n.n.n.n.n.n.n.n.n.n.n.n.n.",
"b.b.b.b.n.n.n.l.n.n.n.V.).9XyXaXaX5X/.x.M.C.x.+X+X+X$X$X;X>X6X6XtXyXsXsXsXsXyX1X(.~.^.m.n.n.n.n.n.n.n.B.n.B.n.n.n.n.n.n.",
"b.b.b.b.l.l.n.l.l.n.A.$X).3X9X3X_.^.K.I..X3X5X_.9XwXaXaXaXsXuXuXuXsXuXuXyXsXuX3X(.^.~.c.n.n.n.n.n.n.n.N.n.n.n.n.n.n.n.n.",
"n.n.n.b.n.b.b.b.M.@XrXsX2X(.Q.Q.K.K.^.wX9X2X1X)._._.&X2X5X9X0X0XyXuXyXuXyX7X<X(.^./.`.b.b.v.v.l.n.n.n.n.n.n.N.n.n.n.n.n.",
"b.n.n.n.n.l.l.c.3X0X0X0X9X2X2X1X&X1X3X9X9X&X_.).^.Y.K.I.Y.Q.Q.^.).).XX).).(.^.~./.`.{.$X%X%X%X%Xc.N.n.n.n.n.n.n.n.B.n.n.",
"n.n.n.n.n.l.n.@XwXwXwX0X0X0X0X0XwX0X0X0X9X9XwX0X0X1X).5X3X1X&X_.).(./.(._.<X<X1X4X7X9X0X0XwXqX0X5X+XN.n.n.B.n.n.n.n.n.n.",
"b.b.l.n.n.l.l.+XwXwXwXwX0X0X0X0X0X0X0X0X9XwX9X0X0X0X2X0X0X0X0X0X0X0XwX0X0X0XtXtXwX0X0X0X0X0X0XyXuX5Xc.n.n.n.n.n.n.n.n.n.",
"n.n.b.n.n.b.b.+X9X9XwXaXsXaXaXuXyXyXyXyXiXyXyXwXyXuX0XwX0X0X0X0XqX0X0X0X0XqXyXtXqXyXyXqX0XwXyXiXwXwX$Xb.n.n.n.b.n.n.n.n.",
"b.b.b.b.b.b.b.+X9XwX0XaXsX9XQ.K.W.XXOX2X5X8X0XyXwXuXsXuXuXyXyXyXyXyXyXpXyXpXsXpXpXsXiXpXsXsXsXwX0XwX=Xm.n.n.n.B.n.n.n.n.",
"n.n.n.b.b.b.l.%X0X0X0XwXaXK.b x j j z c n N -.D.G.G.K.I.U.Y.Y.E.W.!.!.!.!.W.W.W.E.U.J.E.oXiXiX0X0X0X3Xc.n.n.n.n.n.B.n.n.",
"b.b.n.b.b.l.v.%XwX0X0XaX0X;.h a 5 2 2 2 5 r i i d h j x n c c c v v v n v v c c c c m *.S.8XaX0X0X0X5X@Xb.n.n.b.n.N.n.n.",
"n.b.b.b.b.b.m.*X0X0X0XaX5XN g < $ % % % $ # # + = @ @ < 2 8 2 2 5 5 1 1 5 2 < < < 0 j m *.oXsXqX0X0X9X{.l.n.b.b.b.B.n.n.",
"b.n.b.n.b.b.M.-X0X0X0XaX&XN g * A U Y U I C F J A Z Z V ; V Z : ; ; ; - ; B B V B = a c -.(.sX0X0X0X9X+Xl.l.b.b.b.b.n.n.",
"b.b.b.b.b.b.V.6XwX0XwXaX_.n d * U <.q.<.) F _ ) ) _ ~ ~ I T ) ~ ~ E Y J ^ ~ ~ ~ I ; r m *.!.iX0X0X0X0X%Xv.b.n.b.b.B.B.b.",
"b.b.b.b.n.b.Z.rXwX0XwXaX^.n i * ` g.d.i.( A ) _ { <.<._ U ~ o.7.q.6.R Y q.9..._ U & a v M E.iX0X0X0X0X=XM.b.n.b.b.b.b.B.",
"b.B.n.b.n.n.n.:XyX5X5X5XU.c a - X.y.s.t.( F 9.e.e.s.t.[ U >.d.s.d.d.W T d.t.q.~ T V y z *.U.iX0X0X0XyX6XM.n.n.n.n.n.n.n.",
"n.n.n.n.n.B.|.tXyX7X2X1XG.z 7 : <.y.y.e._ T s.y.0.g.t...U <.e.t.d.k.` T t.t.w.[ ] V 7 z M J.yX0X0X9XwX6XV.n.n.n.n.B.n.n.",
"n.n.B.n.n.N.;XtX0XwXyXyXH.x 7 V 2.t.t.0._ W g.t.9.t.e.O.U 6.9.y.j.k.[ R t.t.e.[ ] V 6 z *.H.yXtX0X0XyX;XN.n.n.n.n.n.n.B.",
"n.n.B.b.n.M.6XtX0X0XwXtXD.z 6 Z 8.e.e.0._ E g.t.8.t.t.O.U <.r.d.j.k.{ R s.e.q.{ ] Z 5 h M F.0XsXuXyX9X+XN.n.n.n.n.n.n.n.",
"n.n.n.b.b.M.7X0X0X0XyX9XS.h 1 A 8.e.e.0.} W r.s.r.d.a.X.G X.d.k.j.k.>.R r.a.i.o._ Z 5 j *.-.OXsXuXwX9X6X+Xb.b.n.n.n.n.n.",
"n.n.B.b.b.M.7XtX0X0XyX8X-.h 1 J 0.e.0.0.` W w.d.d.j.j.6.G <.y.k.d.k.1.R a.s.s.o.) Z 5 h *.S.9XpX0X0X0X0X%Xn.b.n.N.n.n.n.",
"n.n.b.b.b.Z.7X0X0X0X0X5X=.h 2 H $.@.@.$. .W r.d.d.j.h.7.P { a.j.j.k.6.! e.d.d.1.~ Z 2 h M ;.5XyX0X0X0XwX=XM.n.n.n.n.n.n.",
"B.n.n.B.n.V.4X0X0XqXtX2X*.h > i f z v a L W s.y.d.j.4.k 0 4 k 4.d.j.7.W s.d.d.>.] Z 2 j M =.2XyX0X0X0X0X-XM.n.n.B.n.n.n.",
"n.n.n.n.n.V.3X0X0X0XwX2XN d > q w q i w ! W d.a.j.4.0 r O X O 0 4.l.6.R r.j.d.X.[ Z 2 h N *.1XuX0X0X0X0X3XC.B.N.n.n.n.n.",
"n.n.n.n.B.V.3X0X0X0XwXOXm h , K 7.4.4.r.{ ( d.d.p.k   t O O O   l h.6.( r.j.d.6._ D q j N *.oXuX0X0X0X0X9Xc.n.n.n.n.B.n.",
"n.n.n.n.b.M.-XqX0X0XyX_.m d , K 9.j.d.j.X.( a.h.:.p . u O O O o u 4.9.W r.d.d.9._ Z 5 j N *.XXuX0X0X0X0X5X@Xn.n.n.n.n.n.",
"n.n.n.n.b.M.=X0X0X0XyX_.m d @ K 9.j.y.a.6.W a.p.k u . r O O O O 3 l 9.( y.d.d.w.] C 2 h N *.).uX0X0X0X0X9X+Xn.n.n.n.n.n.",
"n.n.n.n.n.n.*X0X0X0XyX).m d @ U r.d.d.s.6.( r.4.t u . t O 4 O X 4 0 4.( r.d.s.i._ V 2 h N -.^.sX0X0X0X0X9X+Xb.n.n.n.n.n.",
"n.l.n.n.b.n.}.0X0X0XuX).m d @ D r.s.y.s.6.( d.4.o u X t r 3 O X 4 3 $.` s.d.s.9.~ Z 2 h N *.~.uXwX0X0XwX9Xc.n.n.n.n.n.n.",
"n.n.b.n.n.n.C.-X0X0XaX).m d = D r.d.d.r.9.( a.#.. u . u O O O X 3 o @.o.r.d.s.w.] V 2 h N N Q.sXyX9XwXyX-XM.b.n.n.n.n.n.",
"n.l.n.n.n.N.C.;X0XyXyX~.b d @ F r.d.a.r.0.` a.5.u u 4 u 3 o X . o 4 %.o.t.d.r.e.[ V 1 h N N Y.sXaXuXaXrXC.n.n.n.n.n.n.n.",
"n.n.n.n.n.N.*X0XwXuXyXQ.n d = D r.d.a.r.w.` r.p.4.%.:.%.+.+.@.#.#.4.u.{ d.r.r.r.' ; 2 h m *.J.2X3XwXaXrX#XV.n.n.n.n.n.n.",
"n.n.n.n.b.M.=X0X0X0XsX_.m d @ D 9.d.r.r.9.` d.r.a.s.d.a.^ | y.d.y.r.9.X.d.r.r.y.` ; 5 h N *.D.).&X0XyXyXwX$Xn.N.n.n.n.n.",
"n.n.n.n.n.M.-X0X0X0XsXoXm d @ D 7.r.w.w.9.` a.r.9.r.r.r._ o.r.w.r.r.9.X.d.r.a.r.' & 5 h m *.J.sXyX0X0X0XwX-XV.B.n.n.n.n.",
"n.n.n.n.n.m.-X0X0X0XsX_.N h + V 6.r.w.9.w.` r.r.9.w.r.r...>.r.w.w.r.9.6.r.r.r.9.[ % 6 h *.*.J.sXyX0X0X0XwX9Xc.B.n.n.b.n.",
"n.n.n.n.n.m.-X0X0X0XsX&XN g < H u.i.q.i.9...a.e.9.9.r.q.o.<.w.w.w.w.9.6.a.9.9.r.' % 7 h M *.H.yXyX0X0X0X0X9X@Xl.n.n.n.n.",
"n.n.n.n.n.m.-X0X0X0XuX2X*.g q L 1.f.f.f.r.` a.e.9.9.w.q.o.6.w.w.r.9.6.6.a.9.r.9.) $ 7 h *.*.L.uXyX0X0X0X0X5X+Xl.n.n.b.b.",
"n.n.n.l.l.v.-X0X0X0XuX2X-.b q ; [ q.9.i.f.{ i.q.w.6.9.w.X.<.9.w.r.w.7.9.r.9.9.r.~ $ 0 h *.*.H.sXyX9X0X0XwX0X+Xl.b.n.n.b.",
"n.n.b.l.l.v.-X0X0X0XuX2XG.m 1 - ] q.w.w.a.1.f.q.9.9.9.q.<.8.9.9.9.w.6.6.9.9.r.r.~ $ 7 h *.*.H.iXyX0X0X0X0X9X+Xb.b.b.n.n.",
"b.l.l.l.b.v.-X0X0X0XyX0XH.z a +.3.z.i.9.w.] i.q.0.8.0.8.2.8.8.8.8.0.2.8.8.9.w.e.T $ a j *.*.F.pXyX0X0X0X0X9X'.l.n.n.n.n.",
"l.l.l.l.n.v.%X0X0X0XyX9XS.x c +.3.x.a.q.w.~ u.i.8.8.8.8.X.6.8.8.8.8.8.8.8.8.w.w.Y # r z *.*.H.pXwX0X0X0X0X9X@Xn.B.n.n.n.",
"b.b.n.n.n.n.].4X0X0XwXOXS.v b +.$.z.i.u.f.3.1.q.8.8.8.8.X.8.8.8.q.8.8.8.8.8.8.q.K * i z *.*.H.pXyX0X0X0X0X9Xc.b.n.N.B.B.",
"n.n.n.n.n.n.+X6X9XwXyXwXJ.n j s &.&.&.H.5.$. .q.2.8.8.6.X.8.8.6.8.8.8.8.8.8.w.2.D + a z *.=.F.pXyX0X0XwX0X=XV.n.n.B.B.B.",
"n.n.n.n.n.M.-X0X0XqXuXsXY.n d 7 h v D.F.z Z [ 2.2.2.8.8...2.2.6.8.8.8.O.8.8.8.O.C = a z *.*.H.pXaXaXyXwX9X+Xn.n.n.n.n.B.",
"n.n.n.n.n.M.3X9X0X0XwXaX(.m h > 8 &.&.k P ! ' <.2.2.8.2...8.2.6.8.2.8.2.2.8.8.| C @ d c *.*.J.pXyXwX9X0X9X-XV.v.n.n.n.n.",
"N.n.n.n.n.M.-X0X0X0XwXsXOXS.h 1 9 3.3.o.1._ _ <.2.8.2.O.( <.<.<.X.2.O.O.2.2.2.^ C @ p x =.*.U.pXwX0X0X9X9X9X@Xl.n.n.n.n.",
"n.n.n.n.n.M.=XqX0X0XwXaX2X-.N 7 Z /  ...o._ ) O.2.O.2.8.W <.O.2.<.2.X.} ..O...Q B , f c *.=.U.pXwX0X0X9X9XwX+Xn.n.n.n.n.",
"n.n.n.n.n.n.%XqX0X0X0XsX5X-.m k 9 S } | ..Q ~ ,.O.2.2.,.T ,.2.2.<.<. .W | ....W & < f v =.*.E.sX0X0X0X9X9X9X$Xn.n.n.n.n.",
"n.n.n.N.n.n.+XqX0X0XqXsX0XS.v a = Z ^ | | Q E ..O.2.2.O.U ..O.<.O.<._ W | |  .E & 2 f v =.*.!.sX0X0X0X0X9X9X*XN.n.n.n.n.",
"n.n.n.n.n.n.{.9X0X0X0XuXtXF.m d = C Y } | E T >...,.O.} I >.O.,.<.O.Q E  .} | E % 5 h m =.*.(.sX0X0X0X0X9X9X=XN.n.n.n.n.",
"n.n.n.n.n.n.'.9XyX0X0XiXyXH.M j < B S Y E Y I ] | ..| } I >...O.O.| E T ..} } G $ 7 h n *.*.oXyX0XqX0X0XqXyX3XM.n.n.n.n.",
"n.n.N.n.n.n.c.6XqX0X0XyXsXU.N z 5 & S I I I I Y E ^ $.E A >.| } } | E S } } ^ A $ 7 h n *.=.1XsXwX0X0X0X0XtX5XC.n.n.n.n.",
"n.n.n.n.n.n.V.3XyXtXyXyXsX).*.n y # C A I I S S S J I Y Z Y E Y E E I Z I S A C # y z G.E.E.2XyX0X0X0X0X0XyX5XC.n.N.Z.Z.",
"n.n.n.n.n.n.n.*XyXpXpXsXsXqXS.n j +.+.9 9 Z * 8 - : : V - - ; : - : : = 9 9 e P s b J.8X0X9X&XOX0X0X0X0X0XyX9X|.Z.Z.A.C.",
"n.n.n.n.n.n.n.'.6XyXiXsXsXdX_.J.(.8X8X5X<XoXXX!.R.Y.U.L.U.J.L.L.L.J.I.U.E.E.^.^.(.!.XXOXOX<X1XXX5XwX0X0XyXyXuX@XZ.Z.c.M.",
"n.n.N.n.n.n.n.N.Z.@X#X;X>X,X,X#X[.|.@X#X#X,X>XeXtXtXtXtXtXqX8X5X8X2X2X<X<X<X<XoX XP.^.^.(.(.2X).5XsXsXsXaXaXeXV.m.v.v.v.",
"n.n.n.n.n.n.n.n.n.n.n.n.n.n.n.n.B.B.B.B.b.n.b.B.Z.@X@X#X:X>XeXeXeXrXrXrXrXrXeX|.N.T.U.^.!.!.~.R.`.%XXX.X`.x.M.n.n.n.b.n.",
"n.n.n.n.n.n.N.n.n.n.n.n.n.n.n.n.b.B.B.B.n.n.n.b.b.b.B.B.n.n.B.B.N.N.Z.Z.N.N.N.B.n.v.x.x.x.'.'.m.n.v.v.v.n.n.n.n.n.n.n.n.",
"n.n.n.n.n.n.n.n.n.n.n.n.n.n.n.n.n.b.B.n.b.n.b.b.B.n.n.n.B.n.n.b.B.n.B.B.n.n.n.n.B.n.b.n.n.b.b.n.n.n.n.n.n.n.n.n.n.n.n.n."
};
