/* XPM */
static char *c2382171c29b4696e4e2d6d49485d8173fIKfIe4UUOt7Qpr[] = {
/* columns rows colors chars-per-pixel */
"60 60 227 2 ",
"   c #2E2A2A",
".  c #39332E",
"X  c #3B3632",
"o  c #5E2A29",
"O  c #593A29",
"+  c #443D34",
"@  c #583D36",
"#  c #663729",
"$  c #73392A",
"%  c #653833",
"&  c #763436",
"*  c #4A4238",
"=  c #564737",
"-  c #7D4326",
";  c #7A4627",
":  c #785B29",
">  c #644737",
",  c #724A30",
"<  c #68543A",
"1  c #776739",
"2  c #383C4B",
"3  c #273F61",
"4  c #4A3B4D",
"5  c #653546",
"6  c #3E505F",
"7  c #2A4367",
"8  c #29456C",
"9  c #384866",
"0  c #314469",
"q  c #334B6D",
"w  c #3A5168",
"e  c #284672",
"r  c #2B4975",
"t  c #385172",
"y  c #4A4747",
"u  c #564A43",
"i  c #595648",
"p  c #40465A",
"a  c #4A5559",
"s  c #535B56",
"d  c #685647",
"f  c #755C44",
"g  c #645C57",
"h  c #6B674B",
"j  c #766A44",
"k  c #79744C",
"l  c #6D6758",
"z  c #786A58",
"x  c #495667",
"c  c #42546D",
"v  c #535C6B",
"b  c #455976",
"n  c #5B6167",
"m  c #566377",
"M  c #666A67",
"N  c #6C6A66",
"B  c #726D66",
"V  c #636D7E",
"C  c #6E7777",
"Z  c #7C7770",
"A  c #842C2A",
"S  c #8C2E2B",
"D  c #962F2C",
"F  c #90322F",
"G  c #98352D",
"H  c #893735",
"J  c #9C3330",
"K  c #A82B28",
"L  c #AB2D29",
"P  c #B42A26",
"I  c #BB2B26",
"U  c #B42D2A",
"Y  c #BD2F28",
"T  c #A4312E",
"R  c #AE342E",
"E  c #B9352C",
"W  c #A83432",
"Q  c #B33532",
"!  c #B73833",
"~  c #C32A25",
"^  c #C53633",
"/  c #CA3834",
"(  c #DB3735",
")  c #D33A36",
"_  c #DB3B36",
"`  c #E33B37",
"'  c #EA3A37",
"]  c #E43C38",
"[  c #EA3C38",
"{  c #804527",
"}  c #854E2B",
"|  c #964F24",
" . c #9B5325",
".. c #8A4937",
"X. c #984F3A",
"o. c #8D5832",
"O. c #A25224",
"+. c #B8542C",
"@. c #A84336",
"#. c #AA4B3C",
"$. c #B44738",
"%. c #B85A38",
"&. c #8E6E2E",
"*. c #9B6027",
"=. c #9B6738",
"-. c #A97031",
";. c #A57A39",
":. c #C0512B",
">. c #C9473A",
",. c #D6463B",
"<. c #CB553E",
"1. c #D2513E",
"2. c #E04037",
"3. c #8B4844",
"4. c #895D46",
"5. c #9B5946",
"6. c #AD5A46",
"7. c #A7524B",
"8. c #8A6B46",
"9. c #956746",
"0. c #867745",
"q. c #9A774A",
"w. c #9B6C56",
"e. c #8A7A5B",
"r. c #987A55",
"t. c #BA6846",
"y. c #A17A4F",
"u. c #B67A48",
"i. c #AA6852",
"p. c #A57D51",
"a. c #A0785A",
"s. c #817564",
"d. c #997E65",
"f. c #A17F64",
"g. c #C95D43",
"h. c #D55540",
"j. c #C95351",
"k. c #C86846",
"l. c #D16346",
"z. c #CA774C",
"x. c #92843D",
"c. c #B1903D",
"v. c #8A814D",
"b. c #978745",
"n. c #9A815E",
"m. c #A28B42",
"M. c #A9864B",
"N. c #B48549",
"B. c #B18D4E",
"V. c #B8964C",
"C. c #AB8252",
"Z. c #AA8856",
"A. c #B8935A",
"S. c #988567",
"D. c #998A74",
"F. c #989173",
"G. c #A68765",
"H. c #B99663",
"J. c #A38B73",
"K. c #A99879",
"L. c #B59D7A",
"P. c #9DA070",
"I. c #AFA17D",
"U. c #C5824D",
"Y. c #C29C4E",
"T. c #CA8952",
"R. c #D18C54",
"E. c #C69A58",
"W. c #D39857",
"Q. c #D69B59",
"!. c #CCA25A",
"~. c #D0A654",
"^. c #D4A55D",
"/. c #DAA35B",
"(. c #D6A95D",
"). c #DCAB5E",
"_. c #E5B35F",
"`. c #EAB55F",
"'. c #F1B95F",
"]. c #C29B64",
"[. c #C9A264",
"{. c #D3A865",
"}. c #DCAD62",
"|. c #DAAE6B",
" X c #DEB068",
".X c #C6A578",
"XX c #D6AE73",
"oX c #DAB27B",
"OX c #E1AF61",
"+X c #E5B363",
"@X c #EBB662",
"#X c #EDB965",
"$X c #E5B66A",
"%X c #E7B96C",
"&X c #EEBB69",
"*X c #F0BA65",
"=X c #F1BB69",
"-X c #E6BC75",
";X c #E9BC73",
":X c #E8BE79",
">X c #E8C07C",
",X c #6E7684",
"<X c #908C8A",
"1X c #AA9785",
"2X c #99A382",
"3X c #A7A982",
"4X c #A4AB83",
"5X c #BAA28B",
"6X c #AFB78C",
"7X c #B5BC92",
"8X c #B2B1B0",
"9X c #C6A885",
"0X c #C7AC93",
"qX c #C8B49A",
"wX c #D6B99C",
"eX c #C4B7AC",
"rX c #D8BDA6",
"tX c #C3BDBA",
"yX c #E0BFA3",
"uX c #D2C4B9",
"iX c #E8C4A5",
"pX c #EEC9AC",
"aX c #F1CBAD",
"sX c #FDD5B5",
"dX c #FFD8B8",
"fX c #BDC3C4",
"gX c #CBCCC6",
/* pixels */
"@X#X@X*X@X@X@X@X@X'.@X`.`.'.#X#X#X#X#X#X*X*X>X*X>X'.>X'.'.'.'.'.#X#X#X'._.V.x.m.m.).>X'.#X#X#X#X#X#X#X#X#X#X#X#X@X@X@X@X",
"@X@X@X@X@X@X@X@X@X@X>X'.#X#X#X#X#X#X#X#X'.'.'.'.>X'.*X'.*X>X>X'.#X#X#X>XY.1 6 7 s x.`.'.#X#X#X#X#X#X#X#X#X#X#X#X@X=X&X&X",
"@X*X@X@X@X#X@X'.@X#X#X#X#X#X#X#X#X#X#X#X'.>X'.'.'.>X'.'.>X*X'.'.`.#X#X#Xb.w b ,Xq 1 ~.*X#X#X`.>X#X`.'.#X#X'.#X#X#X#X#X#X",
"@X@X`.@X@X@X@X`.@X#X#X@X#X#X#X#X#X'.'.>X'.>X*X>X'.*X'.>X'.'.>X'.'.'.>X_.&.t C Z b s Y.*X#X#X'.`.>X'.'.#X#X'.`.>X@X=X#X#X",
"#X`.#X+X@X@X@X@X@X@X@X@X'.#X@X@X`.#X#X#X>X'.#X#X>X#X'.'.'.'.'.'.#X#X#X~.h c ,X<Xb s m.#X>X'.'.'.#X#X#X#X#X#X#X#X#X#X#X#X",
"#X#X#X#X@X@X@X@X@X@X@X'.'._.'.'.#X`.@X@X#X`.#X#X'.#X#X>X*X>X'.>X#X@X}.c.s m m v ,Xm x.~.#X'.`.>X#X#X#X'.#X#X#X#X#X=X#X#X",
"#X`.#X#X#X#X#X#X#X#X@X'.@X>X`.@X#X#X#X#X#X#X#X'.'.@X@X#X'.>X`._.}.!.b.h q ,Xm V ,Xb x x.V.~._._._.#X'.'.#X#X#X#X#X#X#X#X",
"`.>X@X#X#X@X#X#X#X@X@X'.`.`.>X@X%X@X#X#X#X*X>X'.#X#X'.@X@XY.x.v.h s w r r t r r b t r q a s k b.m.(.>X#X#X#X#X#X#X#X#X#X",
"`.`.@X>X#X@X'.#X@X@X@X#X`.>X>X@X$X$X%X#X*X*X>X*X#X>X'.'.'.z q q r r r x a y y a a a x q r r r r w !.#X#X#X#X#X#X#X#X*X*X",
"'.'.`.`.#X#X@X@X@X@X@X@X>X>X>X>X$X+X$X%X&X*X'.*X'.'.>X'.>XZ.r r r r x 8.e.z d s.D.d.j h r r r r n +X#X#X#X@X#X#X#X#X*X@X",
"@X#X'.'.@X@X'.'.`.`.>X@X>X-X-X%X+X}.+X$X%X&X&X#X>X>X'.'.=X#Xn.N v c B z   . s l * C D.S.b v M z !.#X#X#X#X#X#X#X@X&X&X@X",
"#X@X@X`.@X'._.`.'._.>X>X%X%X%X_.+X+X+X+X+X%X&X&X'.'.'.>X=X=X=X=X=X[.1XK.u X D.yXl 8XuX1XL.}.@X*X&X#X#X#X#X#X#X#X&X*X@X&X",
"@X@X`.`.@X@X`.`._.>X>X_._.@X>X_.+X@X@X@X@X#X&X&X&X=X=X=X=X=X=X=X>X`.L.rXaX0XiXsX0XrXaX5X.X@X%X@X@X@X@X*X@X@X@X@X@X&X#X#X",
"@X#X'.`.'.@X`.>X`.`.#X#X@X#X@X@X@X@X@X@X#X@X#X&X&X&X&X=X=X=X=X=X=X%Xd.qXwX5XrXrX0X0XiXG.A.#X@X*X@X@X`.@X`.@X`.@X@X@X#X#X",
"@X@X@X>X@X#X@X#X'.#X#X#X>X`.'.#X'.`.$X#X@X#X#X#X&X&X=X#X=X&X&X=X=X=XuXtXJ.w.y.Z.r.f.L.{.+X#X#X#X*X@X@X@X@X@X#X@X`.*X#X#X",
"@X@X@X@X@X#X#X#X@X#X#X@X`.'.'.@X#X#X#X@X'.#X#X#X#X@X#X&X#X*X&X&X*X>X[.G.C.p.y.p.p.p.p.C.}.*X#X#X#X@X*X#X#X#X#X@X@X@X#X#X",
"@X#X&X@X#X#X@X&X#X#X#X&X#X#X#X#X#X#X#X#X#X@X#X#X#X#X#X#X>X>X'.'.&X}.E.X.5.q.q.y.q.q.w.X.u./.$X@X#X&X&X#X#X#X#X#X@X#X#X#X",
"&X#X#X#X#X&X#X#X@X#X#X#X#X&X#X#X#X#X#X@X#X@X`.`.#X_.#X#X'.`.#X~.t.#.Q L 9.C.C.C.p.r.3X@.T @.6.W.#X#X@X#X#X#X#X#X&X#X#X#X",
"#X#X#X#X#X'.@X#X#X@X@X#X#X#X#X#X#X#X#X#X#X'.#X`.`.`.#X`.%X#XW.<._ ! L 7.S.r.C.y.G.F.I.S.T Q ( >.T.#X#X#X#X&X#X#X#X#X&X#X",
"#X#X*X#X@X@X#X*X#X#X#X#X#X#X#X#X#X#X#X#X#X`.`.`.`.`._.#X'.}.%.( [ _ J 4.@.5.Z.y.2X7X#.6.H ^ ] ] $.(.*X#X#X#X#X#X#X#X#X#X",
"#X#X@X*X@X@X#X@X#X#X#X#X#X#X&X#X#X#X#X#X#X@X@X`.`.`.`.`.@XT.` ' [ ` W J ~ i.S.r.e.K.! I H ) [ [ [ z.@X*X#X#X#X#X#X#X#X&X",
"#X#X@X'.@X'.@X*X*X#X#X#X#X#X@X#X#X#X#X#X#X#X@X`.`.'.@X@X(.1.' ' [ _ / U I 6.4XP.4XJ.I I E ) [ [ [ ,.Q.#X#X#X#X&X#X#X#X#X",
"#X&X&X@X@X'.*X@X@X#X#X#X#X#X#X#X#X#X#X#X#X#X@X`.`.`.`.`.z.` [ [ ] Q ) ^ I #.I.3X6Xw.~ U ( Q ] [ ' ' l.+X#X#X@X&X#X#X#X#X",
"#X#X#X#X#X#X@X#X'.'.#X#X#X#X#X&X#X&X#X#X#X@X@X`.`.@X`.).>.[ [ [ / J _ _ U Q D.3X4X5.I ! ' Q Q ' ' ' ,./.#X&X#X#X#X#X#X#X",
"#X#X#X#X#X&X@X#X#X'.@X*X@X&X#X#X#X#X*X@X@X`.`.`.`.`.@Xz.` [ [ _ t./ _ [ E U K.7X6X6.P _ 2._ #.) [ [ ` k.$X#X&X@X#X#X#X@X",
"#X#X#X#X#X#X#X#X#X#X@X#X#X#X#X#X#X&X@X%X`.`.`.`.`.'.Q.>.[ [ [ 1.Q.g.] [ / P G.7XI.! U [ [ ) T.k.] [ [ ) W.@X&X#X#X#X#X&X",
"#X#X#X#X#X#X#X#X#X`.#X#X#X#X#X#X#X#X#X@X@X@X'.@X@X@XU.` [ ' ) u.%Xk.( ' ) P i.7XS.T Y [ [ >./.T./ [ [ ` k.@X@X#X#X#X&X#X",
"#X#X&X@X@X#X#X@X#X#X#X#X#X#X#X#X#X@X@X#X@X@X@X%X@X@Xk.' [ ' >.Q.&Xz.` ' / S f l = L ^ ' ' 1._.).>.[ [ [ h.`.#X#X#X#X#X#X",
"#X#X@X@X@X@X#X#X&X#X#X#X#X@X@X@X#X@X#X#X#X#X#X#X@X%Xl.[ [ ' g.$X&XR._ j.1X@ * i d L ) [ ' h.$X@Xz.` [ [ 1.+X@X*X#X#X#X@X",
"@X#X#X@X#X#X#X#X#X#X#X@X@X@X#X@X#X#X#X#X#X#X#X#X*X@Xl.[ [ ] z.#X+X9.W w.gX3.1 P.e.G T R W ..!.&XR.` [ [ h.+X#X#X#X#X#X&X",
"#X@X#X'.#X#X#X#X#X#X#X#X#X#X#X#X#X#X#X@X@X#X#X#X@X@Xk.2.2.,.k.$X}.f g <XfXd &.1 1 &.O $ @ @ A.@XU.) 2.2.<._.*X#X#X#X&X#X",
"#X#X#X#X#X#X#X#X#X#X#X#X#X#X#X#X#X'.@X@X#X#X#X#X#X).+.:.+.+.O.E.}.D.fX8X<X* : * * < + & $ % A.}.*.+.+.:.+.W.&X#X#X#X#X#X",
"#X#X#X#X#X#X#X#X#X#X#X#X#X#X@X@X`.`.@X#X#X#X#X#X&X).E ~ ~ Y ;.+X@Xi.8XfX<XS 8.1 0.o.S G S ! Q.#XN.E I ~ ~ Q.&X#X#X#X#X#X",
"#X#X#X#X#X#X#X#X#X#X#X#X@X`.`.`.'.`.#X#X#X#X#X#X#X).$.Y I I U.*XOX..s.8X8X7.L.M 2X6.P D D E R.>XW.E I I R /.*X#X#X#X#X#X",
"#X#X#X#X&X#X#X#X#X@X@X@X@X_._.@X`.#X#X#X#X#X#X#X#X@XZ.S.S.a./.*XW.+ + & 7.Q D.t C i.K S S T z.'.+Xp.f.S.n._.&X#X#X#X#X'.",
"#X#X#X#X#X#X#X#X#X`.`._._.`.@X@X#X#X#X#X#X#X#X#X&X@XL.rXqXL.+X#Xy..   D U U v r t 3.P A S G <.`.+XL.qXwXL._.@X&X#X@X#X@X",
"#X#X#X#X#X#X`.@X`.`._.`.@X@X#X#X#X#X#X#X#X#X#X&X#X XiXdXsXiXXX@X< + @ ^ U J 3 c r 5 I S S T >.).|.pXsXsXiX X&X*X#X#X#X#X",
"#X#X#X@X@X`.`._._.`.`.`.@X#X#X#X#X#X&X#X#X#X#X#X#X|.iXdXrXrXXXE.d * ../ I F p ].B 4 I Q _ [ _ T.oXrXwXsXiX X#X@X#X#X@X'.",
"#X#X#X@X`.`._.`._.#X#X#X#X#X#X#X#X#X#X#X#X#X#X`.@X+X9XpXeXgXD.+ = * o ^ I 5 n @XG.4 I E [ [ ` t..XXX.XaX9X_.@X&X@X@X#X#X",
"#X@X`.`.`.`.`.`.#X#X#X#X#X#X#X#X#X#X#X#X`.#X@X#X#X@X{.9X5X1Xz . i u % W K 5 B '.H.p J J ! J 5./.$XH.5X9X{.@X@X@X@X@X*X@X",
"`.`._.`._.@X#X#X#X#X#X#X#X#X#X#X#X@X@X@X@X@X#X@X@X@X#X+XXX}.A.j = a q 9 9 0 s.'.].9 3 c 3 3 C =X*X+XXX+X@X@X@X*X#X#X#X#X",
"`.`.`.`.@X#X#X#X#X#X#X#X#X#X#X#X@X@X#X#X#X#X#X#X@X@X%X#X#X*X*X+Xd.r r r r r n.'.{.c r r r r n $X@X*X#X@X@X@X@X@X#X&X#X#X",
"@X@X#X#X#X#X#X&X#X#X#X#X`.#X#X@X#X#X#X#X&X#X#X#X*X#X#X#X#X#X#X*XS.e r r r r G.*XOXv e r r r v OX*X*X*X*X@X@X@X%X#X=X=X=X",
"#X&X#X#X#X#X#X#X#X#X#X#X#X#X#X#X#X#X#X#X#X#X#X#X#X#X#X#X#X#X#X#Xs.e r r r q H.*X+XN e r r 3 b /.@X`.`.@X@X'.@X@X@X&X#X=X",
"#X#X#X#X#X#X#X#X#X#X#X#X#X#X#X#X&X@X#X#X#X#X&X#X&X@X*X&X#X#X#X@XM r r r r t {.*X@XN e r r r t G.`.`.'.`.@X@X#X#X#X#X&X&X",
"#X#X#X#X#X#X#X#X#X#X#X#X#X#X#X#X#X#X&X#X#X#X#X#X@X&X&X@X#X#X#X}.x r r r r 9 !.*X#Xl 8 e r r 3 A.*X`.`.`.#X#X#X#X#X#X#X#X",
"#X#X#X&X#X#X#X#X#X#X#X#X#X#X#X#X&X@X&X#X#X#X&X@X#X#X@X&X#X#X#X).x 7 r r 8 a ).#X*Xn.7 7 r 8 3 G.'.`.`.@X@X#X#X#X#X#X#X#X",
"#X#X#X#X#X#X#X#X#X%X#X#X#X#X#X#X#X*X@X#X#X#X#X#X#X#X#X#X#X&X#X^.p 8 8 7 3 N @X#X#XM.4 2 p p 4 q.@X@X@X#X@X#X#X#X#X#X#X#X",
"#X#X#X#X#X@X#X&X#X#X#X#X&X@X#X#X&X@X#X#X#X&X@X#X#X#X#X#X#X#X>X~.d u y y 4 Z.#X@X'.u.| | | | O.-.`.`.#X#X#X#X#X#X#X#X#X#X",
"#X#X#X#X#X&X#X#X#X#X#X#X#X#X#X#X&X*X#X#X#X#X&X#X#X#X#X#X#X#X#X+Xq.< d < 1 Q.@X@X`.=. .&.| O.| *.+X'.#X#X@X*X#X#X#X#X#X#X",
"#X#X#X#X#X#X#X#X#X#X#X@X&X#X#X#X@X&X#X#X#X#X#X#X#X#X#X#X&X#X#X#X}.8.f f E.#X#X@X_.x.&.:  .*.-.c.(.#X#X#X#X#X#X#X#X#X#X#X",
"#X&X#X#X#X#X#X#X#X&X#X&X#X#X#X#X#X#X#X#X#X#X#X#X#X#X#X#X#X#X#X#X#X].d.].@X@X#X*X&X^.} ; &.&.c._.@X#X#X#X#X#X#X#X#X#X#X@X",
"#X#X#X&X#X#X#X&X#X#X&X#X#X#X#X#X&X#X&X*X#X&X@X#X#X#X#X#X#X@X@X@X*X].G.OX#X#X#X#X*X/.} - ; ; c.>X*X@X&X@X#X&X#X#X#X#X&X#X",
"#X#X#X#X&X@X#X#X#X#X@X*X#X#X#X#X@X#X@X@X#X#X&X#X#X#X#X#X#X#X#X#X*X].G.#X#X#X#X#X'.~.} { { A =.`.*X&X@X#X#X#X#X#X#X=X;X;X",
"#X#X@X#X#X#X#X#X#X#X#X#X&X@X#X#X#X#X#X&X#X#X#X#X#X#X#X`.`.#X#X#X#XH.H.@X@X#X#X#X>XY.- ; { ; # x.@X&X=X&X#X#X#X&X;X;X:X:X",
"#X#X&X#X#X#X#X#X#X#X#X&X#X#X#X&X#X&X#X#X#X#X#X#X#X#X#X#X#X#X#X#X).f.H.#X#X#X#X#X#X=.- { { : : , ;.N.N.(.&X&X&X;X-X-X-X$X",
"#X#X#X#X#X#X#X#X#X#X#X#X#X#X#X#X#X#X#X#X#X#X#X&X#X#X@X@X#X#X#X#XC.d 8.@X#X#X#X#X#X8.# ; - ; } ; - - - o.Q.%X%X%X%X$X+X+X",
"&X#X#X#X#X#X&X@X&X#X#X#X#X#X&X@X#X#X#X#X#X#X#X@X@X#X#X#X#X#X#X#X^.p.B.@X#X#X#X#X#XOXC.1 > # ; - - - , O j +X#X#X#X#X@X#X",
"@X&X#X#X#X#X#X&X@X&X#X#X#X#X#X&X#X#X#X#X#X#X#X@X#X@X#X#X#X#X#X#X*X#X&X#X#X#X#X#X#X#X&X#XE.8.= O # O = 8.(.#X#X#X#X#X#X#X",
"#X#X#X#X#X#X#X#X#X#X#X#X#X#X#X#X#X#X#X&X'.#X#X@X#X#X#X#X#X#X#X#X#X#X#X#X#X#X&X#X#X#X#X#X#X#X).Z.0.q.^.*X*X#X#X&X#X#X#X#X"
};
