/* XPM */
static char *ec6970a6fe914b2fcb5a72e90fcfec48BlBn4rFdjoovxKSj[] = {
/* columns rows colors chars-per-pixel */
"60 60 198 2 ",
"   c #5D3927",
".  c #573A2A",
"X  c #68382B",
"o  c #78362C",
"O  c #713D36",
"+  c #4A4439",
"@  c #5A4834",
"#  c #6A4828",
"$  c #774127",
"%  c #7D4427",
"&  c #7C4828",
"*  c #7E4B29",
"=  c #795B29",
"-  c #645A31",
";  c #7B613F",
":  c #5C3E55",
">  c #2E405C",
",  c #3B445C",
"<  c #2B4569",
"1  c #2A456C",
"2  c #3A4E67",
"3  c #344C6D",
"4  c #3C5369",
"5  c #294771",
"6  c #2B4975",
"7  c #334D72",
"8  c #494348",
"9  c #5A4842",
"0  c #4E4A58",
"q  c #4B5A5E",
"w  c #6E5B43",
"e  c #795745",
"r  c #7E585D",
"t  c #5A6358",
"y  c #776646",
"u  c #7B794C",
"i  c #646759",
"p  c #7E7A54",
"a  c #495969",
"s  c #4D5D75",
"d  c #596468",
"f  c #596678",
"g  c #6A6B6B",
"h  c #7B7871",
"j  c #8C2E2A",
"k  c #82382F",
"l  c #9E332F",
"z  c #AB2F2C",
"x  c #BC2B26",
"c  c #A5342E",
"v  c #A63E31",
"b  c #B33431",
"n  c #BC3532",
"m  c #B63B32",
"M  c #C42B26",
"N  c #C33734",
"B  c #C33B34",
"V  c #CB3A36",
"C  c #CC3835",
"Z  c #D23936",
"A  c #DA3A36",
"S  c #E33A37",
"D  c #E93A37",
"F  c #E43C38",
"G  c #EA3C38",
"H  c #804527",
"J  c #824D2D",
"K  c #964B27",
"L  c #81552F",
"P  c #9B5525",
"I  c #9E473A",
"U  c #865533",
"Y  c #A25323",
"T  c #B8512C",
"R  c #B44A3A",
"E  c #B7573C",
"W  c #9A6728",
"Q  c #9A742C",
"!  c #816630",
"~  c #946530",
"^  c #936F32",
"/  c #AC6B30",
"(  c #CE4435",
")  c #D8443A",
"_  c #80594C",
"`  c #9A5548",
"'  c #AF5C4D",
"]  c #886D45",
"[  c #956F42",
"{  c #897449",
"}  c #9A794B",
"|  c #976852",
" . c #8F7A5D",
".. c #967F52",
"X. c #A6614E",
"o. c #A16150",
"O. c #AE6C51",
"+. c #A47D51",
"@. c #AB7859",
"#. c #8A7A68",
"$. c #957E66",
"%. c #817D74",
"&. c #C24E46",
"*. c #D25345",
"=. c #C05D53",
"-. c #C96946",
";. c #D17C4F",
":. c #A6803F",
">. c #978549",
",. c #998559",
"<. c #A4894A",
"1. c #B6834A",
"2. c #B9964D",
"3. c #A58254",
"4. c #AB8354",
"5. c #AA845B",
"6. c #A88858",
"7. c #B58C54",
"8. c #B78D58",
"9. c #AC9654",
"0. c #BB9858",
"q. c #838B6D",
"w. c #978362",
"e. c #9F8A62",
"r. c #9C8E73",
"t. c #A58867",
"y. c #B28D66",
"u. c #BD9B63",
"i. c #B89A68",
"p. c #AC9979",
"a. c #B49576",
"s. c #9FA07F",
"d. c #C98A52",
"f. c #D28C54",
"g. c #C79556",
"h. c #C29A5B",
"j. c #CB9E5A",
"k. c #D69457",
"l. c #D59C5A",
"z. c #C3A34A",
"x. c #CCA25C",
"c. c #D4A55C",
"v. c #DAA25B",
"b. c #D7A85E",
"n. c #D8AC5A",
"m. c #DFB05E",
"M. c #E5B35E",
"N. c #EAB55F",
"B. c #D18E7B",
"V. c #C5987D",
"C. c #CEA562",
"Z. c #CAA568",
"A. c #D4AA63",
"S. c #DBAC63",
"D. c #D7AE6F",
"F. c #DEB16B",
"G. c #C2A476",
"H. c #DBB175",
"J. c #E4B364",
"K. c #ECB762",
"L. c #EDB965",
"P. c #E5B66A",
"I. c #E8B769",
"U. c #E7B96C",
"Y. c #EDBA69",
"T. c #F0BB66",
"R. c #F1BC68",
"E. c #E6BC75",
"W. c #E9BC73",
"Q. c #E7BE79",
"!. c #E9BE7A",
"~. c #E8C07C",
"^. c #657182",
"/. c #8F8682",
"(. c #999089",
"). c #AC9985",
"_. c #B4B68C",
"`. c #AFA39B",
"'. c #B8B890",
"]. c #B7B3AF",
"[. c #D19D88",
"{. c #C2A78A",
"}. c #C4A68B",
"|. c #CFAA8E",
" X c #D9B787",
".X c #CCAF94",
"XX c #CAB497",
"oX c #D4B398",
"OX c #D8BB9A",
"+X c #E1BD9A",
"@X c #DEBEA2",
"#X c #E2BDA2",
"$X c #D7C5B7",
"%X c #E7C3A4",
"&X c #EAC6A9",
"*X c #F2CCAD",
"=X c #FAD3B3",
"-X c #FFD8B8",
/* pixels */
"K.L.K.K.K.K.K.K.K.K.T.L.L.L.L.L.N.T.L.L.x.<.z.m.Y.Y.R.Y.R.L.L.L.L.L.L.L.L.L.L.L.L.L.L.Y.L.Y.L.L.L.T.L.L.L.L.L.L.L.K.L.L.",
"K.K.K.K.L.K.K.K.K.N.L.L.L.L.L.L.L.L.T.L.i 3 a >.m.Y.Y.R.Y.R.Y.L.L.Y.L.L.L.L.L.L.L.L.L.L.L.L.L.L.Y.K.L.L.L.Y.L.L.K.Y.L.L.",
"K.K.K.K.K.K.K.K.K.T.L.L.L.L.L.L.L.T.T.M.g 5 6 4 >.L.Y.Y.Y.R.R.L.L.L.L.L.L.L.L.L.L.L.L.L.Y.K.L.L.L.L.L.L.L.L.L.L.L.L.L.K.",
"K.K.T.N.K.K.K.N.M.L.L.T.L.L.L.L.L.L.T.U.%.s 6 6 t z.L.Y.R.R.R.L.L.K.Y.L.L.Y.L.L.L.L.L.L.K.T.L.L.L.L.L.L.L.L.L.L.L.K.Y.R.",
"N.N.L.N.K.K.K.K.K.N.K.N.N.L.L.N.M.L.L.L.s.s 7 6 6 u >.w.9.Z.Y.Y.Y.L.L.L.T.T.T.T.L.L.L.L.Y.L.L.Y.L.L.T.L.Y.L.L.L.K.Y.L.L.",
"T.N.~.L.K.K.K.I.L.M.K.L.N.N.L.L.M.L.L.L.9.d ^.7 6 3 u u a a h.R.K.Y.L.L.N.N.T.N.Y.L.L.K.L.L.L.L.L.Y.K.L.K.T.L.L.R.K.L.L.",
"T.N.L.L.L.T.K.~.T.L.K.T.T.T.N.L.T.L.L.L.F.q.f 7 6 6 7 t u i  .K.L.I.N.T.T.T.~.N.K.L.L.Y.L.L.L.L.L.L.L.L.L.Y.Y.K.R.K.L.K.",
"N.T.L.N.L.N.N.N.L.K.K.K.L.L.K.~.U.L.L.L.~.,.s 6 6 6 6 6 3 a i p >.z.M.N.~.N.N.T.T.L.L.L.L.L.L.L.L.L.L.L.L.L.L.L.L.K.R.R.",
"K.K.K.T.L.N.L.L.N.N.L.N.N.~.~.M.P.J.I.Y.T.S.i i i d a 7 6 6 5 6 6 q z.K.K.~.T.T.L.L.K.T.L.L.L.L.L.L.K.Y.L.L.L.L.L.L.L.L.",
"K.T.L.N.L.L.L.N.L.L.N.L.~.Q.~.~.P.F.P.I.Y.L.8.G. Xe.e.e.u t 4 6 4 u n.K.N.N.N.T.L.Y.L.L.Y.L.L.L.L.L.L.L.L.L.L.L.L.L.L.L.",
"L.K.K.T.L.N.L.N.N.K.L.~.Q.~.E.U.P.S.M.P.I.L.D.#.8 h `.OX+.<.,.h 9.M.K.L.T.~.N.N.L.L.L.L.K.L.L.L.T.K.T.K.K.L.L.L.Y.L.L.L.",
"K.L.K.N.L.N.N.K.K.K.K.~.U.U.U.U.M.J.M.F.H. XOXXXi ].$X*Xy.6.{.%XH.R.R.L.T.N.T.T.L.L.L.Y.L.L.L.L.K.T.Y.K.L.L.L.L.L.L.L.L.",
"K.L.K.K.K.K.N.K.K.U.U.L.M.L.L.m.J.K.F.+X=X@X@X&X&X&X&X*Xy.5..XoXF.R.Y.K.L.L.L.L.L.L.L.L.L.L.L.R.T.K.K.K.K.K.K.K.L.L.L.L.",
"K.K.L.K.L.K.L.L.K.K.L.L.L.L.L.K.K.K.J. X%X%X|.t.}.&X=X=X}.t.$.i.R.R.R.Y.R.L.L.Y.L.L.L.Y.L.L.L.K.K.K.K.K.N.N.N.N.K.L.L.L.",
"K.K.K.K.K.K.~.L.~.L.L.L.L.L.L.L.N.K.T.J.J.8.+.+.+.$.}.=X&X).{ A.R.R.R.Y.R.L.K.K.L.L.L.L.Y.L.L.L.K.K.K.K.L.L.K.K.K.T.K.L.",
"L.K.K.K.K.L.N.K.N.L.L.N.L.M.L.L.K.K.T.T.T.l.} 4.4.+.5.a.#X}.w h.R.T.Y.R.Y.R.R.Y.L.L.L.L.L.L.L.L.L.T.K.L.L.L.L.K.K.K.L.L.",
"T.N.T.N.T.N.N.T.T.N.N.T.T.T.T.K.T.L.L.L.L.x.3.+.+.} y.+X@X'. .j.R.Y.R.R.Y.T.R.L.L.L.L.L.L.L.L.L.L.Y.L.L.L.L.L.L.L.L.L.Y.",
"N.T.T.T.L.T.T.N.N.T.T.N.N.N.T.T.L.L.L.L.J.7.4.4.4.4.).XX_.@.l O.L.Y.L.Y.Y.L.L.L.L.L.L.L.L.L.L.L.L.L.L.L.L.L.L.Y.L.L.L.L.",
"T.L.~.N.L.K.N.~.T.N.N.~.T.T.N.K.L.L.L.L.K.7.4.4.8.6.s._.X.z C ( d.Y.L.L.L.L.L.L.L.L.L.L.L.L.L.L.L.L.T.L.L.L.L.L.L.L.L.L.",
"L.L.N.T.N.T.T.N.L.T.L.L.L.L.~.N.L.L.L.L.K.g.4.g.N...q.p.b Z F A R b.L.L.L.L.L.L.L.L.L.Y.L.Y.L.L.L.L.L.L.L.L.L.L.L.L.L.T.",
"L.L.L.N.T.N.T.T.L.L.L.L.T.N.T.T.L.L.L.L.L.M.7.j.F.r.| @.N S G G V d.R.L.L.L.L.L.L.L.L.L.L.L.L.L.L.L.L.L.L.L.L.L.L.L.L.L.",
"L.L.L.T.N.T.N.T.L.L.L.L.T.T.N.T.L.L.L.L.L.L.N.M.G.#.b V N S G G G -.L.L.L.L.L.Y.L.L.L.L.L.L.L.L.L.L.Y.L.L.L.L.L.L.L.Y.L.",
"L.L.L.N.N.N.N.T.T.N.L.L.N.K.T.N.L.L.L.L.L.K.K.N.i._ C G C V G G G ) m.L.L.L.L.L.L.L.L.L.L.L.L.L.L.L.L.L.Y.L.L.L.L.L.L.L.",
"L.L.L.T.T.N.T.T.N.T.L.L.~.N.T.T.L.L.Y.L.L.K.J.T.A.` A G G n S G G A k.R.L.L.L.L.L.L.Y.L.L.L.L.L.L.L.L.L.L.L.L.L.L.L.L.L.",
"L.L.L.L.L.L.L.L.T.N.T.T.N.~.N.T.L.L.L.L.K.K.N.N.x.I S D G Z Z G G F ;.K.L.L.L.L.L.L.T.T.N.T.K.K.L.L.T.T.K.T.T.T.L.L.L.L.",
"N.~.L.L.L.L.L.L.N.T.N.T.T.N.T.N.L.L.L.K.N.N.N.N.v.I S G G S B G G F -.K.L.L.L.L.L.T.N.N.T.N.T.N.K.K.K.K.K.T.K.K.L.L.L.L.",
"K.N.T.T.L.L.L.L.T.N.N.T.T.N.T.~.L.L.L.L.K.K.K.K.v.m S D G G n S G G ( v.L.K.K.K.L.L.N.T.N.N.N.T.T.N.N.K.T.K.T.K.L.L.L.L.",
"T.T.T.N.N.L.L.N.N.T.T.K.N.T.T.N.L.L.K.K.L.K.K.x.7.n D D G G m Z G G A f.R.K.Y.Y.K.L.T.N.T.T.N.T.N.N.T.N.N.T.L.L.L.Y.L.L.",
"N.~.L.K.L.L.K.L.T.N.T.N.K.K.K.L.K.L.L.L.L.L.K.C.5.c D G G G C Z G G F f.L.L.L.L.L.L.L.L.L.L.L.K.K.K.K.K.K.K.T.L.L.L.L.L.",
"N.K.K.K.L.L.L.L.T.N.N.~.K.K.I.K.L.L.L.L.L.L.L. X(.c D G F G Z Z G G F k.~.L.K.L.L.L.L.L.L.L.L.T.R.L.T.L.T.K.L.L.L.L.L.L.",
"N.T.L.K.L.L.L.L.T.T.~.N.~.N.L.L.K.L.L.K.L.L.L.A.(.v A A F G Z A G G ) v.N.T.L.L.L.L.L.L.L.L.K.Y.K.Y.L.L.L.L.L.L.L.L.L.L.",
"T.K.L.L.L.L.L.L.N.T.N.T.T.N.L.L.K.K.K.K.L.L.L.0.>.; k k O k c ( ) F ) M.N.T.L.L.L.L.L.Y.Y.L.L.K.R.K.L.L.L.L.L.L.L.L.L.L.",
"K.L.L.L.L.L.L.L.L.L.~.N.N.T.T.N.N.N.N.N.K.T.L.n.>.- X X + + P T T T O.N.L.L.L.L.Y.L.L.Y.L.L.L.L.L.L.L.L.L.L.L.L.Y.L.L.L.",
"T.K.L.L.L.L.L.L.L.L.L.L.N.N.N.N.N.N.T.~.T.N.L.L.2.~ o o O O K M M x E N.L.L.L.L.L.L.L.L.L.L.L.L.L.L.L.L.L.Y.L.L.L.L.L.L.",
"L.L.L.L.L.L.L.L.L.K.K.K.N.M.N.N.N.L.L.L.T.T.L.L.l.n b j C A b x x x -.L.L.L.L.L.L.L.L.L.Y.K.L.L.L.L.L.L.L.L.L.L.L.L.L.K.",
"L.L.L.L.L.L.L.L.L.N.M.M.N.N.K.K.T.L.L.L.T.N.L.T.l.N n j N D X.r.@.| v.L.L.L.L.L.L.L.L.L.L.L.L.L.L.L.Y.L.L.L.L.L.L.L.K.L.",
"L.L.L.L.L.L.N.N.N.M.M.M.N.N.N.K.L.L.L.L.~.N.N.T.l.B V j b *.|.@XXXp.J.K.L.L.L.L.L.L.L.L.L.L.L.Y.L.L.L.L.L.L.L.L.L.L.T.K.",
"L.L.L.K.K.K.N.M.M.N.N.N.K.~.T.T.L.L.L.L.N.T.T.T.k.n Z l c B.#X-X-XOXK.L.L.L.L.L.L.Y.L.T.L.L.L.K.L.L.L.L.L.L.L.L.L.L.K.K.",
"L.L.K.K.N.N.N.N.N.L.L.L.L.L.K.T.L.L.T.N.T.N.N.T.d.M G n ` [.=.#X-XV.v.L.K.K.K.L.K.L.L.L.L.Y.L.L.L.L.L.L.L.L.K.L.K.K.K.K.",
"L.L.N.N.N.N.N.N.L.L.L.L.L.L.N.T.L.L.L.T.N.T.N.~.c.' V S A &.O.#XoX' k.K.K.K.K.L.L.N.K.L.L.L.K.R.L.L.L.L.K.L.K.K.K.T.T.K.",
"N.N.N.M.N.M.L.L.L.L.L.L.~.T.T.T.L.K.K.K.K.K.K.K.Y.l.0 : e r )./.$.l.K.N.N.N.T.N.N.N.N.T.N.T.T.N.K.K.T.K.K.K.L.L.L.L.L.L.",
"N.N.N.N.L.L.L.L.L.L.L.L.N.N.K.N.K.N.K.Y.Y.K.L.L.L.C.2 5 6 6 6 5 h R.L.K.K.N.N.T.N.T.N.T.N.T.T.T.T.T.K.K.K.K.L.L.L.L.Y.L.",
"N.L.L.L.L.L.L.L.L.L.L.L.L.K.K.K.L.L.L.L.L.L.L.L.L.Z.3 5 6 6 6 6 g N.K.Y.T.T.T.N.T.T.N.N.N.N.N.T.T.T.T.T.T.K.K.L.L.R.Y.T.",
"L.L.L.L.L.L.L.L.L.L.L.L.K.L.K.T.Y.L.L.L.L.L.L.L.L.u.3 5 6 6 6 6 d K.T.L.T.N.N.T.N.N.N.T.T.T.N.N.N.N.N.N.N.N.K.K.L.L.T.Y.",
"L.L.L.L.L.L.L.T.L.L.K.T.L.L.L.L.L.L.L.L.L.L.L.L.L.u.3 < 6 6 6 6 a F.L.L.T.T.T.N.T.N.N.N.T.T.N.N.N.N.T.N.K.T.L.L.L.L.Y.L.",
"L.L.L.L.L.L.L.L.L.L.L.T.L.L.L.L.L.L.L.L.L.Y.L.L.L.t.1 < 6 6 6 6 7 h.T.L.N.T.N.T.T.T.T.T.N.T.T.N.N.N.N.N.K.L.L.L.L.L.L.L.",
"T.T.L.~.L.L.L.L.L.L.N.T.L.L.L.L.L.Y.L.L.L.L.L.L.N. .1 < 5 5 6 5 3 u.T.L.N.T.T.N.T.N.~.N.T.K.N.N.N.N.N.K.K.T.L.L.L.Y.L.L.",
"N.T.K.N.L.L.L.L.L.L.T.N.~.L.L.L.L.L.L.L.L.L.L.L.L.,.> : @ , , , 8 7.L.L.~.N.N.T.T.N.N.N.N.K.N.T.K.K.K.K.T.K.L.L.L.L.L.L.",
"T.K.L.L.L.L.L.L.L.L.L.L.L.L.L.L.L.L.T.T.K.K.T.N.T.3.9 * Y P K K P +.L.L.L.K.K.K.K.K.K.K.K.K.L.L.L.K.L.L.L.L.L.L.L.L.L.L.",
"L.L.L.L.L.L.~.L.L.L.L.L.~.L.L.N.L.L.K.N.T.T.L.L.L.j.; $ Y Y Y W Y / J.L.L.L.K.L.K.L.T.K.K.K.L.L.L.L.L.L.L.L.L.L.L.L.L.L.",
"L.L.L.L.N.T.N.K.N.L.K.T.N.T.T.T.L.L.L.~.L.L.L.L.L.T.7.Q / W W ! ~ :.K.L.L.K.L.K.K.K.L.K.L.L.L.L.L.L.L.L.L.L.L.L.L.L.K.T.",
"L.L.L.L.T.T.T.T.T.K.T.T.K.T.N.T.L.L.L.L.L.L.L.L.L.L.J.5.Q Q Q J = v.K.K.K.K.L.L.L.L.L.L.L.L.L.L.L.L.L.L.L.L.L.L.L.L.L.L.",
"K.N.L.L.K.L.L.L.L.L.~.T.T.T.N.~.L.T.T.T.L.N.K.T.T.K.K.t.e % % H U n.Y.L.L.L.L.L.L.L.L.L.L.L.L.L.L.L.L.L.L.L.L.L.L.Y.Y.L.",
"T.~.L.L.L.L.L.L.L.L.N.K.K.T.K.L.L.K.K.N.L.~.K.T.T.T.K.6.y H H H J n.Y.L.L.L.L.L.L.L.Y.L.L.Y.L.L.L.L.L.L.L.Y.L.L.Y.R.W.U.",
"T.T.L.L.L.L.L.L.L.L.L.L.T.K.L.L.L.L.~.N.L.L.T.T.R. Xn.; X $ H & % g.Y.K.L.L.L.L.L.L.L.L.L.L.L.L.L.L.L.L.L.L.L.Y.W.W.!.E.",
"T.K.L.L.L.L.L.L.L.L.L.L.N.T.L.L.L.L.L.L.L.N.L.n.1.1.^ # = = % & % [ I.L.L.L.L.L.T.L.L.L.L.L.L.L.L.L.L.L.L.Y.R.W.E.E.E.P.",
"N.L.L.L.T.T.K.T.N.L.L.L.L.L.L.L.L.L.L.L.L.L.x.L & % % % & & % o X [ L.I.L.L.Y.L.L.L.L.L.L.L.L.L.L.L.L.Y.I.I.Y.Y.P.P.P.J.",
"L.L.L.L.T.K.T.K.L.L.L.L.L.L.L.L.L.L.L.L.L.M.; . $ & H H $ X # y <.J.L.L.L.L.L.L.L.L.L.L.Y.L.L.L.L.L.L.L.Y.K.K.I.L.K.K.K.",
"L.L.L.L.~.N.L.L.N.~.L.L.T.N.T.T.N.~.L.L.T.T.n.^ @     . @ ] x.L.R.L.L.L.L.L.L.L.L.L.L.L.L.L.L.L.L.L.L.L.L.L.L.L.L.L.L.L.",
"L.L.L.L.L.L.L.L.K.L.L.L.K.T.K.T.N.L.L.L.N.N.~.T.x.+.{ <.n.L.R.K.L.L.L.L.L.L.L.L.L.L.Y.L.L.L.L.L.L.L.L.L.L.L.L.L.L.Y.L.L."
};
