/* XPM */
static char *e15669c1612d4695f33689a86b8ac182O0lDJspiGCg8AWRo[] = {
/* columns rows colors chars-per-pixel */
"60 60 201 2 ",
"   c #5D3927",
".  c #573A2A",
"X  c #5D3B29",
"o  c #68382B",
"O  c #78362C",
"+  c #713D36",
"@  c #5A4834",
"#  c #6A4828",
"$  c #774127",
"%  c #7D4427",
"&  c #7C4828",
"*  c #7E4B29",
"=  c #795B29",
"-  c #694433",
";  c #645A31",
":  c #7B613F",
">  c #5C3E55",
",  c #2E405C",
"<  c #3B445C",
"1  c #2B4569",
"2  c #2A456C",
"3  c #3A4E67",
"4  c #344C6D",
"5  c #3C5369",
"6  c #294771",
"7  c #2B4975",
"8  c #334D72",
"9  c #494348",
"0  c #5A4842",
"q  c #4E4A58",
"w  c #4B5A5E",
"e  c #6E5B43",
"r  c #795745",
"t  c #7E585D",
"y  c #5A6358",
"u  c #776646",
"i  c #7B794C",
"p  c #646759",
"a  c #7E7A54",
"s  c #495969",
"d  c #4D5D75",
"f  c #596468",
"g  c #596678",
"h  c #6A6B6B",
"j  c #726E62",
"k  c #7B7871",
"l  c #8C2E2A",
"z  c #8F352F",
"x  c #82382F",
"c  c #9E332F",
"v  c #AB2F2C",
"b  c #BC2B26",
"n  c #A5342E",
"m  c #AB3631",
"M  c #A63E31",
"N  c #B33431",
"B  c #BC3532",
"V  c #B63B32",
"C  c #C42B26",
"Z  c #C33734",
"A  c #C33B34",
"S  c #CB3A36",
"D  c #CC3835",
"F  c #D23936",
"G  c #D83935",
"H  c #DA3A36",
"J  c #E33A37",
"K  c #E93A37",
"L  c #E43C38",
"P  c #EA3C38",
"I  c #804527",
"U  c #824D2D",
"Y  c #964B27",
"T  c #81552F",
"R  c #9B5525",
"E  c #9E473A",
"W  c #865533",
"Q  c #A25323",
"!  c #B8512C",
"~  c #B44A3A",
"^  c #B7573C",
"/  c #9A6728",
"(  c #9A742C",
")  c #816630",
"_  c #946530",
"`  c #936F32",
"'  c #AC6B30",
"]  c #CE4435",
"[  c #D8443A",
"{  c #80594C",
"}  c #9A5548",
"|  c #AF5C4D",
" . c #886D45",
".. c #956F42",
"X. c #897449",
"o. c #9A794B",
"O. c #976852",
"+. c #8F7A5D",
"@. c #967F52",
"#. c #A6614E",
"$. c #A16150",
"%. c #AE6C51",
"&. c #A47D51",
"*. c #AB7859",
"=. c #8A7A68",
"-. c #957E66",
";. c #817D74",
":. c #C24E46",
">. c #D25345",
",. c #C05D53",
"<. c #C96946",
"1. c #D17C4F",
"2. c #978549",
"3. c #998559",
"4. c #A4894A",
"5. c #B6834A",
"6. c #B9964D",
"7. c #A58254",
"8. c #AB8354",
"9. c #AA845B",
"0. c #A88858",
"q. c #B58C54",
"w. c #B78D58",
"e. c #AC9654",
"r. c #BB9858",
"t. c #838B6D",
"y. c #978362",
"u. c #9F8A62",
"i. c #9C8E73",
"p. c #A58867",
"a. c #B28D66",
"s. c #AE9164",
"d. c #B89A68",
"f. c #AC9979",
"g. c #B49576",
"h. c #9FA07F",
"j. c #C98A52",
"k. c #D28C54",
"l. c #C79556",
"z. c #C29A5B",
"x. c #CB9E5A",
"c. c #D69457",
"v. c #D59C5A",
"b. c #C3A34A",
"n. c #CCA25C",
"m. c #D4A55C",
"M. c #DAA25B",
"N. c #D7A85E",
"B. c #D8AC5A",
"V. c #DFB05E",
"C. c #E5B35E",
"Z. c #EAB55F",
"A. c #D18E7B",
"S. c #C5987D",
"D. c #CEA562",
"F. c #CAA568",
"G. c #D4AA63",
"H. c #DBAC63",
"J. c #DEB16B",
"K. c #C2A476",
"L. c #DBB175",
"P. c #E4B364",
"I. c #ECB762",
"U. c #EDB965",
"Y. c #E5B66A",
"T. c #E8B769",
"R. c #E7B96C",
"E. c #EDBA69",
"W. c #F0BB66",
"Q. c #F1BC68",
"!. c #E6BC75",
"~. c #E9BC73",
"^. c #E7BE79",
"/. c #E9BE7A",
"(. c #E8C07C",
"). c #657182",
"_. c #8F8682",
"`. c #999089",
"'. c #AC9985",
"]. c #B4B68C",
"[. c #AFA39B",
"{. c #B8B890",
"}. c #B7B3AF",
"|. c #D19D88",
" X c #C2A78A",
".X c #C4A68B",
"XX c #CFAA8E",
"oX c #D9B787",
"OX c #CCAF94",
"+X c #CAB497",
"@X c #D4B398",
"#X c #D8BB9A",
"$X c #E1BD9A",
"%X c #DEBEA2",
"&X c #D7C5B7",
"*X c #E7C3A4",
"=X c #EAC3A4",
"-X c #EAC6A9",
";X c #F2CCAD",
":X c #FAD3B3",
">X c #FFD8B8",
/* pixels */
"I.U.U.U.U.U.U.U.I.W.U.U.U.E.U.U.U.U.U.E.U.U.U.U.U.U.U.U.U.I.Q.Q.E.Q.U.Q.P.6.4.n.U.Z.I.I.U.W.I.I.U.U.I.I.I.I.I.I.U.U.Z.U.",
"U.U.U.U.U.U.U.U.E.U.U.U.U.I.U.U.U.U.U.U.U.U.U.U.U.U.U.U.U.Q.Q.E.Q.E.Q.V.2.w 4 j P.(.W.W.U.I.U.U.U.U.I.I.Z.I.I.U.U.Z.I.U.",
"U.U.U.U.U.E.U.U.U.U.U.U.U.U.U.U.U.U.U.U.U.U.U.I.E.U.U.U.I.Q.E.Q.Q.Q.U.2.3 7 7 h Z.W.W.Z.W.W.W.I.U.U.U.I.I.I.U.I.I.I.I.U.",
"U.U.U.U.U.U.U.U.U.U.U.U.U.E.U.U.U.U.U.U.E.U.U.E.U.U.U.U.E.Q.W.Q.Q.Y.b.y 6 6 d ;.Z.(.Z.W.U.I.U.Z.U.I.I.I.C.I.I.I.Z.W.Z.Z.",
"E.U.U.U.U.U.U.U.U.U.U.E.U.U.E.U.U.W.U.W.I.E.U.U.U.U.U.U.U.U.N.a.=.4.i 7 7 8 d f.U.Z.U.Z.U.Z.Z.W.U.C.I.I.I.I.I.C.U.U.C.U.",
"U.U.U.U.U.U.U.U.U.U.W.I.U.U.U.U.E.I.U.I.U.U.U.W.U.U.U.U.Q.A.s 5 i i 4 7 8 ).g s.(.U.U.Z.Z.(.W.Z.U.I.U.C.I.U.U.U.U.U.U.U.",
"U.U.U.U.U.U.U.U.U.U.I.E.U.U.U.U.U.U.U.E.U.U.E.U.U.U.U.I.P.2.p i y 7 7 7 7 g ;.H.Z.I.W.U.W.Z.Z.W.U.U.U.U.U.U.U.U.U.U.U.U.",
"U.U.U.U.U.E.U.U.U.U.E.I.W.U.U.U.U.U.U.U.U.U.I.U.U.V.r.3.a p s 4 7 7 7 7 7 g u.U.W.I.Z.U.U.(.W.Z.I.U.U.I.U.U.I.I.U.I.U.I.",
"U.U.U.U.W.I.W.W.I.I.W.T.U.U.U.U.U.U.U.E.U.U.U.U.U.b.w 8 7 7 7 7 3 s f p y p H.W.U.T.Y.Y.!.(.R.I.Z.I.I.I.U.U.U.U.U.U.U.C.",
"U.U.U.U.W.I.I.T.W.T.I.I.U.U.U.U.U.U.U.U.U.U.U.U.I.B.i 3 6 5 y u p.p.3.oXK.r.Q.U.E.Y.H.Y.!.(.(.R.U.I.U.I.I.I.Z.U.Z.U.U.U.",
"U.U.U.E.W.T.E.I.I.I.W.W.U.E.U.U.U.U.U.E.U.U.U.U.U.U.C.e.;.3.4.0.@X[.k 9 =.J.U.T.P.J.H.Y.R.!.!./.~.U.I.I.I.I.I.I.U.U.U.U.",
"U.U.U.U.I.W.E.I.W.W.W.I.U.U.U.U.U.U.U.E.U.U.U.U.U.U.(.J.*X X9.a.;X&X}.p +X#XoXL.J.P.C.P.Y.R.R.!.~.R.U.I.I.I.I.I.Z.C.U.U.",
"U.U.U.U.I.I.Z.I.I.I.I.U.U.U.U.U.U.E.U.U.U.U.U.U.U.U.Q.L.#XOX9.a.;X=X-X-X*X%X%X:X$XY.Z.P.I.U.U.U.R.R.R.C.U.C.I.I.U.Z.I.U.",
"U.U.I.I.Z.Z.Z.Z.Z.Z.Z.I.I.U.U.U.U.U.U.U.U.U.U.E.Q.Q.Q.Q.s.y.p..X:X:X-X Xp.XX*X=XoXP.U.I.U.U.U.P.U.C.U.U.U.U.U.U.U.U.I.I.",
"U.E.U.I.I.I.W.I.I.I.I.U.E.U.W.U.U.U.U.U.U.U.U.E.U.Q.Q.Q.H.X.'.-X:X X-.&.7.7.q.J.I.U.Z.U.I.I.I.U.U.U.U.U.U.U.U.C.I.I.I.I.",
"U.U.U.I.I.I.W.W.E.I.E.U.U.U.I.E.U.U.U.U.U.E.Q.Q.U.Q.Q.Q.z.e .X#Xg.9.8.8.8.o.n.U.U.U.Z.U.U.I.U.U.U.U.U.U.U.U.U.U.I.I.I.U.",
"U.U.U.U.U.U.U.U.U.U.U.U.U.U.U.U.U.U.U.U.U.E.W.E.W.W.E.Q.x.+.{.#X#Xa.o.&.&.&.x.U.U.U.U.U.U.U.U.U.U.U.U.U.U.U.U.U.U.U.U.U.",
"U.U.U.E.U.U.U.U.U.U.U.U.I.U.U.U.U.E.U.U.U.U.W.E.U.E.W.Q.%.c *.].XX].*.8.8.8.q.P.U.U.U.U.W.U.U.U.U.U.U.I.U.U.U.U.U.U.U.U.",
"U.U.U.U.U.U.E.U.U.U.U.U.W.U.W.U.U.U.U.U.I.E.U.U.U.U.E.j.] D v #.].h.9.q.8.8.q.I.U.U.U.U.U.U.U.U.U.U.U.U.U.I.Z.W.U.U.U.U.",
"U.U.U.U.U.U.U.U.U.U.U.U.U.U.I.W.U.U.U.U.U.U.U.U.U.U.M.~ H P F N f.t.3.P.x.8.l.I.U.U.U.U.E.U.U.U.U.U.U.U.U.U.Z.W.I.U.U.U.",
"U.U.U.U.U.U.U.U.U.U.U.U.I.W.W.I.E.U.U.E.U.U.U.U.U.E.j.D K P J Z *.O.i.P.x.q.V.U.U.E.U.U.E.U.U.U.U.U.U.U.U.U.Z.W.U.Q.I.U.",
"U.U.U.U.U.U.U.U.U.E.U.U.W.I.I.W.U.U.U.U.U.U.E.U.U.I.<.K K P J Z ] V =.g.C.I.U.U.U.U.U.U.U.U.U.U.U.U.U.U.W.Z.W.Z.I.U.U.U.",
"E.U.U.U.U.U.U.U.U.U.U.U.I.W.W.Z.U.U.U.U.U.U.U.U.U.H.>.K P P S S P S { d.Z.Z.U.U.U.U.U.U.U.U.U.U.I.W.W.Z.W.Z.W.I.U.U.U.U.",
"U.U.U.U.U.E.U.U.W.U.U.U.W.I.W.W.U.U.U.U.U.U.U.U.W.c.[ P P J B K P H } G.Z.I.I.I.U.U.U.U.U.U.U.U.U.Z.W.W.U.U.I.I.U.U.U.U.",
"U.U.U.U.U.E.U.U.W.W.I.W.I.Z.W.W.U.U.U.U.U.U.U.U.U.1.L P P F F P P H E m.Z.Z.I.I.U.U.U.U.U.U.U.U.W.Z.W.W.I.I.U.U.U.U.U.U.",
"U.U.U.U.U.U.U.I.Z.W.I.Z.Z.W.Z.Z.I.U.U.U.U.U.U.U.I.<.K K K Z L P L J M M.U.Z.Z.I.U.U.U.U.U.U.U.U.Z.W.I.U.I.W.U.U.U.U.U.U.",
"E.U.U.U.I.W.U.I.I.Z.I.I.Z.Z.Z.Z.I.U.U.U.U.I.U.U.v.[ K P L B K P P K V M.Z.I.I.I.U.U.U.U.U.U.U.U.U.I.I.U.U.U.U.U.U.U.U.U.",
"U.U.U.U.W.W.I.I.I.I.I.I.W.W.W.W.U.U.U.U.U.U.U.U.k.J P P D V P P K K V w.m.I.I.I.U.P.U.U.U.U.U.U.W.U.U.U.U.U.I.I.U.U.U.U.",
"U.U.U.U.U.U.U.I.I.I.I.I.U.U.U.U.U.U.U.U.W.T.I.W.k.H P P F D P P P K m 7.D.U.U.U.U.U.I.U.I.I.U.U.U.U.U.U.U.I.U.I.U.I.U.U.",
"U.U.W.U.U.U.U.W.U.U.W.W.U.U.U.U.U.U.U.U.I.Y.I.E.k.J P P F F P P K K n `.L.U.U.U.U.U.U.U.I.U.I.I.U.U.U.U.U.U.U.U.I.I.U.U.",
"U.U.U.U.U.U.U.U.U.U.U.U.U.U.U.U.U.U.U.U.W.I.I.W.M.>.P P H D P K H H E `.F.(.U.U.U.U.U.U.U.U.U.U.U.U.U.U.U.U.U.I.I.U.I.U.",
"U.U.U.U.U.U.U.U.U.U.U.U.U.U.U.U.E.U.U.U.I.W.W.I.C.>.P H ] M z + O x ) 2.z.Z.U.Z.U.Z.U.Z.U.U.U.U.U.U.U.U.U.U.U.U.U.U.U.I.",
"U.U.U.U.U.U.U.U.U.U.U.U.U.U.U.U.U.U.U.U.U.U.U.U.I.^ ] ! ! R @ 9 o + ; X.V.U.U.U.U.Z.Z.Z.Z.W.U.U.U.U.U.U.U.U.U.U.U.U.U.E.",
"U.U.U.U.U.U.U.U.U.U.U.U.U.U.U.U.U.U.U.U.U.U.U.U.P.^ C C C c - - O O _ q.W.W.U.U.U.U.Z.Z.Z.Z.Z.I.I.I.U.U.U.U.U.U.U.U.U.U.",
"U.U.U.U.U.U.U.U.U.U.U.U.U.U.U.U.U.U.U.U.U.U.U.U.U.<.b b b v H D l N B v.I.Z.U.U.U.U.U.Z.Z.Z.Z.Z.I.P.I.U.U.U.U.U.U.U.U.U.",
"U.U.U.U.U.U.U.U.U.U.U.U.U.U.U.U.U.U.W.U.U.U.U.E.U.v.o.3.i.#.K Z l A A v.^.U.U.U.U.U.U.U.I.I.Z.P.Z.Z.P.I.U.U.U.U.U.U.U.U.",
"U.U.W.W.U.U.U.U.U.U.U.U.U.E.U.U.W.U.U.U.I.W.W.W.U.J.f.+X*XXX>.b l S A v.U.U.U.U.U.U.U.U.U.U.I.I.C.C.Z.Z.I.I.I.I.U.U.U.U.",
"I.U.I.I.U.U.U.U.U.U.U.U.U.U.U.U.I.W.U.U.I.I.I.W.U.P.oX>X:X%X|.m l F B k.U.U.U.U.U.U.U.U.U.U.U.I.I.Z.Z.C.Z.Z.I.Z.U.U.U.U.",
"I.U.Z.I.U.U.U.U.U.U.U.E.U.U.U.U.W.I.I.I.W.W.W.Z.U.M.S.>X=X,.|.} Z K B j.U.U.U.U.U.U.U.U.U.U.U.U.U.I.I.Z.Z.Z.Z.Z.I.I.I.U.",
"U.U.I.I.U.I.I.U.U.U.U.U.U.U.U.U.W.I.I.I.I.I.Z.Z.Z.v.| @X*X%.:.[ K D ^ M.U.U.I.U.U.U.U.U.U.U.U.U.U.U.U.I.P.Z.Z.Z.Z.U.I.U.",
"U.U.U.U.I.Z.W.I.U.U.U.U.U.U.U.I.W.Z.Z.W.Z.Z.Z.Z.I.I.c.=._.`.t { q q B.I.Z.W.Z.Z.I.U.U.U.U.U.U.U.U.U.U.U.U.I.I.Z.Z.Z.Z.Z.",
"U.U.Q.U.W.W.Z.Z.I.U.U.U.U.U.I.I.Z.Z.W.Z.Z.W.W.Z.U.U.W.=.6 8 6 7 2 5 n.Z.W.Z.(.Z.U.I.P.U.U.Z.U.U.E.U.U.U.U.U.U.I.Z.Z.Z.Z.",
"Q.E.U.U.I.I.I.W.U.U.U.I.I.W.I.I.Z.I.I.I.Z.Z.W.W.U.U.I.h 7 7 7 7 2 3 n.(.W.I.W.W.U.U.U.U.U.Z.U.U.U.U.U.E.U.U.E.U.U.I.U.I.",
"E.Q.U.U.U.I.I.I.I.I.I.Z.I.I.I.W.W.I.I.I.W.W.W.Z.U.U.P.g 7 7 7 7 6 4 r.W.W.W.I.W.U.U.U.U.U.U.U.U.U.E.U.U.U.U.U.U.U.U.U.U.",
"U.Q.U.U.W.I.I.I.Z.I.Z.Z.Z.I.I.Z.I.I.I.I.U.U.U.U.U.U.H.d 7 7 7 7 2 4 z.U.W.Z.(.I.U.U.U.U.U.U.U.U.U.U.U.U.U.U.U.U.U.U.U.U.",
"U.U.U.U.I.W.W.Z.Z.Z.Z.I.I.W.W.W.U.U.I.W.U.U.U.U.U.U.z.3 7 7 7 7 2 2 p.E.Z.W.Z.W.U.U.U.U.U.U.U.U.U.U.U.U.U.U.U.U.U.U.U.U.",
"U.U.U.U.W.I.W.Z.Z.Z.I.Z.W.I.I.I.U.U.U.I.U.U.U.U.U.W.d.8 7 7 7 6 2 2 -.I.I.W.I.W.(.Z.U.U.U.U.U.U.E.U.U.U.U.U.U.U.U.U.U.U.",
"U.U.U.U.I.W.W.W.Z.W.I.I.I.I.I.I.U.I.I.I.U.U.U.U.U.U.w.9 < < 9 0 > , 3.W.W.W.I.Z.(.Z.U.U.U.U.U.U.U.U.U.U.U.U.U.U.U.U.U.U.",
"U.U.U.U.U.U.U.U.U.U.U.U.U.U.I.I.I.I.I.I.I.I.U.U.U.U.5.R Y Y R Q & @ 7.U.I.U.U.U.U.U.U.U.U.U.U.U.U.U.U.U.U.U.U.E.U.U.E.U.",
"U.U.U.U.U.U.I.U.U.U.U.U.U.U.U.U.I.I.I.I.I.I.U.U.U.I.' R / R Q Q * ; n.W.U.U.U.U.U.U.W.U.U.U.U.U.U.U.U.U.U.U.U.U.U.U.U.U.",
"U.U.U.U.U.U.Q.U.U.U.U.U.U.U.U.U.I.U.I.I.I.I.I.I.U.P.( _ = / / ' ` q.E.U.U.U.U.U.U.E.U.U.U.U.E.U.U.E.U.U.U.U.U.U.U.U.U.U.",
"I.W.U.U.U.U.U.U.W.U.U.U.U.U.U.U.U.U.U.U.U.U.I.U.U.U.H.T * ( ( ( 9.P.U.U.U.U.U.U.U.U.U.U.U.U.U.U.U.U.U.U.U.U.U.U.U.U.U.U.",
"U.Q.U.U.U.U.U.U.U.U.U.U.U.U.U.U.U.U.U.U.U.U.U.U.U.U.V.T I % O r p.I.U.U.E.U.U.U.U.U.U.U.E.U.U.U.U.U.E.U.U.U.E.U.U.U.U.U.",
"~.~.E.U.W.U.U.U.U.U.U.U.E.U.U.U.U.U.U.U.U.U.U.U.I.W.N.U I % % : p.P.U.U.U.U.U.U.U.E.U.U.U.U.U.U.U.U.U.U.U.U.U.U.U.U.U.E.",
"!./.(.R.E.U.U.U.U.U.U.U.U.U.U.U.U.U.U.U.U.U.U.U.U.Q.l.% % I $ # r H.U.U.U.U.U.U.U.U.U.U.U.U.U.U.U.U.U.U.U.U.U.U.U.U.U.E.",
"Y.!.^.~.~.E.E.U.U.U.U.U.U.U.U.U.U.U.U.U.U.U.U.U.U.U...% I % = = # ` 5.q.N.Q.U.U.U.U.U.U.U.U.U.U.U.U.U.U.W.U.U.U.U.U.U.U.",
"P.Y.Y.T.R.R.T.T.U.U.U.U.E.U.U.U.U.U.U.U.U.U.U.E.U.U...X $ & & * * I % % W n.U.U.U.U.U.U.U.E.U.U.U.U.U.U.U.U.U.U.U.U.U.U.",
"I.I.I.U.I.U.U.U.U.U.U.U.U.U.U.U.U.E.U.U.U.U.U.U.U.U.P.8.: -   $ I I I $   : P.U.U.U.U.U.U.U.U.U.U.U.U.E.U.U.U.U.U.U.U.U.",
"U.U.U.U.U.U.U.U.U.U.U.U.U.U.U.U.U.U.U.U.U.U.U.E.U.U.E.U.U.n. .- . X . @ X.m.U.U.U.E.U.U.U.U.U.U.U.U.U.U.U.E.U.U.U.U.E.U.",
"U.U.U.U.E.U.U.U.U.U.E.U.U.U.U.U.U.U.U.U.U.U.U.U.U.E.U.U.U.U.U.G.0.X.o.m.U.I.I.W.U.U.U.U.U.U.U.U.U.U.U.U.U.U.U.U.U.U.U.U."
};
