/* XPM */
static char *_2a135c5e72e438bf7a79e2b935320d6klH86ASKncAiv0h0[] = {
/* columns rows colors chars-per-pixel */
"60 60 203 2 ",
"   c #553D2D",
".  c #593A29",
"X  c #5A3F36",
"o  c #673A29",
"O  c #693B34",
"+  c #763C35",
"@  c #4C4438",
"#  c #544137",
"$  c #584134",
"%  c #5B443E",
"&  c #5F503C",
"*  c #6C4F2A",
"=  c #7D4326",
"-  c #7A4829",
";  c #7D5729",
":  c #6A4939",
">  c #68513C",
",  c #77583C",
"<  c #7C6A3F",
"1  c #6C3E52",
"2  c #3C4958",
"3  c #2D4465",
"4  c #26426A",
"5  c #2B466B",
"6  c #2E486D",
"7  c #374B65",
"8  c #334C6E",
"9  c #3A516A",
"0  c #284774",
"q  c #2B4975",
"w  c #385071",
"e  c #5E4B43",
"r  c #4A595C",
"t  c #644F4B",
"y  c #685241",
"u  c #725B44",
"i  c #5C614D",
"p  c #54615F",
"a  c #6B6C49",
"s  c #726D44",
"d  c #78654B",
"f  c #747349",
"g  c #636C59",
"h  c #424D61",
"j  c #445462",
"k  c #42546C",
"l  c #495668",
"z  c #555C63",
"x  c #515C6B",
"c  c #5C626B",
"v  c #6C6A66",
"b  c #716F69",
"n  c #7F7769",
"m  c #873B33",
"M  c #8B3B35",
"N  c #A82E2C",
"B  c #BC3226",
"V  c #BA322C",
"C  c #AA3833",
"Z  c #B83733",
"A  c #B33B34",
"S  c #C62825",
"D  c #C2312F",
"F  c #C23633",
"G  c #CC3634",
"H  c #C53B36",
"J  c #CC3936",
"K  c #D33A36",
"L  c #DB3A36",
"P  c #DD3F38",
"I  c #E43A37",
"U  c #EA3B37",
"Y  c #E53C38",
"T  c #E93C38",
"R  c #804527",
"E  c #824D2B",
"W  c #895C29",
"Q  c #9B5725",
"!  c #864635",
"~  c #9D4436",
"^  c #8C5B36",
"/  c #98563A",
"(  c #BB432A",
")  c #B34F29",
"_  c #A15423",
"`  c #AB4737",
"'  c #B64538",
"]  c #AB593E",
"[  c #8B6429",
"{  c #96673B",
"}  c #A9792A",
"|  c #A66436",
" . c #A56E37",
".. c #CE4C34",
"X. c #C84638",
"o. c #D94239",
"O. c #D5483C",
"+. c #D1523F",
"@. c #883D49",
"#. c #9A3C44",
"$. c #A43C44",
"%. c #9F5840",
"&. c #B35241",
"*. c #856A49",
"=. c #837A44",
"-. c #8C714B",
";. c #9F7447",
":. c #94744C",
">. c #876C56",
",. c #8B7254",
"<. c #8D785F",
"1. c #937B58",
"2. c #B8784A",
"3. c #A47D51",
"4. c #867A64",
"5. c #937E6A",
"6. c #C85942",
"7. c #D15641",
"8. c #D35C44",
"9. c #C76546",
"0. c #CB6B48",
"q. c #D26146",
"w. c #C7794D",
"e. c #D37F50",
"r. c #B28A2F",
"t. c #9B814E",
"y. c #A58848",
"u. c #B9874B",
"i. c #AC914D",
"p. c #B7964C",
"a. c #A88757",
"s. c #AE8454",
"d. c #B88D53",
"f. c #BD9754",
"g. c #BC955A",
"h. c #998568",
"j. c #A58965",
"k. c #AC8B66",
"l. c #A59366",
"z. c #AA9364",
"x. c #B49463",
"c. c #BC9A61",
"v. c #AE9576",
"b. c #A19C7C",
"n. c #BC9D74",
"m. c #C68752",
"M. c #D18452",
"N. c #D18B54",
"B. c #CC9255",
"V. c #C49C5C",
"C. c #CB9F5D",
"Z. c #D19255",
"A. c #D39858",
"S. c #D69B5A",
"D. c #C8A34F",
"F. c #CFA750",
"G. c #CCA25B",
"H. c #D3A75A",
"J. c #DAA45C",
"K. c #DCAC5E",
"L. c #E1AD5F",
"P. c #E7B35E",
"I. c #EAB45F",
"U. c #C29D63",
"Y. c #C49F68",
"T. c #C6A164",
"R. c #CAA263",
"E. c #CDA66B",
"W. c #D2A661",
"Q. c #D5A964",
"!. c #DDAD61",
"~. c #D0A769",
"^. c #D3AA6D",
"/. c #DFB065",
"(. c #CAA77B",
"). c #D4AC72",
"_. c #E1AE61",
"`. c #E4B363",
"'. c #ECB762",
"]. c #EDB965",
"[. c #EEBA66",
"{. c #EFBB67",
"}. c #E6B76A",
"|. c #E7B96A",
" X c #EBBA6A",
".X c #EDB968",
"XX c #EFBB68",
"oX c #F0BB65",
"OX c #F0BB68",
"+X c #F0BC69",
"@X c #F3BC69",
"#X c #F4BE69",
"$X c #E6BB74",
"%X c #EABD73",
"&X c #E8BE7A",
"*X c #B69B81",
"=X c #BCA184",
"-X c #C5AA8B",
";X c #CFB093",
":X c #D0B295",
">X c #D7B89E",
",X c #E2C1A4",
"<X c #E8C5A8",
/* pixels */
"'.].'.'.'.].'.'.'.'.{.'.'.'.].].].].P.K.F.`.|.+X+X+X+X{.{. X].].].].].].].].].].].XX].].].].].].].].].].].].].].'.].'.].",
"'.'.'.'.].'.'.I.'.'.].{.].].].].].`.y.=.=.=.p.+X+X{.{.{.+X{.{.].].].].].].].].].].].].].].].].].].].].].].].].].].].].].",
"'.'.'.'.].].'.'.'.{.{.I.].].].].oXp.i 4 q 8 =.F.+X+X{.{.+X{.+X].XX].].].].].].].].].].].XX].].].].].XX].].].].].].].'.OX",
"'.'.'.'.I.I.].I.I.'.].].].].].].].y.7 q q q i D.+X{.{.+X{.+X+X X].].].].].].].].].].].].].]. X].].].].].].].].]..X.X'..X",
"].].'.].'.'.'.`.I.I.I.{.].I.|. XF.< 3 3 5 5 2 t./.{.{.+X{.{.{.{.].].XX].].]. X].].].]. X].].].].].].].].].].].].].].].'.",
"].].].].'.'.'.'.].'.{.I.I.].I.g.r 6 5 5 5 6 6 6 p T.oX].{.+X{.{.XX X'.].].].].].].XX].].].].].].].].].].]. X].].].].OX'.",
"].I.].].+X].|.].{.].].oXoXoX].t.r i a a < a a f r h.].{.+X+X{.{.].].].].].].].].].].].].].].].].].].].].].].].].].].OX].",
"].].I.].I.].I.].I.].K.F.D.D.i.s r r 7 8 8 9 9 p f < i.D.F.F.|.{.].].].].].].].].].].].].].].].].].].].].].].XX].]..X'.].",
"I.].'.].].'.].'.].'.i.f p p 9 q q q q q q q q q q w 9 p g =.H.+XXX'.].].].].].].].].].].'.XX].].].].].].'..X].].].].OX'.",
"].].'.'.'.].'.'.'.'.4.0 0 0 q q q q q q q q q q q q q q q 8 c.+XXX].].].].].].].].].].]. X'.XX].].].].].OX'.].].].].].].",
"].'.].'.'.'.].P.'.].R.j 0 0 q 0 q q q q q q q q q q q q 6 v |.{.XX].].].].].].].].].].].].].XX].].].].XX'.].OXOX].].].].",
"].].'.'.I.].I.].'.|.%XE.l.h.b x l h h h h l h j j c n h.g.|.+X+XXXXXXX].].].].].'.XX].].].].].].].'.XX'.XX'.OX'.OX].].].",
"].].P.P.].].].P.|.|.|.|.].].`.,.:.3.3.3.3.3.3.3.d a.#X#X#X+X+X+XOXXXXX].].XX].].XX].].].].].].].].'.'.'.'.'.P.'.'.'.].].",
"P.].].].P.].].].'.'.].].'.|.|.i.>.s.s.s.s.s.s.3.-.G.+X+X+X+X+X+XXXXXXXXX].'.XX].].].].].].].].].'.'.'.'.'.'.'.P.'.].].].",
"].].].].].P.].].'.].].].].].].i.*.3.s.s.s.s.a.:.,.W.oXoX{.XX+X+XXXXXXXXXXXXX X'.].XX].].].].].].'.'.'.'.'. X'.'.'.'.OXOX",
"].P.].P.].].].].].].].].].].'.K.d *.2.s.s.s.3.d :.!.oX|.{.XXXXXXXXXXXXXXXXXXXX].].].].].].].].].].].].].'.'.].'.'.'..X'.",
"I.].].].].].].oX].].].].].oXXXV.,.d -.y.1.:.*.d 1.V.].].XXXX].+XXXXXXXXXXXXXXX].].].XX].].].].].].].].].].].].].].].].].",
"].].].].].].].'.].].].oX].W.m.%.~ ` ! - ! M ` ` ' / 2.S.].].].].].OXXX].XXXX].].].].].].].].].].].].].].].].].].].].].].",
"].].].].].'.'.'.'.].].`.w.' A L D Z N N N N V Z D G V ' w._.].].].].].].].].].].].].].].].].].].].].].].].].].].XX'.OX'.",
"].].].oX'.].oX'.].].XX2.J I F K T T T T I I U Y U L Z I G 2.].].].].].].].].].].].].].].].].].].]..XXX].].].XX].].].].].",
"].].].oXoX'.oXoX].].S.X.T T L G U T T T T T T T T K K T I H A.+X].].].].].].].].].].].].].].].].].].].].].].].].].].].XX",
"].].'.'.'.'.'.'.].'.0.Y T U L J T T T T T T T T T G L T T T q.`.].].].].].].].].].].].].].]. X].].].].].].].].].].].].].",
"].].].].'.'.'.].oXA.o.T U U J K T T T T T T T T T K G T T T P N.].].].].].].].].].].XX].].].].].].].].].].].].].].].].].",
"].].].oX'.].oX].I.6.I T U L C L U T T T T Y T T T I Z K T T U 6.`.].].OX].].].].].].].].].].].].].].].].].].].].].].].].",
"].].].oX].].].].S.o.T T I ' H I T T T T T T T T T U J A Y T T P N.].].].XX].].].oX].oXI.'.oXI.oX].].oXI.oX].].].].].].].",
"].].].].].].].L.6.I T T o.m.o.T T T T T T T T T T T Y 9.O.T T I 6._.XX'.].].].].].].I.oXI.I.oXI.'.'.I.oX].].].].].].].].",
"].].].].].].oXZ.L T T I 6.`.7.U T T T T T T T T T T o.S.0.I T T L m.oXoX'.].'.].].].I.'.'.'.oXI.'.'.].P.I.oX].].].].].].",
"].].].].'.].].0.I I T F d.XX0.T T T T T T T T T T T O._.V.H T T U 9.'.].].].].].].].oXoX'.oXI.oX'.'.P.oXoX].].].].].XX].",
"].].].'.'.'.`.q.U T U 7.!.'.e.I T T T T T T T T T T 8.`.`.6.I I U +.].].].].].].].].'.].].].].].P.oXoXP.I.].].].].].].].",
"'.].'.'.].].|.6.T T I 0.'.|.w.I T T T T T T T T U U 6.`.].w.I T U +.P.oX].].'.].].].].oX].].].].oX].].].].].].].].].].].",
"].'.'.].].oX'.q.T U I M.oX/.u m C A H K J H Z A C M : V.#XN.I T U +.}.].].'.].].].].].].].].].].].].].].].].].].'.].].].",
"'.].].].].oX'.| ......| K.K.& @ @ @ # % $ $ @ @ @ @ @ g._.| X...O.| K.].].].].].].OX].].].].].].].].].oX'.].].oX].].].].",
"].].].].].].J.( ( ( ) | F.I./ M + O # $ X X O O + M ~ W.!.| ) ( ( ( A.].].].].{.].].].].].{.].I.].].].].].].].].].].].].",
"].].].].].].J.V S S B 2.I.L.+.U Y L K J J J K P Y Y P S.].u.B S S B S.].].].].].].].].].].].].+X].].].].].].].].].].].].",
"].].].].].].L.] ` ' C B.'.J.O.U T T T T T T T T U U Y M.XXS.` A ` &.K.oX].].].].].].].].].].].].].].].].].].].].].].].].",
"].].].XX].].'.z.b.b.l._.I.Z.P U T T T T T T T T T Y Y 9.'.`.z.b.b.z.`.].].].].].].].oX].].].].].].].].].XX].].].].].].].",
"].].].].].'.'.^.,X=XG.I.'.e.I T T T T T T T U U T T T ' C.XXY.-X,X^.].].].].oX].].].].].].].].].].].].].].].].].].].].].",
"].].].'.'.'.I.).<X>XE.I.`.6.I T T T T T T T T U T T U H ;.'.E.>X,X).'.].].].'.oX].].].].].XX].].].].].].].].].].].'.].'.",
"].].].'.I.I.I.E.:X-X(.`.J.O.U T T T T T T T U U T T T I O :.-X(.;XE.'.].'.'.'.{.].'.].].].].].].].].].].].].].].'.'.'.].",
"].'.'.P.I.I.I.V.=XT.:X^.A.X.I U U U U U U U U U T T Y J O u v.U.*XU.oX'.'.'.'.'.'.'.].].].]. X].].].].].].'.'.I.'.].].].",
"I.I.I.P.P.'.].C.h.(.^.!.].a.h 1 @.#.$.&.8.7.$.$.$.1 t t -.R.!.(.5.S.].'.I.'.'.'.'.'.I.].I.I.oX].oX'.oX'.'.'.].].].].].].",
"I.I.I.'.'.].].!.4.n.'.oXoXh.q 6 q q q h.].x.8 q q 0 0 n oX].'.n.4._.].'.oX'.'.'.'.'.oXI.].oXI.oX'.oX].'.P.].].oXXX].].].",
"'.'.].].].]..X'.g.U.oX].XX<.q q q q q x.oXY.9 q q q 0 b '.'.].W.C.].].].'.'.'.'.'.'.'.I.I.oXoXI.oX'.oXoXoXI.].'.].XXXXXX",
"].].].].].].XX'.oXoX].].'.b q q q q w R.oXQ.k q q q 0 c '.].].].oXoX].oXoX'.].].'.'.I.].oXI.oXI.I.I.I.'.I.'.].'.].].OXoX",
"].].].].].].].'.OX].].]._.c q q q q l !.]._.x q q q q x `.].].].].].].].].].].].'.'.'.'.I.I.I.I.I.I.'.'.'.].].].].].XX].",
"].].].].].].].OX].].].].W.k q q q q k Q.XX'.v q q q q k U.].].].].].].].'.].].].oXoXoX'.oXoXoXoXI.P.I.'.'.'.].XX].].].].",
"].].].].].].].].].].].].J.k q q q q z _..X`.z q q q q w c.].].].].].].].oX].oX'.'.'.'.oXoX].].I.'.P.'.'.'.].].].].].].].",
"].].].].].oX].].].].].].U.7 q q 5 4 v ].].].4.0 q q q q z.#X].].].].].].'.oX'.oX'.'.I.].I.I.].I.'.'.'.'.'.].].].].].].].",
"].].].].].].].].].].].+Xf.E : : % O { '.'.oXx.2 3 3 7 2 a.OX].].].].].oX'.].'.'.'.'.'.'.'.].].].].].].].].].].].].].].].",
"].].].].].].].].].].].].u._ _ _ Q _ | _.'.oXQ.u e e e y g.#X].].].].].].].'.'.'.'.'.].'.'.'.].XX].].].].].'.].].].].].].",
"].XX].].].].]..X].].].]. .Q Q _ [ [ Q C.oX].'.a.> : : :.`.].].].].'.].'.'.'.'.'.'.'. X'.'.'.'.].].].].].].].].XX].].oX'.",
"].].].].].].].].].].].'.F.r.} } [ ; i.P.].].'.`.s.>.,.!.].].'.].].].'.'.|.].].].].].].].].XX].].].].].].].].].].].].].'.",
"].].].].].].].].'.'.].+XI.{ W [ - - J.OX].].].].`.k.k.].].'.'.'.].].].].].].].'.].].].].].].].].].XX].].].].].].]..X.X].",
"].].].]..X].OX`.p. .{ d.V.{ + = R ^ `.].].].].].].x.k.].'.'.'.].].].].].].].].].].].XX].].].].].].].].'.].].].]..X X%X%X",
"].].].].].].].u.- = = ; * o R R R ^ `.XX].].].oX].U.j.'.'.XX].].].XX].].].].].].].].XX].].].].].].].'.XX].].].XX%X%X&X&X",
".X].].].].oX`., o - = E R = R R = { `.].].].].].XXW.j.!.].].].].].].].].].].].].'.XX'.].].].].].].].XX].].XX X%X$X$X$X}.",
"].].].].].].].C.*.X . o = = = R = - !..X].].].].XXV.>.a.].].].].].].].].].].].].].].].].].XX'. X].].].'.|.|. X}.}.}.}.`.",
"].].OX]..X].].OX'.G.a.^ >   . .   , !.XX].].].].].y., -.`.].].].].].].]. X].].].].].].].].].XX'.].].].].}.'.].].].].'.].",
"].].].].].].].].].|.].].`.f.t.y.V.`.].].].].'.'.].K.V._.].].].].].].].].].].XX].XX].].].].].].].].].].].].].XX'.].].].].",
"].].].].].].].].].].].].].].#XoX#X].].].].].'.'.].].oX].].].].].].].].].].].].].].].].].].].].].].].].].].XX'.].].].].]."
};
