/* XPM */
static char *_82c662646db4187efaa837aa531c34fkAKMIRUBjiXY46U7[] = {
/* columns rows colors chars-per-pixel */
"60 60 152 2 ",
"   c #E0B15F",
".  c #E3B05F",
"X  c #E7B35D",
"o  c #E7B35F",
"O  c #E8B05D",
"+  c #E8B25C",
"@  c #E9B35D",
"#  c #EAB25D",
"$  c #E9B15E",
"%  c #E8B15F",
"&  c #E9B25F",
"*  c #EBB35E",
"=  c #EAB25F",
"-  c #EBB55D",
";  c #E8B45E",
":  c #E9B55F",
">  c #EAB45E",
",  c #EBB55F",
"<  c #E8B65F",
"1  c #EAB75E",
"2  c #ECB45D",
"3  c #ECB45F",
"4  c #ECB65E",
"5  c #EDB75F",
"6  c #EEB65F",
"7  c #DFB163",
"8  c #E1B260",
"9  c #E1B063",
"0  c #E3B263",
"q  c #E5B263",
"w  c #E6B362",
"e  c #E7B560",
"r  c #E2B365",
"t  c #E3B466",
"y  c #E5B465",
"u  c #E6B664",
"i  c #E6B566",
"p  c #E5B666",
"a  c #E7B667",
"s  c #E6B767",
"d  c #EAB360",
"f  c #EBB360",
"g  c #E8B460",
"h  c #E9B561",
"j  c #EBB461",
"k  c #E8B661",
"l  c #EAB660",
"z  c #EBB761",
"x  c #E8B562",
"c  c #EBB462",
"v  c #E9B762",
"b  c #EAB662",
"n  c #EAB663",
"m  c #EBB763",
"M  c #ECB461",
"N  c #ECB660",
"B  c #EDB761",
"V  c #EFB760",
"C  c #ECB562",
"Z  c #EDB562",
"A  c #EDB663",
"S  c #E8B564",
"D  c #E9B665",
"F  c #EAB764",
"G  c #EBB764",
"H  c #E8B566",
"J  c #EDB664",
"K  c #EEB764",
"L  c #EEB765",
"P  c #EBB962",
"I  c #EAB863",
"U  c #EEB860",
"Y  c #ECB862",
"T  c #EDB963",
"R  c #EEB862",
"E  c #EFB963",
"W  c #EEBB62",
"Q  c #EBB964",
"!  c #EBB865",
"~  c #EBB867",
"^  c #ECB864",
"/  c #ECB865",
"(  c #EDB965",
")  c #EFB865",
"_  c #ECBA65",
"`  c #EEBA64",
"'  c #EFBB65",
"]  c #ECB966",
"[  c #EDB966",
"{  c #EFB866",
"}  c #EDBB66",
"|  c #EDBA67",
" . c #EEBA66",
".. c #EEBA67",
"X. c #EFBB67",
"o. c #EEBC67",
"O. c #E2B469",
"+. c #E1B56A",
"@. c #E3B56A",
"#. c #E5B569",
"$. c #E4B669",
"%. c #E4B46A",
"&. c #E7B76B",
"*. c #E4B56D",
"=. c #E5B76C",
"-. c #E7B76D",
";. c #E6B86D",
":. c #E9B869",
">. c #EBBB69",
",. c #EBBA6B",
"<. c #EEB969",
"1. c #EDBA69",
"2. c #EEBB68",
"3. c #EFBB68",
"4. c #EEBB6A",
"5. c #E8B86C",
"6. c #EAB96C",
"7. c #E9BA6C",
"8. c #EABB6D",
"9. c #E9BB6E",
"0. c #E8BA6F",
"q. c #F0BA64",
"w. c #F0B967",
"e. c #F1BA67",
"r. c #F1BA68",
"t. c #F2BB68",
"y. c #F2BB69",
"u. c #F0BC68",
"i. c #F0BC69",
"p. c #F1BD6A",
"a. c #F3BC6A",
"s. c #E6BA71",
"d. c #E6BA73",
"f. c #E7BB74",
"g. c #E5BD75",
"h. c #E7BC77",
"j. c #EABB73",
"k. c #EBBD70",
"l. c #E9BD72",
"z. c #EBBD72",
"x. c #E8BC75",
"c. c #E5BD78",
"v. c #E6BE79",
"b. c #E6BF7C",
"n. c #EABF7B",
"m. c #E7C07D",
"M. c #E6C07F",
"N. c #EAC078",
"B. c #E8C07B",
"V. c #E9C07E",
"C. c #E8C17E",
"Z. c #E9C080",
/* pixels */
"^ ^ K F ^ K z z B B ~ ^ Y Y ^ ^ ^ ^ ^ ^ ^ u.u.u.u.u.^ u.u.u.^ ^ ^ ^ ^ ^ ^ u.^ ^ ^ ^ ^ u.^ ^ ^ ^ ^ u.^ ^ ^ ^ ^ u.^ ^ ^ ^ ",
"z z z z z F z z B ^ ^ 3.^ o.o.^ o.^ ^ u.u.^ u.^ u.^ u.u.u.^ u.^ u.^ u.^ ^ ^ u.^ u.^ ^ ^ u.^ u.^ ^ ^ u.^ u.^ ^ ^ ^ u.^ ^ ",
"K B K F z F F z ^ ^ ^ ^ ^ 3.^ ^ ^ ^ u.u.u.u.3.u.u.u.u.u.u.u.u.^ ^ ^ ^ u.^ ^ ^ ^ ^ u.^ u.^ ^ ^ u.^ ^ ^ ^ ^ u.^ u.^ ^ ^ ^ ",
"B B B z z z z z Y ^ ^ ^ ^ ^ ^ o.u.^ ^ u.u.^ 3.u.u.^ u.^ u.^ u.u.u.^ ^ ^ u.^ u.^ ^ ^ ^ ^ u.^ ^ ^ u.^ u.^ ^ ^ ^ ^ ^ u.^ u.",
"^ ^ ^ ^ z z z F B B z z Y I ~ Y Y 5 ^ u.^ u.^ u.3.3.u.u.u.u.u.^ ^ ^ ^ ^ ^ u.^ u.^ u.^ ^ ^ u.^ ^ ^ u.^ u.^ ^ ^ u.^ ^ u.^ ",
"^ ^ ^ ^ F F z F ^ Y z B 5 5 Y ^ Y I I ^ ^ ^ 3.^ ^ ^ 3.u.^ u.u.u.u.^ u.^ ^ ^ ^ ^ ^ ^ u.^ ^ ^ u.^ ^ ^ ^ ^ u.^ ^ ^ 4.^ ^ ^ ",
"u.^ ^ ^ ^ ^ K ^ u.^ ^ ^ ^ ^ ^ ^ ^ ~ ~ ^ ^ ^ ^ ^ ^ ^ ^ ^ ^ u.^ u.^ ^ ^ u.^ u.^ ^ ^ ^ ^ ^ ^ ^ ^ ^ ^ u.^ ^ ^ u.^ u.^ ^ ^ 3.",
"^ ^ ^ ^ ^ ~ ~ K Y ^ ^ ^ ^ ^ >.9.y 3.^ ^ u.u.u.u.3.^ ^ ^ ^ u.u.^ u.^ ^ ^ ^ ^ u.^ u.^ u.^ u.^ u.^ ^ ^ u.^ ^ ^ ^ ^ r.^ ^ ^ ",
"Y ^ ^ ^ K F ^ K F B z I 4 8.n.m.@.O.3.^ o.u.a.u.3.3.r.r.r.r.3.3.^ ^ ^ 3.^ ^ ^ ^ u.^ u.^ u.^ u.^ ^ ^ ^ ^ o.^ ^ ^ ^ ^ o.^ ",
"^ ^ ^ ^ F F B B F F F 4 ,.V.V.v.@.7 *.8.u.^ u.u.a.r.a.r.r.a.F 3.3.^ ^ u.^ ^ u.^ ^ ^ ^ ^ ^ ^ ^ ^ u.^ u.^ ^ ^ ^ e.e.^ ^ ^ ",
"^ ^ ^ ^ K K B B B 4 ^ j.m.m.g.s.r 9   O.;.3.o.^ r.u.a.a.a.r.r.3.3.^ ^ ^ ^ ^ ^ ^ ^ ^ u.^ ^ ^ u.^ e.e.e.^ ^ ^ 3.^ ^ ^ u.^ ",
"^ ^ ^ Y B z z z Y ,.x.f.9.;.=.y . 0 0 w y -.4.u.3.r.r.r.r.u.r.r.u.u.u.^ u.^ u.^ ^ u.^ ^ ^ u.^ ^ z ^ ^ ^ ^ 4.^ ^ ^ u.^ ^ ",
"^ B 1 z 1 z K F F @.,.u z y F u u u F z ^ ^ 3.^ u.u.u.u.a.r.r.a.u.u.3.^ u.^ ^ u.^ ^ ^ ^ u.^ ^ ^ ^ ) K K K f B c e.^ ^ ^ ",
"Y ^ ~ K F K ^ o.K F ^ o.~ ~ q.^ z F F F ^ ^ e.3.u.^ u.u.r.u.a.u.u.u.3.3.^ ^ ^ ^ ^ u.^ u.^ ^ ^ u.B f * f f f f f B e.3.^ ",
"z z F F F ^ ^ ^ ^ ^ 3.^ Y ~ Y ^ B z K K ^ Y ^ ^ ^ u.u.u.u.u.4.4.u.u.u.u.u.u.^ 3.u.^ ^ ^ u.^ u.^ K K K ~ F ^ ^ ^ B K ^ ^ ",
"F K z F F ^ ^ ^ ^ ^ ^ ^ ^ ^ ^ Y K ^ ^ ^ e.^ ^ ^ ^ ^ ^ u.Y u.^ u.u.u.^ u.^ u.u.^ ^ ^ ^ u.^ ^ ^ ^ K ^ K ^ ^ ^ ^ ^ f K 3.^ ",
"^ u.^ ^ ^ ^ ^ ^ ^ u.^ u.^ ^ ^ ^ ^ ^ 4.^ ^ I I I z ~ K ^ 3.4.o.e.u.u.^ u.u.u.u.^ ^ ^ ^ ^ u.^ ^ ^ ^ ^ ^ ^ ^ ^ ^ ^ ^ ^ ^ ^ ",
"^ ^ ^ e.3.^ 3.^ ^ ^ ^ ^ ^ u.^ u.^ ^ ^ ^ F z B z z z F K ~ ^ ^ ^ u.^ u.^ ^ u.^ ^ ^ u.^ u.^ ^ ^ u.u.^ u.^ u.^ u.^ u.^ u.^ ",
"^ ^ ^ ^ ^ ^ B ^ ^ Y ^ ^ u.^ ^ ^ ^ ^ e.^ ^ B B z z z u z o.^ ^ u.^ u.^ ^ ^ ^ ^ ^ u.^ ^ ^ u.^ u.^ ^ ^ ^ u.^ ^ ^ u.^ ^ ^ u.",
"^ u.^ K e.^ e.^ ^ ^ ^ ^ u.^ ^ u.u.^ o.^ K B f 1 f z 1 z ^ ^ ^ Y ^ ^ u.^ ^ u.^ u.^ ^ ^ u.^ ^ ^ ^ u.^ ^ ^ u.^ ^ ^ u.^ ^ ^ ",
"^ o.e.Y B Y ^ ^ ^ ^ ^ u.^ ^ u.^ ^ ^ ^ u.^ Y 1 f f 1 z * B ~ ^ ^ ^ u.^ u.^ ^ ^ ^ ^ ^ u.^ ^ ^ u.^ ^ u.^ ^ ^ u.^ u.^ u.^ ^ ",
"^ ^ ^ Y B z Y q.e.^ ^ ^ ^ u.^ ^ u.^ ^ ^ ^ ^ z z 1 * z z K K ^ ^ ^ ^ ^ ^ u.^ u.^ ^ u.^ ^ ^ u.^ ^ ^ ^ u.^ ^ ^ ^ ^ ^ ^ u.^ ",
"r.^ e.Y K B B q.q.q.^ u.^ ^ ^ ^ ^ u.^ u.^ ^ Y * f B 1 z B ^ o.^ ^ u.^ ^ ^ ^ ^ u.^ ^ ^ ^ ^ ^ ^ ^ ^ ^ ^ ^ ^ u.^ ^ ^ ^ ^ ^ ",
"^ ^ ^ ^ Y e.^ ^ 4 q.^ ^ ^ u.^ u.^ ^ ^ ^ u.Y B z z f 1 u z ^ e.^ ^ ^ u.^ u.^ ^ ^ ^ u.^ u.^ u.^ u.u.^ u.^ ^ ^ u.^ u.^ u.^ ",
"^ u.^ ^ ^ ^ u.^ q.B B Y ^ ^ ^ ^ u.^ ^ ^ z f 1 * * z z z z F ^ 3.u.^ ^ ^ ^ ^ ^ u.^ 3.^ ^ q.q.B B ^ ^ ^ ^ ^ ^ o.^ ^ u.^ u.",
"^ ^ u.^ u.^ ^ ^ e.^ ) K ^ e.^ o.^ ^ ^ Y * 1 f z 1 * B ^ K ^ ^ ^ ^ ^ ^ u.u.^ ^ ^ r.^ ^ B 4 B B B Y Y V B ^ e.^ ^ ^ ^ ^ ^ ",
"o.^ u.^ ^ ^ ^ u.^ ^ ^ ^ ^ ^ ^ ^ ^ ^ ^ ~ z z F z f z F ^ ^ 3.^ 3.u.^ u.^ ^ ^ ^ ^ ^ ^ ^ B B B Y B q.B B B Y e.e.^ ^ u.^ ^ ",
"^ ^ ^ ^ ^ ^ ^ ^ u.^ ^ u.^ o.e.^ u.^ F K F F ^ z F K ^ ^ ^ ^ ^ ^ ^ ^ ^ ^ ^ ^ ^ u.^ ^ e.^ ^ B Y q.B B B B 5 Y o.^ ^ ^ u.^ ",
"^ ^ ^ ^ ^ ^ ^ ^ ^ ^ ^ ^ ~ z ^ ^ ^ ^ ^ ^ ^ u.^ u.^ ^ ^ ^ ^ ^ o.^ u.^ ^ ^ ^ ^ u.^ ^ ^ ^ u.u.^ ^ ^ Y q.Y q.q.^ e.^ ^ o.^ u.",
"^ ^ ^ ^ ^ ^ u.^ u.^ ^ ^ z B Y ^ ^ 4.^ ^ ^ u.^ ^ u.^ u.^ r.^ ^ ^ ^ ^ ^ u.^ ^ Y ^ ^ 4.^ ^ ^ ^ ^ u.^ ^ ^ ^ Y ^ ^ ^ ^ e.^ ^ ",
"^ ^ ^ ^ ^ ^ ^ ^ ^ ^ ^ ^ ^ ^ ^ o.^ ^ o.^ ^ ^ u.^ ^ ^ ^ u.^ ^ u.^ u.^ u.^ ^ ^ ^ ^ ^ u.^ u.o.^ ^ o.^ e.^ ^ ^ u.^ u.^ ^ ^ e.",
"^ ^ ^ u.^ ^ u.^ ^ u.^ 3.^ ^ ^ ^ Y B B K ^ ^ ^ ^ ^ u.^ ^ u.^ u.^ ^ ^ ^ ^ ^ u.u.^ ^ ^ ^ ^ ^ e.^ ^ ^ ^ u.^ ^ ^ ^ ^ o.^ ^ ^ ",
"^ ^ ^ ^ 4.^ ^ u.e.Y ^ ^ 3.~ F B 4 4 B F ^ ^ ^ u.^ u.^ ^ ^ ^ ^ r.^ ^ ^ ^ ^ ^ u.^ u.^ ^ ^ u.^ u.^ ^ u.^ u.^ ^ u.^ ^ ^ ^ ^ ",
"^ u.^ u.^ 3.^ ^ ^ ^ K z z f * B 4 B K K ^ ^ ^ ^ ^ ^ u.^ ^ 3.^ ^ ^ o.^ ^ ^ o.^ ^ ^ ^ ^ u.^ ^ ^ ^ ^ ^ ^ ^ u.^ ^ ^ ^ u.^ u.",
"^ u.^ ^ ^ ^ ^ ^ o.z z 1 f w * z Y ^ ^ ^ 3.^ 4.u.Y u.^ ^ ^ ^ ^ ^ ^ ^ u.^ ^ ^ ^ u.u.^ u.^ ^ ^ u.^ ^ u.^ ^ ^ u.^ u.^ ^ ^ ^ ",
"^ ^ ^ u.^ 3.^ ^ ^ z w u w X z F ^ u.^ u.^ ^ ^ ^ ^ ^ ^ ^ F K ^ ^ ^ u.^ ^ e.^ ^ ^ ^ ^ ^ ^ ^ u.^ ^ ^ ^ u.^ ^ ^ ^ ^ ^ ^ ^ ^ ",
"u.^ ^ ^ ^ ^ z z * * * 1 X ^ ^ ^ ^ ^ u.^ ^ ^ ^ ^ ^ ^ z f ^ 3.^ ^ u.^ ^ ^ 3.^ ^ ^ ^ ^ ^ ^ u.^ u.^ ^ u.^ u.^ ^ ^ ^ u.^ ^ ^ ",
"^ ^ ^ K Y Y X X X X X z Y ^ u.^ ^ u.^ ^ u.4.^ ^ u.^ F K K K K F u.^ ^ ^ ^ ^ ^ ^ u.u.^ u.^ ^ u.^ ^ ^ ^ ^ 3.^ 3.^ ^ ^ Y Y ",
"u.^ ^ B 4 * * X o v ^ o.^ ^ ^ ^ ^ ^ ^ ^ ^ ^ Y Y K Y B f f $ f f f f K F ^ ) K e.^ ^ ^ ^ ^ ^ ^ ^ ^ u.^ ^ ^ ^ F K e.B B B ",
"^ ^ z 1 * = * 1 I ~ ^ ^ u.^ u.^ ^ u.^ ^ Y ^ ~ Y ^ o.F B F f f f z K K K B B B B ^ ^ ^ ^ u.^ u.^ ^ ^ 3.^ ^ ^ z F Y Y e.^ ",
"z * 1 * 1 ^ ^ u.^ o.^ ^ ^ u.^ ^ ^ ^ z ^ F K ^ ^ ^ ^ ^ ^ ^ ^ ^ ^ ^ r.^ * $ B q.B B B B B B ^ ^ ^ ^ ^ ^ B B Y 3.^ ^ ^ ^ ^ ",
"* * * Y K ^ ^ ^ ^ ^ u.^ u.^ ^ ^ ^ ^ ^ ^ ^ ^ e.^ ^ ^ ^ ^ u.^ u.^ ^ ^ ^ 4.K ) 4 B B B B B B q.^ e.e.^ ^ ^ B Y ^ ^ u.u.^ Y ",
"z z ^ ^ ^ ^ ^ ^ ^ ^ ^ ^ ^ ^ Y ^ u.^ u.^ ^ 4.^ ^ ^ ^ ^ u.^ ^ u.^ ^ ^ e.^ K ^ Y Y B B B B B B Y e.Y ^ ^ K Y z F z ^ u.u.u.",
"^ ~ ^ 3.^ ^ u.^ o.^ u.^ ^ ^ ^ ^ ^ ^ ^ ^ ^ ^ ^ o.^ u.^ ^ u.^ ^ ^ 4.^ ^ ^ ^ ^ ^ e.B B 4 Y B B B 1 B B Y B B B K z ^ ^ o.u.",
"^ ^ 4.^ ^ ^ ^ ^ u.^ u.^ ^ ^ ^ ^ u.^ ^ ^ u.^ u.^ ^ ^ ^ ^ u.^ ^ ^ ^ ^ ^ u.^ ^ ^ ^ e.e.B ^ Y e.B 1 * z 1 B Y ^ u.^ ^ ^ u.^ ",
"^ ^ o.^ u.^ u.^ ^ ^ ^ ^ ^ u.^ u.^ ^ ^ u.^ ^ ^ ^ ^ u.^ u.^ ^ ^ u.^ u.^ Y e.^ 3.^ Y ^ ^ ^ ^ e.^ B 1 * f * B ^ ^ ^ u.^ u.^ ",
"^ o.^ ^ ^ ^ ^ u.^ ^ u.^ u.^ ^ ^ u.^ u.^ ^ ^ u.^ u.^ ^ ^ u.^ u.^ u.^ e.^ 3.^ ^ ^ ) ) ^ ^ F F K B B 1 B B ^ ^ ^ ^ ^ ^ ^ ^ ",
"^ ^ ^ e.u.^ ^ ^ ^ u.^ ^ ^ ^ ^ u.^ ^ ^ ^ ^ u.^ ^ ^ ^ ^ u.^ ^ ^ ^ ^ ^ ^ ^ ^ ^ ^ B z z z z z f K B B z z K e.^ o.^ u.^ u.^ ",
"^ u.^ ^ ^ ^ ^ u.^ ^ ^ ^ ^ u.^ ^ ^ u.^ ^ ^ ^ ^ u.^ u.^ u.^ ^ ^ u.^ ^ ^ u.^ ^ F z B B K K K F r.^ ^ ^ ^ ^ ^ q.^ ^ ^ o.^ 4.",
"^ ^ u.^ u.^ ^ ^ u.^ u.^ ^ ^ u.^ ^ ^ u.^ u.^ ^ ^ ^ ^ ^ ^ u.^ ^ ^ ^ u.^ ^ ^ ^ F K K ^ B B K F ^ ^ e.4.e.^ ^ u.^ ^ e.^ ^ ^ ",
"^ ^ ^ ^ ^ u.^ u.^ ^ ^ u.^ ^ ^ ^ ^ ^ ^ ^ ^ u.^ u.^ u.^ ^ ^ u.^ u.^ ^ ^ ^ ^ ^ z F ^ ^ ^ ^ F ^ ^ u.^ ^ u.^ o.^ e.e.^ ^ e.^ ",
"u.^ u.^ ^ ^ ^ ^ u.^ ^ ^ u.^ u.^ u.^ u.^ ^ ^ ^ ^ ^ ^ u.^ ^ ^ ^ ^ ^ ^ ^ Y ^ ^ ^ ^ ^ ^ ^ ^ ^ ^ ^ ^ ^ ^ e.Y ^ ^ ^ ^ ^ Y e.^ ",
"^ u.^ u.^ ^ ^ u.^ ^ ^ ^ ^ u.^ u.^ u.^ u.^ ^ ^ u.u.^ ^ u.^ ^ Y ^ ^ ^ ^ ^ ^ ^ 3.^ ^ u.^ u.^ ^ ^ ^ ^ u.Y u.o.^ ^ ^ ^ ^ ^ ^ ",
"^ ^ ^ ^ u.^ ^ ^ u.^ u.^ ^ ^ ^ ^ ^ ^ ^ ^ u.^ ^ ^ ^ ^ ^ ^ ^ ^ ^ ^ u.^ u.^ ^ ^ ^ ^ ^ ^ ^ ^ ^ ^ u.^ e.^ ^ ^ ^ 3.^ r.B 3.z.l.",
"^ u.^ ^ ^ u.^ u.^ ^ ^ u.^ u.^ ^ ^ u.^ ^ ^ u.^ u.u.^ ^ ^ ^ ^ ^ u.^ ^ u.^ ^ u.^ u.^ ^ ^ ^ u.^ ^ u.Y ^ ^ ^ Y e.^ o.l.n.Z.v.",
"^ ^ u.^ ^ ^ ^ ^ u.^ ^ ^ ^ ^ u.^ ^ ^ u.^ ^ ^ ^ ^ ^ ^ ^ ^ ^ ^ ^ ^ u.^ ^ ^ ^ ^ ^ ^ e.u.^ u.^ ^ ^ ^ ^ ^ u.^ ^ ^ k.N.b.c.s.&.",
"^ ^ ^ u.^ ^ ^ ^ ^ ^ ^ u.^ ^ ^ ^ ^ ^ ^ u.u.^ ^ u.^ ^ ^ ^ ^ ^ ^ ^ ^ u.^ ^ ^ u.^ u.^ u.^ ^ ^ u.^ u.^ ^ ^ 3.,.8.&.5.&.y y y ",
"u.^ ^ ^ u.^ u.^ u.^ ^ ^ u.^ u.^ u.^ ^ ^ ^ ^ ^ ^ ^ ^ ^ ^ ^ u.u.^ ^ ^ u.^ ^ ^ ^ ^ ^ ^ u.^ ^ ^ ^ ^ u.^ ^ ^ ^ ^ z F I Y ^ Y ",
"^ u.^ u.^ ^ ^ u.^ u.^ u.^ ^ ^ u.^ u.^ u.o.^ ^ ^ ^ ^ ^ ^ ^ ^ ^ ^ ^ ^ ^ ^ ^ u.^ ^ ^ ^ ^ ^ ^ u.^ ^ ^ 4.^ 3.^ ^ Y e.^ ^ ^ ^ ",
"^ ^ ^ ^ u.^ ^ ^ ^ ^ ^ ^ u.^ ^ ^ ^ ^ ^ ^ ^ Y ^ ^ ^ ^ ^ u.^ u.^ u.u.^ u.^ ^ ^ u.^ u.^ u.^ ^ ^ u.^ ^ ^ ^ ^ e.^ ^ u.o.r.^ ^ "
};
