/* XPM */
static char *a7167b38c801412e95b6630c6d79491b3cfBcsed8s3lzNpW[] = {
/* columns rows colors chars-per-pixel */
"60 60 242 2 ",
"   c #1B370D",
".  c #1A2C13",
"X  c #23390E",
"o  c #2C2D14",
"O  c #253916",
"+  c #333C2A",
"@  c #633F36",
"#  c #1C450D",
"$  c #27460E",
"%  c #294715",
"&  c #2D5314",
"*  c #335012",
"=  c #325313",
"-  c #335B13",
";  c #395919",
":  c #36680D",
">  c #366413",
",  c #3C6415",
"<  c #3C6B14",
"1  c #3C631B",
"2  c #3E7513",
"3  c #334726",
"4  c #395925",
"5  c #396427",
"6  c #405D1E",
"7  c #446917",
"8  c #436B1B",
"9  c #50661C",
"0  c #447315",
"q  c #497917",
"w  c #4A7C15",
"e  c #447219",
"r  c #537A1A",
"t  c #4A512E",
"y  c #714937",
"u  c #496525",
"i  c #556A28",
"p  c #4B7225",
"a  c #577625",
"s  c #4A6936",
"d  c #586B34",
"f  c #5B7635",
"g  c #6E702E",
"h  c #687835",
"j  c #757936",
"k  c #4B3C41",
"l  c #59534B",
"z  c #6B544F",
"x  c #665756",
"c  c #65545B",
"v  c #4E7249",
"b  c #597947",
"n  c #69724D",
"m  c #6B5C63",
"M  c #745F69",
"N  c #75636B",
"B  c #7A656E",
"V  c #77686F",
"C  c #726C71",
"Z  c #7C6A72",
"A  c #9C4C24",
"S  c #9A4D28",
"D  c #99522B",
"F  c #875130",
"G  c #985634",
"H  c #A04E27",
"J  c #A25227",
"K  c #A5532B",
"L  c #AA552C",
"P  c #AD592E",
"I  c #B15D2F",
"U  c #A45A37",
"Y  c #AD5B31",
"T  c #B15D32",
"R  c #906C32",
"E  c #AC6735",
"W  c #B56234",
"Q  c #BB6636",
"!  c #BC6936",
"~  c #B66839",
"^  c #BD6A3A",
"/  c #C16B38",
"(  c #C4743D",
")  c #955E43",
"_  c #966B4E",
"`  c #A86D4B",
"'  c #BB7645",
"]  c #93776C",
"[  c #826C75",
"{  c #846F78",
"}  c #877579",
"|  c #89737C",
" . c #AB7961",
".. c #C67844",
"X. c #D37D47",
"o. c #4A8713",
"O. c #4B8315",
"+. c #4D8119",
"@. c #538B15",
"#. c #52841A",
"$. c #588519",
"%. c #558B19",
"&. c #598C1B",
"*. c #599615",
"=. c #5B9516",
"-. c #5C931B",
";. c #63971A",
":. c #65901D",
">. c #6BA615",
",. c #598623",
"<. c #5D8636",
"1. c #688C2C",
"2. c #778735",
"3. c #79983B",
"4. c #7DA338",
"5. c #5B8246",
"6. c #698A48",
"7. c #7B8646",
"8. c #728D4B",
"9. c #6D9145",
"0. c #739444",
"q. c #7B9C43",
"w. c #7B9847",
"e. c #74934C",
"r. c #7A954C",
"t. c #6C8954",
"y. c #758B54",
"u. c #799355",
"i. c #7CA243",
"p. c #7B916B",
"a. c #88843B",
"s. c #96873C",
"d. c #869A38",
"f. c #94903C",
"g. c #A69230",
"h. c #88A93B",
"j. c #93AE37",
"k. c #8EB33B",
"l. c #97B83A",
"z. c #A6B836",
"x. c #B2B839",
"c. c #9CC334",
"v. c #A3C23D",
"b. c #A8C73B",
"n. c #AFCA3C",
"m. c #878447",
"M. c #978C44",
"N. c #839B49",
"B. c #999547",
"V. c #859B55",
"C. c #A6994A",
"Z. c #B19F51",
"A. c #83A343",
"S. c #88A746",
"D. c #98A744",
"F. c #88B543",
"G. c #99BA42",
"H. c #8EA352",
"J. c #A6BD44",
"K. c #AFA651",
"L. c #8E9371",
"P. c #AF8875",
"I. c #8BA164",
"U. c #DA854C",
"Y. c #D08C4E",
"T. c #EB9954",
"R. c #EB9A55",
"E. c #D1AB5C",
"W. c #EBA45B",
"Q. c #F2A75B",
"!. c #ECB45F",
"~. c #DD9561",
"^. c #D4AB6F",
"/. c #D9B47B",
"(. c #EBA662",
"). c #EDA963",
"_. c #EFAA67",
"`. c #EBB762",
"'. c #EDB965",
"]. c #E6B76B",
"[. c #EDBB69",
"{. c #F1B563",
"}. c #F1BB67",
"|. c #F4BA6A",
" X c #E5B973",
".X c #E5BA77",
"XX c #9FC141",
"oX c #A9C343",
"OX c #B5C744",
"+X c #8C7980",
"@X c #917D84",
"#X c #97868C",
"$X c #9D8B92",
"%X c #8E9190",
"&X c #959799",
"*X c #A29192",
"=X c #A4969A",
"-X c #97AC92",
";X c #B5A898",
":X c #9C9EA1",
">X c #AB9EA2",
",X c #99A2A3",
"<X c #AAA5A7",
"1X c #B5AAA9",
"2X c #B5AAAB",
"3X c #BAAFB1",
"4X c #A4B5B0",
"5X c #BDB3B3",
"6X c #C9AF8F",
"7X c #DBB988",
"8X c #D8BD97",
"9X c #E3BD81",
"0X c #CEB8A9",
"qX c #C4B8B8",
"wX c #ACC6BF",
"eX c #DAC09A",
"rX c #EBC488",
"tX c #F1C586",
"yX c #D7C3A7",
"uX c #CCC2BD",
"iX c #D6C6B8",
"pX c #EED0AA",
"aX c #C9BEC1",
"sX c #B7CCCD",
"dX c #CCC3C4",
"fX c #D5CBC5",
"gX c #D4CBCC",
"hX c #DAD0CC",
"jX c #D8CED1",
"kX c #D9D3D3",
"lX c #DCD5D5",
"zX c #DDD7D8",
"xX c #DFD9D9",
"cX c #E4D1C5",
"vX c #E2D9D3",
"bX c #E3DCDC",
"nX c #E6E0DF",
"mX c #C4DAE2",
"MX c #E6DFE0",
"NX c #E6E0E0",
"BX c #E9E2E3",
"VX c #EAE8E7",
/* pixels */
"`.'.`.`.`.'.`.`.`.`.`.`.'.'.'.'.'.'.'.`.'.}.}.}.[.}.[.}.[.[.[..XtX[.[.'.'.'.[.[.[..XrX[.'.'.'.'.'.'.'.'.'.'.'.[.'.'.'.'.",
"`.`.`.`.`.`.`.`.`.`.}.'.'.'.'.'.'.'.]..X/..X}.[.}.[.}.[.}.[.}.|.tX}.'.'.'.'.[..X9XrXeX.X].`.'.'.'.'.'.'.'.'.'.'.'.'.'.'.",
"`.`.`.`.`.`.`.`.`.}.`.}.'.'.'.'./.eXfXkXlXiX6X].}.[.}.}.[.[.[..XrX.X.X7X8XyXiXvXxXdX5X;X;X7X'.'.'.'.'.[.'.'.'.'.'.'.'.[.",
"`.`.{.`.`.`.`.`.`.`.`.`.'.'.'./.qXnXnXVXnXqX&X^..X7X7X6XyXyXpXiXiXhXlXbXbXbXVXVXNXVXvX5X2X<X7X'.'.'.'.'.'.'.'.'.'.'.'.{.",
"'.`.'.`.`.`.`.`.`.!.`.`.`.`.!./.qXgXfXuX3X<X%X6X0XkXqXdXNXbXnXNXbXMXMXBXNXNXBXNXnXnXkX5X2X1X6X`.'.`.'.'.[.'.'.}.[.'.'.'.",
"`.'.'.'.`.`.`.`.`.`.`.'..X.X7X7X6X2X<X<X&X*X^..X6XdXqX3XqXqXqXuXgXfXjXvXbXbXbXzXhXdX5X2X<X6X].`.[.].].'.'.'.'.'.'.'.'.'.",
"'.`.`.'.'.'.`.`.'.'.`.eXzXbXkXjXkXkXfXdXuXiXiXiXiXuXqX2X2X&X=X>X=X<X<X3X5X5X5X5X2X2X2X2X0X8XyXiXiXiXyX8X X`.'.'.'.'.'.'.",
"`.'.'.'.`.'.'.`.`.`.`.yXbXnXbXzXbXkXkXkXzXlXlXzXkXkXkXvXkX5XdXjXgXdXaXqX5X5X5XqXuXdXfXgXhXkXkXlXlXkXlXlX0X X'.'.'.'.'.'.",
"'.'.`.`.{.{.`.`.`.`.'.iXzXbXMXMXbXvXzXvXzXkXlXzXkXlXlXlXzXgXkXzXzXkXzXvXzXzXzXlXlXlXlXkXlXkXkXzXlXzXbXbXkX8X'.'.'.'.'.'.",
"`.`.`.'.{.Q.}.`.`.`.`.iXzXzXbXMXMXBXbXbXMXNXNXMXNXbXbXbXMXbXzXbXzXzXzXkXzXzXzXkXlXbXbXbXbXbXbXzXvXbXbXbXbXiX].'.'.'.[.'.",
"`.`.'.!.~.C.Y.Y.!.`.].iXbXxXvXbXBX3X#X#X&X>X3XqXdXgXjXkXzXbXbXbXxXxXxXNXbXbXMXbXbXBXMXNXbXMXMXBXBXBXbXkXlXhX.X}.'.'.'.'.",
"`.`.`.W.U.D D S D E ' P.6XiXhXvXgX{ m c c m m m N Z Z } } | +X#X#X$X$X$X*X*X$X=X*X$X$X$X#X#X#X>XkXBXzXlXlXkX7X`.'.'.'.'.",
"`.`.{.R.U.A K U S A A A D G ` P.P.z z #X4XsXsX4X4X4X,X&X%X#XZ N N N V C V C V C B V Z V m m C Z 5XBXvXzXkXzX8X`.'.'.'.[.",
"'.`.{.R.X.A K P P P Y P P K A A A S ) -X4X-X-X4XsXwXsXmXmXmXsXsX4X4X&XL.&X4X4Xp.%X-X-Xp.t.c m Z =XBXzXlXkXzX0X`.'.{.'.'.",
"`.`.'.W.( A L P K T P P P P J P L K G r.e.u.p.p.p.t.u.-X4X4X-X-XI.I.N.r.r.V.V.8.t.y.y.u.y.m c B $XMXzXlXzXzXiX].`.{.'.'.",
"`.`.{.R.( H L P K P T P P P J L P L R y.e.u.u.e.t.p.t.t.r.u.V.p.V.r.u.w.A.r.r.e.e.r.u.e.V.n c [ #XbXzXlXzXlXfX].`.`.'.'.",
"'.'.|.R.( A L P L L Y T L L K Y Y L R n p.y.V.u.u.y.t.v u.e.r.I.p.t.t.r.y.e.e.N.S.S.V.H.V.y.c B #XlXzXkXlXxXhX/.`.'.'.'.",
"'.'.}.).( A T W L L L T T L K L Y K R u.y.y.u.y.t.t.u.t.t.t.i.V.S.u.e.u.u.y.e.w.w.N.H.N.N.y.c B | kXzXzXlXvXhX7X'.'.'.[.",
"'.'.}.{...A W ! P P P P T T K G z F _ I.V.N.N.y.6.8.e.u.u.5.r.V.i.u.r.r.u.y.8.y.8.t.e.w.w.N.c B | hXvXzXlXxXlXrX'.[.'.'.",
"'.'.}.).~ A W ^ P ! ! T L P L l N c n e.y.8.6.t.9.r.S.S.F.r.t.y.u.u.5.9.r.9.6.8.b 5.8.A.w.6.x V } gXbXlXzXbXhX.X}.`.'.'.",
"'.'.|._.^ D W ^ W ^ ^ / W P P F l y n 2.w.6.q.r.9.r.S.A.S.A.y.t.5.6.v 5.9.4.i.5.5.6.9.9.i.9.x N [ 5XMXBXbXlXyX.X`.`.[.'.",
"'.'.|.(.^ A Q ! W / ^ / ! W P U U U V.S.i.0.q.S.S.i.A.A.q.w.e.e.e.e.e.9.9.9.i.9.9.4.4.i.4.w.x N [ 2XMXMXzXzXzXyX'.[.'.'.",
"'.'.|.(.~ A W Q Q Q / ^ ! W T Y P E A.S.S.0.3.q.A.N.h.3.0.8.0.q.H.u.9.5.9.9.e.v v 5.<.<.9.6.l N [ qXBXzXzXkXzXiX[.'.'.'.",
"'.'.|.(.Q H Q / Q Q / ` E ~ P Y L R q.q.q.0.<.9.3.5.6.6.3.9.6.b 6.i.9.9.9.6.5.5.5.5.v v 0.9.x N [ 3XBXlXkXzXzXfX.X`.[.'.",
"'.'.|.(.~ H Q / Q T _ | M G Y P P R 0.i.3.q.q.i.0.v v 6.6.q.q.e.q.9.9.e.i.i.i.F.F.F.F.A.c.c.n N [ 2XMXbXlXkXvXjX9X[.'.'.",
"'.[.|.(.~ S Q ^ W ` *X<XC y D P P R 4.c.l.v.oXG.l.k.S.j.l.k.F.h.G.k.F.S.F.G.c.k.h.k.l.h.F.l.m.m Z >XMXzXlXzXbXkX7X`.'.'.",
"'.'.|.(.~ H ! / Q _ 4X,X&Xm F Y L g.b.c.v.v.G.oXv.v.OXOXoXoXoXv.v.oXG.i.i.F.i.h.k.k.l.h.4.h.7.N [ >XbXzXlXzXzXlXeX`.'.'.",
"'.[.|.(.~ H / ^ ` [ ,X,X&X&Xz P J g.n.n.G.G.G.J.l.n.OXOXn.b.v.G.v.v.A.A.i.F.k.k.c.c.l.k.j.k.m.m [ *XMXzXzXlXlXlXyX'.'.'.",
"'.'.|.(.E J Q ^ ` +X,X,X%X:Xk U P g.OXOXJ.l.J.OXb.OXoXJ.z.h 4.l.v.v.l.G.k.k.c.c.c.j.k.j.j.h.7.N [ $XMXzXkXlXlXzXyX`.'.'.",
"`.].|.(.~ S ^ ' _ %X,X&X%X&Xk G L s.J.n.z.n.J.z.l.l.v.G.j.d 7.OXj.j.j.d.l.c.v.v.l.l.l.k.k.j.7.N [ $XMXzXzXlXlXlXyX`.'.'.",
"'.'.|.(.~ K ^ ^ ] %X,X&X%X&Xk F J R J.n.z.z.J.j.J.J.J.OXJ.N.D.J.d h d t 3.n.z.OXl.k.b.b.b.b.m.M [ #XMXbXzXlXzXjXrX`.'.'.",
"`.'.[.(.~ K Q ~ } %X,X&X%X&Xk F L E n.J.l.z.7.n D.J.z.j.j.N.N.2.s d d s d.d.2.l.2.%.4.l.k.oXm.M { #XbXbXbXbXbXiX[.'.'.'.",
"'.[.|.(.' A ! ^ ] Z C C m C t ) L E n.z.z.j.h f 1.2.d.h.1.b 6.f 4 u h h e g 2.j.D.h O.#.,.d.n B [ @XbXMXMXMXvX.X[.[.'.'.",
"'.'.|._.~ J ! ~ '  .` ` _ R _ ` J E x.d.x.x.d.2.1.1.2.1.f s h d j d 1._ g a.j g d.B.2.h r a x M [ | <X3XgXMXbXcX7X[.'.'.",
"'.[.|.(.' A ^ / / / ( ( / / / W L R h d g.j.a.j.a <.p 5 u h B.j 2.f.B.C.B.f.R j j 2.a.B.B.7.x M [ | aXlXbXvXbXMXhX.X`.'.",
"'.[.|.).^ A ! Q Q Q ^ ^ ^ ^ / Q P F i d d.$.r a 5 5 4 1 f m.K.C.C.Z.C.Z.B.f.a.a.a.R M.s.M.M.x M [ +XlXMXvXkXjXbXlX7X{.`.",
"'.'.|._.^ K ! / ! W Q / ^ ^ ^ Q I F = s p 5 5 4 i p u 2.C.K.E.K.K.C.s.M.M.C.s.C.s.m.M.M.j n z M [ | lXMXlXlXlXzXlXeX'.'.",
"'.[.|.)...S Q Q ! I W ^ ^ ^ Q Q I y & 4 s d h 5 4 & 4 2.K.K.K.Z.C.C.C.C.C.R m.M.M.M.M.M.g d z M [ | jXMXlXlXlXlXzXeX`.`.",
"'.'.}._.' D Q / ! W I ^ ^ ^ Q Q P F u h h 8 5 & % 4 u M.K.Z.R j M.B.C.B.h j a.M.s.j h i O 3 c M [ | jXNXlXlXlXlXxXyX`.`.",
"'.`.|._...D W Q / W I ^ / ^ W ! I S * - - 1 8 , 5 a i 7.V.n d j a.a.a i ; ; u 9 t % % % . + c M [ } jXMXlXlXlXlXzXeX`.`.",
"!.!.{._.X.S T / / Q P Q / ^ W ! I A 3 X ; 0 e 1 t ; ; j j r 1 4 6 * $ , 9 7 , - % O . . O + c C [ | gXNXzXkXlXlXkXyX'.'.",
"!.`.{.Q.Y.A T Q Q Q P Q ^ ^ W W T J 9 9 0 7 ; 7 8 ; ; a i t 8 ; 9 a 7 0 - - w w q 0 . . . + c N [ | gXNXkXzXlXlXkXeX'.'.",
"`.`.{.Q...A T / Q Q P Q ! ! W W I L g q w $.$.$.r a 4 e r 0 %.$.r 1.r - $ - - $ $ - - X . l c B { { gXNXzXlXlXzXkXeX}.}.",
"'.`.{.R.X.A P Q Q Q L Q ! ! I T T A g $.r w w 7 a e 8 , < O.e q r w - - * : : > ; * 0 9 u l c V { | gXMXkXzXlXkXhXeX'.[.",
"'.'.'.R.U.A L Q Q ^ L W ~ T T L Y K R r 9 0 q 7 8 , > = - > - < - - 2 O.+.w q $.$.0 < r $.n x N { | jXBXbXxXvXkXyX[.[.[.",
"'.'.{.Q.U.J J W Q ^ L T ~ L P L Y L R i 0 w r r r 8 < & $ , > - $ $ > e 0 w 7 q r : w : < l c B [ } kXVXNXvXxXxXiX.X'.'.",
"'.'.}.Q.U.K H P Q ^ L P T P Y L P P D i < 0 0 0 0 ; - $ $ > - &   X - e : w w 7 , * - = X t c Z [ } kXnXkXxXxXkXkXeX'.'.",
"'.{.`.Q.U.L H L T T L L P L Y L G F F i ; X * 7 7 = * = $     = , = = = - - : - 7 , > ; = l c [ } } xXxXlXkXkXxXkXyX'.'.",
"'.'.[.Q.T.Y A P L L L L L L T K y M c t 3 X * * 5 ; - , 0 = $ & 1 e < > & $ * $ X * 0 0 0 d m [ [ @XxXxXzXlXlXlXlXiX`.'.",
"'.'.[.Q.U.W A L L P L H L L T L @ l z g a 6 p i #.p $.#.#.&.@.w < < 1 % X . $ $ * : o.;.&.d x [ [ @XMXzXkXlXlXlXxXiX].'.",
"[.'.'.Q.T.Q A L L P K H Y L Y L A F S R :.:.:.&.-.-.%.,.-.%.+.*.@.+.+.1 * , w @.@.o.*.d.:.x N [ [ $XbXlXlXlXlXlXlXfX].`.",
"'.'.[.{.T.Q A L L L L H Y L P L H Y H S $.;.:.&.-.-.-.%.-.&.O.@.=.=.>.=.&.%.=.=.;.o.@.w r z N [ [ *XNXxXkXlXlXlXxXhX.X{.",
"'.'.|._.R...A K L Y L H L L P Y J P H F 9 7 @.=.*.=.-.%.;.=.%.r +.%.@.o.=.=.>.;.:.r 9 - a l N { [ >XBXzXlXlXlXlXxXkX7X`.",
"'.[.|.|.R...H K L L L H L L Y L J L J A 9 < +.@.O.o.+.o.*.%.%.-.%.O.2 < 0 #.*.;.q r =.7 3 z M | @X3XMXvXlXlXlXlXxXkXeX[.",
"pXpXpX9XR.X.K K L Y K A L Y L K A H A A g o.-.=.-.,.+.e q q e < < < < < < O.;.;.;.=.-.$.i m >XgXgXdXdXlXlXlXlXlXxXkXeX X",
"cXqX0X7XW.U.A K L K H A H H S K U `  .P.h 2 +.#.-.1.;.,.2 2 2 2 > 2 w 0 @.=.,.%.@.=.;.>.:.-XgXgXgXdXqXdXlXlXlXlXxXkX7X].",
"0X6X;X6X(.X.L H H H G U `  .P.P.P.] n ,.q 2 2 e ,.,.%.-.%.q #.2 q #.-.%.-.#.@.%.q w q r 6.2X1X3X5XdXuXdXNXbXbXBXbXuX/.!.",
"BXcX0X0X.X~.` `  .P.P.#X] z t o . % * e w O.+.o.=.-.@.-.O.2 a ,.q +.a q q - e q #.< < 1 n =X1X1X2X3X2X<XqXqXqXqX6X7X`.!.",
"9XtX9X9X.Xm.h b f s t o o . . . o t % u : 2 @.@.o.o.=.*.=.@.%.O.e q 0 < 8 w q &.%.:.,.#.r y.L.L.*XL.y.h E.^.E.].].'.'.'.",
"|.|._.|.E.; . X #   O o o X X X X ; , > O.2 , w o.2 *.o.2 o.=.o.0 q %.%.@.%.@.O.@.-.w #.w o.o.w =.&.q 8 E.}.'.`.`.'.'.'."
};
