/* XPM */
static char *a6ca1f3b123b43f08d663e97f5c63fc0FZni2pqnNZVz8vhG[] = {
/* columns rows colors chars-per-pixel */
"60 60 132 2 ",
"   c #3B3F4A",
".  c #3E424D",
"X  c #3F4451",
"o  c #41444E",
"O  c #45484F",
"+  c #4A494E",
"@  c #434652",
"#  c #464A54",
"$  c #4B4C55",
"%  c #464B59",
"&  c #4B4E59",
"*  c #504F55",
"=  c #514F5A",
"-  c #4D5057",
";  c #4E515B",
":  c #525156",
">  c #53545C",
",  c #58575C",
"<  c #55585E",
"1  c #5A595E",
"2  c #535661",
"3  c #5A5760",
"4  c #565962",
"5  c #5B5C64",
"6  c #5B5E69",
"7  c #605E64",
"8  c #5D6066",
"9  c #5E6169",
"0  c #626166",
"q  c #66646A",
"w  c #62656C",
"e  c #63666D",
"r  c #63666F",
"t  c #65656D",
"y  c #64676C",
"u  c #66676C",
"i  c #64676E",
"p  c #63646B",
"a  c #68676C",
"s  c #65686D",
"d  c #65686F",
"f  c #66696E",
"g  c #676A6F",
"h  c #666B6F",
"j  c #66686E",
"k  c #69686D",
"l  c #68696D",
"z  c #68696E",
"x  c #6A696F",
"c  c #6A6A6E",
"v  c #636571",
"b  c #636770",
"n  c #646770",
"m  c #636770",
"M  c #656871",
"N  c #666970",
"B  c #676A71",
"V  c #666972",
"C  c #676A73",
"Z  c #666971",
"A  c #686870",
"S  c #696971",
"D  c #686B70",
"F  c #686B72",
"G  c #686D70",
"H  c #696E71",
"J  c #696C73",
"K  c #6A6D72",
"L  c #6B6E73",
"P  c #6C6D71",
"I  c #6E6D72",
"U  c #6A6A74",
"Y  c #6E6B74",
"T  c #696C75",
"R  c #6B6E75",
"E  c #6C6C74",
"W  c #6E6D75",
"Q  c #6C6F74",
"!  c #6C6F76",
"~  c #6E6E76",
"^  c #6B6D73",
"/  c #6E6E78",
"(  c #6C6E7A",
")  c #6C6F78",
"_  c #706F74",
"`  c #706F75",
"'  c #6F7075",
"]  c #6E7176",
"[  c #6E7176",
"{  c #6E7178",
"}  c #6F7279",
"|  c #6E7279",
" . c #727177",
".. c #747277",
"X. c #717176",
"o. c #707378",
"O. c #727378",
"+. c #70737A",
"@. c #73727A",
"#. c #737479",
"$. c #727679",
"%. c #71747B",
"&. c #72757A",
"*. c #74757A",
"=. c #77767B",
"-. c #70737C",
";. c #72757C",
":. c #73767D",
">. c #73767F",
",. c #76777C",
"<. c #74777E",
"1. c #73747A",
"2. c #79777D",
"3. c #73787E",
"4. c #76797E",
"5. c #76787E",
"6. c #78797E",
"7. c #7A797E",
"8. c #777A81",
"9. c #767981",
"0. c #797C81",
"q. c #7B7C81",
"w. c #787B84",
"e. c #7A7D84",
"r. c #7B7E85",
"t. c #7B7E87",
"y. c #7C7F86",
"u. c #7B7D83",
"i. c #807F85",
"p. c #7D8085",
"a. c #828386",
"s. c #838488",
/* pixels */
"O & 9 6 2 & & ; ; & 2 4 ; b t.9 ; - & ; ; & & ; ; ; 4 2 % % 2 2 ; > E E , 5 : > 2 2 : = : , : 3 X.8 2 # & ; X & - 5 D : ",
"< 5 6 2 & ; ; ; ; ; ; ; ; 2 M 9.M 2 ; ; ; & ; ; ; % % 2 4 2 2 4 > 8 <.q = , : > , : * : , : : , q l & & ; % & % < e E , ",
"f N 4 - ; ; ; & $ ; # ; 2 % ; } 4.9 ; ; ; ; & - 4 2 2 4 4 2 2 2 < H *.5 , : , = > : : : : $ : 5 _ q.3 & 2 % ; # < Z | > ",
"D f > & ; & & & $ % # ; ; % ; 2 3.3.9 > - < < - ; 2 2 ; 2 4 4 % 0 *.c , , , , * : , : * * : 0 P *.7.D : % & & # ; N T < ",
"p f < & & # & ; & # & & & - - & H p.w.9 - ; > 2 ; < < < 2 4 4 4 H q.l 5 , , : * = * $ $ : a } $.m 7 D 5 $ & = > 8 ] M ; ",
"f } y > # # % % $ & # @ ; & # > h 8.p.| w < - - ; ; ; < 2 ; < 8 <.t.[ o.k 5 : $ + $ : 3 f ..] 8 > & 7 ( 7 $ > 4 9 } y > ",
"N | } 9 - $ @ @ o & # @ ; % o 4 3.} C Z } H 5 > < - - < < < 4 h ( t t *.*.c 8 , : , 0 f y 9 2 % % # & D H 1 2 3 h } y 8 ",
"4 4 H [ 8 - o # # @ @ O % % # 8 w.M & ; Z 3.] Z G h h 9 9 b ! 3.6 o # 5 ` ....t 0 0 h H 2 # % % % % # 6 q.4.H w H } ] H ",
"8 2 2 9 f p > $ # . o & # o > | 3.5 & # ; 8 3.p.| b 9 9 h H 9.b + @ o o ; 4 y H o.*.t - & & @ @ & @ # t $.9.9.9.-.r.q.H ",
"4 8 4 2 6 N N 8 O O O . o # 5 ] 9 ; $ % % ; 9 } < X - X - 8 b ; # @ o o O # - # 7 D 8 O # % % % # # & f m 0 5 6 D <.4.R ",
"6 4 4 < 4 9 e N M & - & @ # C ( ; & % ; # ; 6 } 4 X < < 4 9 b % % # % # # @ @ . 4 M 6 # # & # % # # , N 6 2 & & , 9 o.m ",
"4 2 2 4 4 > < 8 M N p $ ; 4 T 8 ; ; ; ; ; ; 6 ;.8 - % - 4 b 8 % # @ @ # # # @ @ ; v 9 & # # # # % # 4 M 6 2 2 2 & 3 o.m ",
"< 2 5 5 4 4 4 < 4 9 | V 4 T } 2 ; ; ; 2 ; ; 4 | < 5 - - 9 | 4 . % # # @ @ @ @ @ % 7 v 4 $ & # % # % p v 2 > > ; - 4 | 9 ",
"2 2 2 2 2 5 6 4 4 6 8 R 9.9.e 4 ; ; % ; ; - 4 | h 5 ; < H R ; & & % % % & @ # O # 4 M v > % @ @ o = E m > & & - ; 4 9 2 ",
"2 ; & 2 2 > 2 4 < < 4 8 | ;.e - = & ; 2 < - < [ y < 9 3.p.} 2 - % # # # % # % % @ & v C , $ $ * , 5 @.5 - - & - - 8 9 ; ",
"2 2 2 2 4 2 4 2 < 5 6 8 9.C 4 4 4 2 % 2 - - < w $.9 Z 9 9 H 9 # $ & # % # @ O % # = S -.7 5 p k E P o., : 2 > & - 9 9 % ",
"> 2 ; 2 2 2 2 2 4 < 8 h [ 0 1 1 4 3 5 5 5 1 5 h 4.p 4 ; > 9 8 - & = @ # % # # # # & 7 7.7.*.7.7.2.i.7.p 2 - - : 2 v 6 ; ",
"; ; 2 4 2 > 2 > 4 5 8 | 6...H X.-./ X.E E E l ' ] 4 > & & 4 5 ; # & % # % % $ % # & p 2.X.a a 0 7 7 k ` E < & $ 2 C 4 $ ",
"- > > ; - > , 4 4 8 s $.6.,...*.E f k q q 0 0 E H > - & & 2 4 8 & % & % # & % % # & 7 ( p , : : * * , 7 P l 1 * 6 H 4 # ",
"> ; > > 2 5 9 p y Z ..,.h 0 7 5 5 , 1 3 1 : 1 X.R 4 ; 2 ; 2 4 b 4 % & & $ & % & % & 6 ` 0 , , : = = + * 5 c q 7 p [ 1 # ",
"9 9 p e v p 7 6 8 f | *.7 1 , , 5 , , 3 1 , 1 X.H 4 & 2 2 2 4 v 9 ; & & % & % & % $ 5 [ f 5 , , , , : : , , 7 I l P 1 3 ",
"M 9 8 8 6 3 2 = # ; p $.5 3 1 7 3 , 3 , , < 1 0 R 4 ; 4 2 2 2 9 C 4 - & & & & & & % 5 D q 1 , , * : , , * * : q =._ 0 <.",
"& % # @ @ @ # O O % 6 X.5 , , , 3 3 3 , , 1 1 0 +.8 ; 4 2 2 2 9 | C 4 ; & & & & > & 5 H q 1 1 1 * , : : : = * , a q , t ",
"# % # % # # # # % # 2 $.q 5 , , 5 , 2 , : : , q o.8 2 2 2 2 4 v } 9.e ; ; & 2 % % % 5 P s 1 1 < , , = , , : * : a D : , ",
"# % $ & & # # # % @ - X.q 5 , : < : < 1 , : 8 a | h 5 > 5 N | R p 9 p 0 > & & : > - < h k 1 1 1 1 , = = , , = = 0 c 5 2 ",
"$ # # O # O @ @ @ @ # H q 1 , , > , - : - , 0 a 8 h E E f e > @ . & 4 5 5 5 3 : - 8 ' ,.c 1 1 1 * , 1 , , , , , 5 P q 2 ",
"$ $ # # # @ @ @ @ @ @ f q 1 , 1 , : : : : , 5 c f E o.p - @ . . X X % 5 q 5 5 q h Z } $.*.q 1 5 , 1 7 7 , , , , 0 [ 9 - ",
"% # # # @ @ @ @ @ o # 9 l 1 , , < : * : : , q 2.H 0 2 # @ X @ X @ @ @ > p E E c ] 4 > 3 D X.8 3 1 , 1 1 7 7 , 7 h Z < O ",
"@ % # @ @ @ X @ @ X @ 8 P 1 , : , : : , 7 t t p 3 & o . @ # # X X # & 4 R ] 8 < # $ @ @ 4 } | l k 0 0 5 7 7 7 7 [ 0 & $ ",
"# @ # @ # @ @ . X @ @ 5 ' 5 , , 1 0 q p 7 6 2 o @ @ # # # X @ % # ; 9 ( T < $ % % # & $ ; T 9.9.X.X.X.H x _ k E 2.0 $ $ ",
"# # @ $ # @ @ X X . X - ' 0 q q l P X.f & & & @ & @ # & ; # $ # - p ( e > ; ; % ; & % - ; 9 } N 0 p N M t H P X...t : # ",
"@ # % @ X X . . X @ . # ] f P X.0 7 H R 4 % ; % # # # # @ # > 8 H p 6 2 & % ; % & ; & ; ; T | ; > - > - - < < 1 f q 4 % ",
"# % $ X . X X . . O % < Z 9.Z > - # ; e R 9 ; & & ; % & - , t [ e < # ; & ; 2 % ; ; & & , ;.e 4 4 ; 2 2 2 2 6 ; 2 9 b 4 ",
"# X # # # @ @ @ O # 8 } ] < O O @ # & - 9 ( 9 - - ; - & 4 } t.p - ; ; ; ; & & % ; 2 ; : 8 | 9 5 2 4 6 6 2 2 2 2 2 9 b R ",
"% X O X @ @ % & 8 Z | 8 - % - $ & & $ X & 9 e H < > - p t.t.| e 2 2 ; ; % & & & ; % 4 6 8 H 9 4 9 6 2 2 2 6 2 2 2 9 R p.",
"- # # @ @ ; 2 9 9 8 2 % # # # # # @ % % # $ - Z 0 p ' [ e 9 R Z - 2 < ; 2 4 2 % 2 2 5 p ;.4.8 < 4 ; 6 9 4 2 6 2 4 b ( | ",
"; - # ; 8 8 8 9 ; ; # ; ; @ # & & % # @ O @ # - X.,.f < 4 6 e N 8 8 4 - ; 2 > 2 2 3 ( 9.o.$.| f 6 4 4 4 4 2 > 6 9 9 y 8 ",
"9 < ; 8 9 8 2 ; & ; - # @ # % % ; % @ . X $ $ - X.8 4 6 - - D <.} M 9 9 8 4 4 4 ] 9.9.v 6 > < 9 R Z 4 - 6 2 > p H 9 2 ; ",
"$.H y 9 6 ; ; & ; % % % # @ @ # X X @ % % X . # ] 9 ; - < 9 H <.9.] 9 8 4 e } 3.3.9 4 ; ; > 6 > 8 [ ' w 6 5 9 H C 6 ; ; ",
"H p.p.y ; ; ; & ; % % % & @ % & $ % # O X $ @ ; T 9 4 9 N t t 5 y Z ] 9 5 y 9.p.f 6 ; 2 6 ; > - < < h w < p <.f 9 ; ; & ",
"- w | | 8 - - ; & & % % % % $ # # # # % % + # > | ( v v 6 4 2 ; ; 5 4 p N Z $.H 5 2 ; 2 2 2 ; & 2 ; 4 8 8 y E 5 2 2 ; ; ",
"- > 8 4.$.5 # & & % & & $ % # $ + # & & = > 3 k 9.C 4 ; % ; ; = - & # - 4 0 R 9 4 < 4 4 2 2 4 2 2 ; - 9 Z 9 5 4 & ; & ; ",
"- ; < Z p.;.0 2 ; # # $ # + $ = , 5 k _ -.o.` 2.w.9 & & % & $ & & % # # ; ; N e 4 4 4 4 2 2 4 4 ; 2 - 9 $.9 ; > ; ; ; & ",
"- - ; 2 } t.E 3 > ; - < 1 7 7 q .._ _ _ D q 7 k 4.9 & & ; & # # % # 2 % # # N N 4 4 > > 2 > 2 2 ; 4 2 6 ] 9 ; 2 2 ; ; ; ",
"; ; # ; 9 R f 1 q f h P _ _ I I q 7 1 : * * * , <.0 & # % % # @ # X # @ # # e e 6 2 > 2 > 2 2 > 2 2 2 6 M 6 = ; ; 2 % ; ",
"% % % % 4 R X.c a.a.*.k 1 , * + + + * + + * * 1 o.p & # @ % % # # @ # @ # # 4 8 6 4 5 5 4 2 4 5 6 ; 2 6 v 6 & ; ; ; ; ; ",
"# % & % > | i.X.0 5 : * + + + + $ + * * * : : 1 o.8 ; % # # # @ # % % # @ . ; V 9 6 4 6 4 4 4 4 4 2 < 6 m 0 & & ; ; % ; ",
"& X % % - a _ 7 : + + + + + $ * * $ = * : : : 1 E 6 - % # @ @ @ X X @ @ @ . ; | 6 4 2 4 5 4 6 4 2 6 4 < v C 2 ; ; % & & ",
"% # - % ; G $.- + + + * + * * $ * * = & = * , 1 P 5 $ @ # # @ + # @ X O . O 8 [ m 6 6 4 4 5 5 2 4 4 1 l ..X.5 - - ; % & ",
"# X X X X G $.< + * * $ $ $ * + * * * * = * , 1 E 5 & # % % @ @ . .   . . % > < 9 6 < 6 9 5 4 4 5 3 0 *.*.X.5 * % ; # % ",
"% % & - % 8 ] , + + + * * * $ * * * * * $ : : 1 k 5 > & @ @ . . . @ X X & 8 9 h D v 3 5 6 > 8 p > D *.c , 7 0 5 - # & # ",
"O # - # $ 8 H , + $ + $ * $ * * * * * * : : , 1 l 5 , $ @ @ + & @ ; 8 v 9 9 8 8 9 m 9 6 9 8 5 5 q [ c , + 5 l 5 ; & # % ",
"$ O O . O 5 h 0 + $ * * : $ - : + * * : : : , 1 0 7 : + & : 4 3 9 v 8 8 ; & & - @ & > 3 9 h 0 w _ 7 , * * , 0 0 - ; % & ",
"$ O # $ - 6 c 1 : + + * * * - : : * : * * : , , l q 0 8 f P H p 6 2 ; & % X X X #   @ # ; 5 0 ..1 : : * * * 7 l - - # # ",
"- - < 8 0 P *.q : * $ * : $ - : : : : : : : , 1 o.@.R H | <.| R ; % X X X ; - X & % # # # % , q , * = * $ * 5 0 < : $ & ",
"a h H | ' ..$.l : * * * : : : : : : * , 1 1 0 s ( T 9 2 > 6 N ( M 9 < % ; % % X @ % # % @ $ q l : * : = , + : 7 8 < - > ",
"3.| v 4 ; 4 ( [ > : : : : : - : : : : : 3 7 7 6 = % @ % % % 2 4 T T e 6 ; $ @ # & # # # * 0 o.7 , $ * : * + : 0 P , 1 > ",
"< - ; ; ; ; Z } 1 : : : : : * : < < 1 1 5 > % . % % # $ & & & > - 8 Z Z 8 > ; ; - > 9 l @.2.q.5 , : * $ + $ 5 c X.0 w f ",
"2 ; ; ; ; ; 6 ( a : : , * * : , 2 , , : & # # # @ % & & ; % & & ; < 6 8 f ' H [ *.$.q.q.q.7.=.5 * : : , q E =.q.p.} p.p.",
"; ; 2 2 ; % 4 9..., : : * * , 1 4 , - # @ @ # ; @ & & = ; ; = = ; ; - < [ a.a.,.P q q q q _ 2.k , 7 q _ 2...c 0 < > H } "
};
