/* XPM */
static char *result[] = {
/* columns rows colors chars-per-pixel */
"60 60 176 2 ",
"   c #010101",
".  c #090807",
"X  c #070708",
"o  c #0B0B0B",
"O  c #100F0C",
"+  c #12110E",
"@  c #0F1010",
"#  c #141313",
"$  c #181717",
"%  c #1B1A14",
"&  c gray11",
"*  c #241C16",
"=  c #201C18",
"-  c #25231D",
";  c #2A251D",
":  c #29281E",
">  c #1E1F20",
",  c #242424",
"<  c #292723",
"1  c #2D2A23",
"2  c #272828",
"3  c #2B2B2C",
"4  c #332E23",
"5  c #322F28",
"6  c #353326",
"7  c #393225",
"8  c #36332B",
"9  c #3B362C",
"0  c #3E3A2E",
"q  c #2F2F30",
"w  c #333334",
"e  c #373738",
"r  c #373839",
"t  c #3B3B3C",
"y  c #443D2B",
"u  c #413C34",
"i  c #74352A",
"p  c #4A422E",
"a  c #4B4638",
"s  c #514F3C",
"d  c #5B5037",
"f  c #5F513B",
"g  c #64543C",
"h  c #6F5D3E",
"j  c #3F3F40",
"k  c #3F4041",
"l  c #414142",
"z  c #4B4B4D",
"x  c #534D42",
"c  c #5B5443",
"v  c #5D5848",
"b  c #4E4F50",
"n  c #4F5051",
"m  c #525354",
"M  c #565758",
"N  c #57585A",
"B  c #58595B",
"V  c #6B5E45",
"C  c #6C5A48",
"Z  c #696149",
"A  c #756241",
"S  c #7C6A4C",
"D  c #6B6552",
"F  c #756C5A",
"G  c #767358",
"H  c #5D5E60",
"J  c #636364",
"K  c #68696A",
"L  c #737475",
"P  c #767779",
"I  c #7A7B7D",
"U  c #89291F",
"Y  c #972E23",
"T  c #9C2E23",
"R  c #873226",
"E  c #9E3125",
"W  c #9F3428",
"Q  c #A13226",
"!  c #A03529",
"~  c #A23A2D",
"^  c #A53D31",
"/  c #A83F34",
"(  c #A74234",
")  c #AA4A3B",
"_  c #AE513E",
"`  c #925540",
"'  c #B34D42",
"]  c #AF5644",
"[  c #B15A46",
"{  c #B65548",
"}  c #BB584D",
"|  c #BE5C51",
" . c #87734F",
".. c #8B7551",
"X. c #937A52",
"o. c #B66751",
"O. c #847966",
"+. c #C05E54",
"@. c #C5655B",
"#. c #C2775B",
"$. c #CA6B61",
"%. c #D3776D",
"&. c #D67B72",
"*. c #9D8356",
"=. c #9D865D",
"-. c #A4885C",
";. c #8A8667",
":. c #8B816F",
">. c #9E9A75",
",. c #AA8E61",
"<. c #AD9366",
"1. c #B39563",
"2. c #B79A67",
"3. c #BA9A66",
"4. c #A59977",
"5. c #B59F79",
"6. c #AAA57E",
"7. c #C8825F",
"8. c #E2B15F",
"9. c #EBB55F",
"0. c #CC8865",
"q. c #D08E69",
"w. c #D3946A",
"e. c #D69A6C",
"r. c #D99F6E",
"t. c #DA8077",
"y. c #D29570",
"u. c #D99F71",
"i. c #CBA666",
"p. c #CBA86C",
"a. c #DEA66F",
"s. c #D3AD6D",
"d. c #DFB163",
"f. c #DCB16C",
"g. c #CAA972",
"h. c #DDA574",
"j. c #D3AD71",
"k. c #D9B474",
"l. c #E4B464",
"z. c #ECB762",
"x. c #EDB965",
"c. c #E4B66B",
"v. c #EAB768",
"b. c #EDBB69",
"n. c #F1BB69",
"m. c #E3AD72",
"M. c #E4B572",
"N. c #E5BA74",
"B. c #EBBC73",
"V. c #E4B279",
"C. c #E6BE7B",
"Z. c #EABD79",
"A. c #E7C07E",
"S. c #E9C07D",
"D. c #7D7E80",
"F. c #838485",
"G. c gray60",
"H. c #AEA586",
"J. c #B9B389",
"K. c #A7A7A7",
"L. c #E58E85",
"P. c #CDC798",
"I. c #D1CB9B",
"U. c #E9C080",
"Y. c #DCD6A3",
"T. c #E5DEA9",
"R. c #E7E0AB",
"E. c #ECE5AF",
"W. c #EEE7B0",
"Q. c #EFE8B1",
"!. c #F1EAB3",
"~. c #C5C6C6",
"^. c #D3D3D4",
"/. c #E4E4E4",
"(. c #F4F4F4",
"). c white",
/* pixels */
"z.x.z.x.x.z.x.z.z.z.x.x.z.x.x.x.x.x.x.x.x.n.b.x.b.b.n.n.x.x.x.x.x.x.x.x.x.x.x.x.x.x.x.x.v.v.x.x.x.x.x.x.x.x.x.x.x.z.v.x.",
"9.z.9.z.z.z.z.9.z.z.x.x.x.x.x.x.x.x.x.x.x.n.n.b.n.b.n.b.b.n.x.x.x.x.x.x.x.x.x.x.x.x.x.x.z.M.B.x.x.x.x.B.Z.x.x.x.x.x.x.x.",
"z.z.x.z.z.z.z.z.z.x.x.x.x.x.x.x.x.x.x.x.n.b.n.n.n.n.x.b.b.b.n.x.x.x.x.x.x.x.x.x.9.S.x.x.x.a.w.b.x.b.b.o.Z.x.x.x.x.x.x.x.",
"z.z.z.9.z.9.z.9.z.x.x.z.x.x.x.x.x.x.x.n.x.n.n.n.n.n.n.x.b.b.b.n.x.x.x.x.x.x.x.x.z.x.x.x.x.a.~ M.b.z.q.~ B.x.x.x.x.x.x.x.",
"x.9.x.x.z.x.9.l.9.z.z.z.z.z.z.z.x.z.z.x.x.b.x.x.b.b.b.x.n.n.n.x.x.x.x.x.9.S.9.S.n.n.S.9.9.c.E _ Z.m.! / B.x.x.x.x.x.x.x.",
"x.x.x.x.x.x.x.x.x.x.z.z.z.z.x.x.z.x.x.x.x.x.x.x.n.x.x.x.b.n.n.n.x.x.x.x.l.1.S f  . .,.s.b.M.E E [ ( T ( b.x.x.B.h.B.n.v.",
"x.x.x.x.x.x.x.x.x.x.x.x.x.x.z.z.x.x.x.x.x.z.x.x.x.x.x.x.x.n.n.x.S.9.k. .A =.2.k.3._ U i ` o.W ' ! ^ / / r.0.] ^ y.x.x.x.",
"x.9.x.9.x.x.9.x.z.z.x.z.z.x.z.S.z.x.x.x.x.S.x.x.x.x.x.x.x.n.b.x.z.2.f <.;.6.C g.g i.R W E Q W $.+.$.{ T Q T Q q.x.x.x.x.",
"l.9.9.z.x.z.x.z.z.S.9.9.9.z.S.A.f.c.b.x.9.S.n.n.x.b.S.d.*. . .2.S  .4.G S - 6 d 0 0 * i T | @.&.L.L.$.+.' W q.b.x.x.x.x.",
"S.9.z.z.z.z.z.z.z.z.9.9.S.A.A.N.c.d.c.b.n.x.n.n.n.n.p..           8 ;.p S f.b.b.v.b.5.i Y / &.L.L.L.L.$.E ' B.z.x.x.x.x.",
"z.x.z.x.z.z.9.z.9.9.z.S.A.C.b.S.l.l.8.f.b.f.3.X. .G 6 .               g x.x.x.x.b.Z.0./ ~ } t.L.L.L.L.%.' ! ' e.B.n.x.x.",
"z.x.z.z.9.z.z.z.9.9.S.S.N.b.l.8.8.d.2.g 9 = , , + O . O               ; v.x.x.b.w./ T T ^ { $.L.L.L.L.+.' W T Q ) y.B.x.",
"z.x.z.z.z.z.l.x.z.l.l.x.l.l.S.9.,.9 & w t z m b t w t t 3 w 3 3 > o   p x.b.b.b.m.r.q.#.) T | &.L.&.&.' T { #.y.m.V.n.x.",
"z.z.z.z.z.z.x.x.x.z.x.x.x.x.3.0 , 3 3 2 B ^./.^.F.k l l l l l l j r 2 # 2.b.z.z.x.x.z.x.0.W } / $.} ' { W m.9.9.z.v.x.x.",
"z.z.x.z.x.x.z.x.x.x.x.x.x.*.2 w 8 m L z L ^./.^.F.t l l k l l l l l l # o C N.b.x.x.x.B.) E ! ! / / ! ! T o.x.z.z.x.x.x.",
"z.x.z.z.x.x.x.x.x.x.x.x.h : , r K.(.(.I B B J B M m z l l l l l l k l 3 # # 5 N.x.x.x.u.T / h.#.T ! r.w.~ ~ B.z.9.x.x.x.",
"x.x.x.x.x.x.x.x.x.x.v.g $ # J /.).).~.B B B B M B B B B z k k k l l l j $ 3 X 3 V.x.b.{ } Z.n.m.W ( b.x.c.[ 7.z.x.x.x.x.",
"x.x.x.x.x.x.x.x.x.x.A o $ F.(.).).^.B z M B B B B B B B B b z k j l j j > r $ # 8 C.b.h.B.x.x.B.) o.b.x.b.9.d.S.x.x.x.x.",
"x.x.x.x.x.x.z.x.z.X.  $ G.).).).^.m l M B B B M z n B B B B n l l j l j q j > ,   x S.x.x.x.v.z.#.w.b.x.z.b.x.x.x.x.x.x.",
"x.x.x.x.z.x.x.z.p.  o G.).).).^.J n B B B b e 3 t n n n B B B m l j l l j j q q # % 4.n.x.x.x.n.V.V.x.x.b.z.x.x.x.n.x.n.",
"x.x.x.x.z.x.x.n.8   L ).).).~.K M B B M t 2 t z k w t m B B B B b j j j l j r r 2 5 1 Z.z.z.z.x.b.x.x.x.x.x.x.x.x.x.x.x.",
"x.x.x.x.z.z.z.1.  w /.)./.G.B M B B m w e m l 3 r n B B B B B B M z j j j j j j w r X O.b.b.n.x.x.x.x.x.x.x.x.x.x.x.x.x.",
"x.x.x.x.z.z.x.4 o K ^.G.m m B B B M t z M t t b B B B B B B B B N H m z l l j u k k o < C.x.x.x.x.x.x.b.x.x.x.x.x.n.x.x.",
"x.x.x.x.x.x.j.  2 3 $ & n B B B B m z B z z B B B B B B B B B B M H M H b j l j k k @   4.x.x.x.x.x.x.x.x.x.x.x.x.x.x.x.",
"x.x.x.x.x.z...o 2   # n B B B B B M B B B B B B B B B B B B B B N M M H b j l l j j #   d n.z.z.x.x.n.z.n.n.z.x.x.x.x.x.",
"x.x.x.x.x.n.1 # X X l B B B B B B B B B B B B B B B B B B B B B H M H m j j j l l j #   * S.z.z.z.z.z.z.z.z.x.x.x.x.x.x.",
"x.x.x.x.x.M.#     w B B B B B B B B M B B B B B B B B B B B B B M H M b j l l l j t @   o k.z.z.9.z.z.z.z.n.x.x.x.x.x.x.",
"x.x.x.x.z.j.    # m B B B B B B B B B B B B B B B B B B B B B B M m z l j l l l r w o     4.x.z.z.z.z.z.9.n.x.x.x.x.x.x.",
"x.x.x.z.z.2.  X l B B B t M B B B B B B B B B B B B B B M n B B m l l l l t t l w , X     O.b.x.z.z.z.9.z.z.n.z.x.x.x.x.",
"v.x.z.z.x.,.  , B B z w & z B B B B M B B B B B B B B m 2 t B B b j l l l t e l 2 o       F x.x.n.n.z.n.n.z.n.z.x.x.x.x.",
"z.x.z.x.z.,.  t t & #     r B B B B B B B B B B B M z & X 2 r B b t j l l e 2 l >         F x.x.z.n.n.z.z.z.z.x.x.x.x.x.",
"x.z.x.x.x.1.o 2   X o     & M B B B B B B B B z q $ X       3 B m j l l l 3 , t $       . G x.x.x.x.z.n.z.9.S.x.x.x.x.x.",
"x.x.x.x.x.p.  o v H.J.Z   X a N B B B B B B t o     % ; % .   q m z k k l , & t o         :.v.x.n.x.x.x.x.x.x.x.x.x.x.x.",
"x.x.x.x.z.k.X ; Y.!.!.T.s   & M B B B B B l .   o F P.Y.P.G % o w n k k l & & 3           5.x.x.x.x.x.x.x.x.x.x.x.n.x.x.",
"x.b.x.x.x.N.# % I.!.!.!.J.$ X z B B B B B $   o ;.W.W.Q.!.P.s # o z z t t @ & %         # k.b.x.x.x.x.x.x.x.n.x.x.x.x.z.",
"x.x.x.x.b.b.d   6.!.!.W.!.F   q B B B B r     G E.Q.W.W.!.Y.0   2 k n a w   $ o         5 B.x.x.x.x.x.x.x.x.x.x.x.x.z.x.",
"x.x.x.x.x.v.-.  D Q.Q.Q.!.I.- o z B B z @   v R.Q.W.Q.Q.Q.R.0   k M z k >               D x.x.b.x.x.x.x.x.x.x.x.x.x.x.x.",
"x.x.x.x.9.9.f.X 8 R.Q.Q.!.!.G   # 3 t &   5 I.!.Q.Q.Q.W.Q.R.0 o n z k t o             X j.b.x.x.x.x.x.x.x.x.x.x.x.x.z.x.",
"x.x.x.z.9.9.z.f + J.Q.Q.Y.>.9 + .       o >.Q.Q.!.W.W.W.!.H.O - z k k 2               0 b.z.x.x.x.x.x.x.x.x.z.x.z.z.z.x.",
"x.x.9.9.9.9.9.p.  : G Z 5 X > n z r 2 2 # < Z 4.I.R.W.E.J.5 . e k k t @             . g.b.b.z.b.x.x.x.x.x.z.z.z.z.z.z.x.",
"9.9.9.9.z.z.z.b.Z       o # & z N B B B n , X X % 0 c s + X 2 l l t #               a z.z.x.n.x.z.n.z.z.z.z.x.x.x.x.n.z.",
"9.9.9.z.z.x.x.x.M.%     & r & @ 3 k n m m m l 3 # X   o $ r l t , o               # N.9.z.x.x.x.z.n.z.z.z.z.x.x.S.x.z.z.",
"l.z.x.x.x.x.x.x.x.p.X     o > , # o # w k l l l k t t t l t 2 #                   1.9.9.z.z.z.x.n.z.z.n.n.z.z.z.9.n.n.n.",
"x.z.x.x.x.x.x.x.x.x.*.        X # # o   @ , w j k t r 2 $ o                   . =.z.9.x.z.x.9.9.z.9.z.z.z.9.z.z.z.z.z.S.",
"x.x.x.x.x.x.x.b.x.x.b.Z                     X o # o X                         * j.z.z.z.n.n.z.9.9.9.z.9.z.x.x.x.z.z.n.n.",
"x.x.x.x.x.x.x.x.x.x.p.5                                             X o @ @ o o o 1 ,.x.z.z.z.z.z.9.9.9.z.x.x.x.n.z.n.z.",
"x.x.x.x.x.x.x.x.b.S X X , 2 X                                   o , e t t t t r w & . 6 c.z.n.z.9.9.z.9.x.x.x.x.x.x.x.x.",
"b.x.x.x.x.x.x.B.a   o 3 t j w $                               o 2 t l t k l l l l l w o 7 z.z.z.z.z.z.z.x.x.x.x.x.x.x.x.",
"x.x.x.b.x.x.x...  o t l l l l l q $ X                       o w l l l l l l l k l t e q X ,.x.x.x.x.z.z.b.x.x.x.x.x.n.x.",
"x.x.x.x.x.x.j.# & o $ & & & & & 2 r w 2 # o             o & # % & & & # & 2 r l l j w , $ 4 x.x.x.x.n.z.z.x.n.x.x.x.9.b.",
"x.x.x.x.x.x.C j I K M z z m n z 3 $ t l t t # o O =.5.u w D.K n z z m m z w % t j l j > $ O c.x.n.z.x.n.z.n.z.n.x.x.x.x.",
"x.x.x.x.x.b.2 z F.F.F.F.F.F.F.F.L & 3 t t l 2 o O c.x.6 l F.F.F.F.F.F.F.F.P , 2 t t l 3 o o c.b.z.b.x.x.b.z.b.z.x.x.x.x.",
"x.x.x.b.x.b.2 o t J I F.F.F.F.F.B & & - 2 w 2   - x.x.6 . e J D.F.F.F.F.F.J , $ * < w 5   % b.x.x.x.n.x.x.z.x.x.b.x.x.9.",
"x.x.x.x.x.x.3.o X w H L P P I L w . # . o o X - s.x.x.i.@ . q v L P I P P e X # o o X X % p.z.x.x.x.x.x.x.b.x.b.9.b.S.v.",
"x.x.x.x.x.x.x.f.X.a ; , , , 2 - + . + + 4 V 1.v.x.x.x.z.d.*.d y 4 , 2 7 5 = O O % y A 3.c.x.x.x.x.x.x.x.x.x.z.x.B.S.U.C.",
"x.x.x.x.x.x.x.x.x.x.v.c.f.s.f.c.f.f.f.c.x.x.x.x.x.x.x.x.z.b.n.x.c.f.f.f.f.f.f.f.c.b.z.x.x.x.x.x.x.x.x.x.x.x.B.Z.S.N.N.c.",
"x.x.x.b.x.x.x.x.x.x.x.x.x.x.x.x.z.x.x.x.x.x.x.x.b.x.x.z.9.S.9.z.z.x.b.z.x.x.x.x.x.x.x.x.x.x.x.x.x.x.x.x.b.c.b.M.c.v.l.l.",
"x.x.x.x.x.x.x.x.x.x.x.b.x.x.x.x.x.x.x.x.x.x.x.z.9.x.z.z.x.x.z.z.z.x.x.x.x.x.b.x.x.x.x.x.x.x.b.x.x.x.x.z.z.x.z.z.z.x.z.z.",
"x.x.x.x.b.x.x.x.x.x.x.x.b.x.x.x.x.x.x.x.b.b.z.x.z.z.z.b.x.x.x.z.x.b.b.z.x.x.x.x.x.b.x.x.x.x.x.x.x.x.x.x.x.x.n.x.x.x.x.x.",
"x.x.x.x.x.x.x.x.x.x.x.x.x.x.x.x.x.x.b.x.z.z.x.z.S.x.x.x.x.x.x.9.x.x.x.x.x.x.x.x.x.x.x.x.x.x.x.x.x.x.x.x.x.x.x.x.x.x.x.x."
};
