/* XPM */
static char *result[] = {
/* columns rows colors chars-per-pixel */
"60 56 178 2 ",
"   c #010101",
".  c #080807",
"X  c #070708",
"o  c #0C0C0C",
"O  c #100F0D",
"+  c #13120E",
"@  c #0F1010",
"#  c #141413",
"$  c #1B1A15",
"%  c #171718",
"&  c #1C1C1C",
"*  c #211E17",
"=  c #241D18",
"-  c #24211B",
";  c #2A251E",
":  c #1F1F20",
">  c #1F2020",
",  c #232324",
"<  c #282725",
"1  c #2E2A23",
"2  c #2B2B2C",
"3  c #322B22",
"4  c #3B2E20",
"5  c #3C3223",
"6  c #36322A",
"7  c #37342A",
"8  c #3D3A2E",
"9  c #2F2F30",
"0  c #333334",
"q  c #373738",
"w  c #3B3C3C",
"e  c #76281F",
"r  c #443A2B",
"t  c #423D35",
"y  c #5C3E33",
"u  c #782A21",
"i  c #4E432E",
"p  c #444234",
"a  c #4C4332",
"s  c #4D493B",
"d  c #554932",
"f  c #584E37",
"g  c #53503E",
"h  c #5D523C",
"j  c #62553D",
"k  c #675A3D",
"l  c #3F3F40",
"z  c #3F4041",
"x  c #414142",
"c  c #464748",
"v  c #4A4B4C",
"b  c #5B5845",
"n  c #4E4F50",
"m  c #4F5051",
"M  c #525355",
"N  c #565658",
"B  c #57585A",
"V  c #58595B",
"C  c #645843",
"Z  c #655C4A",
"A  c #64614A",
"S  c #6C644D",
"D  c #75664C",
"F  c #7A6848",
"G  c #746A56",
"H  c #776C5A",
"J  c #5C5E60",
"K  c #5F6061",
"L  c #646466",
"P  c #656668",
"I  c #67686A",
"U  c #6A6B6D",
"Y  c #7C7363",
"T  c #737476",
"R  c #7A7B7C",
"E  c #8C2C21",
"W  c #9C2E23",
"Q  c #9D3126",
"!  c #9F3428",
"~  c #A03629",
"^  c #A2392C",
"/  c #A63D31",
"(  c #A83F34",
")  c #89553F",
"_  c #9E523F",
"`  c #A64234",
"'  c #AB4539",
"]  c #AA493B",
"[  c #B04A3E",
"{  c #AD4F40",
"}  c #B34D42",
"|  c #AD5342",
" . c #B35546",
".. c #B9564B",
"X. c #B55F4D",
"o. c #BF5D53",
"O. c #87744E",
"+. c #8C744C",
"@. c #877656",
"#. c #BB6952",
"$. c #BB6B54",
"%. c #C05E54",
"&. c #C5655B",
"*. c #C3765B",
"=. c #C57B5C",
"-. c #CB6D63",
";. c #D2766C",
":. c #DA7F76",
">. c #9A865B",
",. c #A58B58",
"<. c #A5895C",
"1. c #A8905D",
"2. c #928E6C",
"3. c #999471",
"4. c #A78E63",
"5. c #AA9466",
"6. c #B39564",
"7. c #B99A65",
"8. c #B99E6F",
"9. c #A39E79",
"0. c #A6A17B",
"q. c #BEA471",
"w. c #E2B15F",
"e. c #EBB55F",
"r. c #CC8866",
"t. c #D18B67",
"y. c #D18F67",
"u. c #C39B69",
"i. c #D3946A",
"p. c #D79A6C",
"a. c #DB8278",
"s. c #C8A669",
"d. c #CAA56B",
"f. c #D2A966",
"g. c #DFB163",
"h. c #DDB26B",
"j. c #CBAA75",
"k. c #DCA975",
"l. c #DDB571",
"z. c #DEB87A",
"x. c #E4B464",
"c. c #ECB762",
"v. c #EDB965",
"b. c #E4B66B",
"n. c #E9B66D",
"m. c #E6B86D",
"M. c #EDBB69",
"N. c #F1BB69",
"B. c #E1AB74",
"V. c #E7B474",
"C. c #E6BB74",
"Z. c #EABB72",
"A. c #E6BE7A",
"S. c #EABF7A",
"D. c #E8C07E",
"F. c #7F8082",
"G. c #828385",
"H. c #878889",
"J. c #999A9A",
"K. c #BAB48A",
"L. c #A5A6A6",
"P. c #AFAFAF",
"I. c #AEAFB0",
"U. c #B7B7B7",
"Y. c #E48D84",
"T. c #C8C294",
"R. c #D5CF9E",
"E. c #DCD5A3",
"W. c #E2DCA7",
"Q. c #EAE3AD",
"!. c #EEE7B0",
"~. c #EFE8B1",
"^. c #F2EAB3",
"/. c #CBCBCB",
"(. c gray84",
"). c #E4E4E4",
"_. c #F4F4F4",
"`. c white",
/* pixels */
"c.v.v.v.c.v.v.e.c.v.v.v.v.v.v.v.v.v.v.N.N.v.N.v.v.N.N.N.N.N.v.v.v.v.v.v.v.M.v.v.v.v.v.v.v.v.v.Z.v.v.v.v.v.M.M.v.v.v.v.v.",
"e.c.e.e.e.e.e.e.c.c.v.v.v.v.v.v.v.v.v.N.N.v.v.D.v.N.N.N.v.N.N.v.v.v.v.v.v.v.v.v.v.M.v.v.v.v.N.=.M.v.v.v.M.y.v.v.v.v.v.v.",
"v.v.c.c.e.x.v.v.e.c.c.e.c.v.v.e.c.c.v.N.N.N.v.N.N.N.v.N.N.N.M.v.v.v.v.v.v.v.v.v.v.v.v.v.v.v.v.] i.v.v.v.#.*.M.v.v.v.v.M.",
"v.v.v.v.v.v.e.v.v.c.c.c.c.e.c.c.c.c.c.c.v.v.v.v.v.v.N.v.N.M.N.N.v.v.v.v.v.v.v.v.v.M.M.v.v.v.v.] ^ V.M.y.W r.v.v.v.v.v.v.",
"v.e.v.v.v.v.v.v.v.v.v.v.v.c.D.c.v.v.c.c.v.v.v.v.v.v.c.v.v.N.N.v.v.v.v.v.v.l.4.D h A ) >.l.m.v.] W | i.! W p.v.v.N.M.v.v.",
"v.v.v.v.v.v.v.e.c.c.v.v.v.e.e.e.v.v.v.c.N.v.N.v.v.v.v.c.v.M.N.v.v.v.v.l.F g @.5.l.j.$.E u ) u.] / ~ Q ( ~ p.N.Z.p.=.B.v.",
"c.c.v.e.v.v.v.v.v.c.e.e.c.D.D.D.g.m.D.e.v.N.N.N.v.v.v.v.N.v.D.v.v.M.1.h 8.3.3.S 0.b q._ Q Q Q Q ..%.' &.! ( ' ~ ~ t.M.v.",
"c.v.v.v.e.e.v.e.c.v.c.e.e.D.D.D.m.g.w.D.N.v.v.N.N.N.c.D.A 5 * 5 j i D K.S O.= 7 a 7 p - e ! ]  .%.a.a.-.' { ! ! i.v.v.v.",
"v.v.c.v.v.c.c.c.c.c.c.D.D.A.C.D.x.g.w.x.m.M.M.M.D.N.D.>.            $ S a O.l.v.v.v.v.8.y E / ;.Y.Y.Y.Y.:...~ y.c.v.v.v.",
"c.v.v.e.c.c.e.c.c.N.v.D.v.D.h.x.w.w.x.h.6.D f 5 3 + + o                 8 M.v.v.v.v.S.k.| ! ( -.Y.Y.Y.Y.;./ ~ r.M.M.v.v.",
"v.e.e.e.c.e.e.c.w.D.c.c.e.e.v.e.x.7.C , , 2 0 w p > # > & o o o X       * n.v.M.M.p.{ W W ~ %.;.Y.Y.Y.Y.:.&./ W ` i.Z.N.",
"e.v.v.v.v.v.v.v.e.c.v.c.e.e.D.7.r & 2 q q K J.L.F.n p z z w w w q 9 #   d v.v.v.M.B.y.*...` Q  .Y.Y.Y.Y.../ ~ ~ / ( X.n.",
"e.D.c.c.c.v.c.v.e.v.e.c.v.c.F > 0 6 w w 9 L.`.`._.G.w x x x x x x x l , % 7.v.v.v.v.v.v.M.p.! o...-.-.%.&.~ r.n.c.v.v.v.",
"e.e.c.c.c.c.c.e.v.v.D.c.g.i < < x J.(.(.L P H.J.G.N c x l x z z l x l l # X D Z.v.v.v.v.M.| Q ~ W } } W / ~ *.v.c.c.v.v.",
"e.D.e.v.v.v.v.D.v.v.v.s.- % $ T ).`.`.I.B B N B N B B M c x z z x l l l < % # t Z.v.v.v.k.! ! *.X.~ ~ X. .Q ^ Z.v.v.v.v.",
"c.c.e.v.v.v.v.v.v.v.f.* o 2 U.`.`.`./.L M B B B B B B B B M x z x l x l 0 & , X s Z.v.N.| ] k.N.B.W ~ V.v.=.~ y.v.v.v.v.",
"c.N.c.N.v.c.v.v.c.b.-   w /.`.`.`.U.v x M V V V V V V V V V M x x x x x l , 0 % @ S M.M.t.S.v.v.v.^ [ D.e.e.h.#.D.v.v.v.",
"v.c.N.c.v.v.v.v.M.d   w (.`.`.`.U.n m B V V B c z x M B V V V M x z x t l 9 w > >   4.M.v.v.v.v.v.[ t.D.c.D.e.N.e.v.v.v.",
"v.v.N.c.c.c.v.v.<.  0 (.`.`._.L.V B B V B z 2 2 x v z z M V V V n x x x z l l 2 2 @ = z.v.v.v.v.v.i.Z.v.c.N.v.N.c.v.v.v.",
"v.c.v.c.e.c.c.b.o X P.`.`.(.G.B V V V M 0 9 c v q 9 z M V V V V N v x x z z l q 9 9 , b N.v.v.v.v.v.v.v.N.c.v.v.v.v.v.v.",
"v.v.v.c.v.c.c.O.  w (./.F.N N B V V M q x M w 9 z M V V V V V V V N n x x z z z 9 l 9 @ z.M.v.v.v.v.v.v.v.v.v.v.v.v.v.v.",
"v.v.v.v.v.v.m.O # 0 , % w B B B V B c m B x c N J V V V V V V V V V V M c x z z l l 0   H M.v.v.v.v.v.v.v.v.v.v.v.v.v.v.",
"v.M.v.v.v.v.6.X 2 X X w V V B V V B N V N N V V V V V V V V V V V V V V N c z z l l 0   = Z.c.c.v.N.v.v.v.v.v.v.v.v.v.v.",
"v.v.v.v.v.v.h o #   0 N V V V V V V B V V V V V V V V V V V V V V V V V N c z z l l q X X j.c.c.e.e.v.e.c.v.v.N.v.v.v.v.",
"v.v.v.v.v.m.$     , N V V V V V V V B V V V V V V V V V V V V V V B V B n x z z x x 0 .   @.v.e.v.e.e.c.c.N.e.c.v.v.v.v.",
"v.v.v.v.v.l.X   @ m B B V V V V V V V V V V B V V V V V V V V V V V V M x x z z x z 2     a v.v.c.c.c.c.c.N.c.N.v.v.v.v.",
"v.v.v.c.v.s.    q V B B c B B B V B V V V V V V V V V V V V V B V B n x x x x l w q 2     < v.e.c.c.c.c.c.v.N.c.N.v.v.v.",
"v.c.v.c.v.7.  & B V m w , v V V V V V V V B V V V V V V M v N V V v l x x x l l w < &     $ D.v.v.v.N.v.v.v.v.v.v.v.v.v.",
"c.v.v.v.c.4.X w x , % X   q V V V V V B V V V V V V B n , 9 M V M z z l x x 0 z w % o     $ D.v.v.v.v.v.v.v.v.v.v.v.v.v.",
"v.c.v.v.v.4.o <           , V V V V V V V V V V N c w #   # , M M l x x z w , w q X       # m.e.v.v.v.v.v.v.v.v.v.N.v.v.",
"v.v.v.v.v.7.  o g 3.9.p   o v V V V V V B V N w % X         % M M c z p x w % w 2         $ D.v.v.v.v.N.v.v.v.v.v.v.v.v.",
"v.v.v.v.v.d.  6 E.^.^.R.6   < B V B V V V M 2     X 8 b p &   % n m z x x 0 @ w &       . 4 v.v.v.v.v.v.v.v.v.v.v.v.v.v.",
"v.v.v.v.v.l.X 1 E.^.~.^.0.o o n V V V V V 9     ; 9.W.^.Q.0.7 + - M w x x 2 o q o         p M.v.v.v.v.v.v.v.v.N.v.N.c.c.",
"v.v.v.M.v.Z.* + T.^.!.!.Q.p   q V B V V c o   ; K.!.~.~.^.R.g $ o w n z x % o 2           H v.v.v.v.v.v.v.v.v.v.v.c.v.c.",
"v.v.v.v.v.v.j   3.^.!.^.^.9.X & B V V B :   + 0.^.~.~.~.~.Q.s   , w n z w o o %         X j.v.M.v.v.v.v.v.v.v.v.v.v.v.v.",
"v.v.v.v.c.c.7.  Z !.!.!.~.Q.p   2 v M 0   o 2.^.~.~.~.~.~.Q.s   w B c x 2   X           < Z.v.v.v.v.v.v.v.v.v.v.v.v.c.c.",
"v.v.c.e.e.e.b.o 8 W.^.^.Q.K.p     X @   X Y !.~.~.~.~.~.~.Q.8 o n n z l #               G v.v.v.v.v.v.v.c.N.c.c.c.v.c.c.",
"v.v.e.e.e.e.c.O.  b 0.2.s + % z < # X   + 2.E.!.^.~.~.~.^.3.. , v l z 9               + C.v.v.v.v.v.N.v.c.c.c.c.e.v.v.v.",
"c.e.e.w.e.c.v.b.+       X X w B V M v c < o ; A 9.T.E.R.3.- o w l l w #               S c.v.M.v.v.v.N.c.c.c.c.c.v.v.v.v.",
"e.c.e.e.c.v.v.v.4.    X 9 2 @ , v N B V N l &   X + ; - o o 0 l z q #               $ m.c.v.v.v.v.v.v.c.c.c.e.D.N.v.v.v.",
"c.v.v.v.v.v.v.v.M.a     . & 2 % o < w c c v v q , % o % < w z w , o                 6.c.c.c.c.c.v.v.v.v.c.c.v.e.v.N.N.v.",
"v.v.v.v.v.v.v.v.v.m.#       o % % o o : 0 l x x x x l l l 0 > o                   O.c.c.c.v.c.c.c.e.e.c.c.c.e.e.v.v.M.N.",
"v.v.M.v.v.v.v.v.v.v.f.+           o     X # , 0 0 9 , % o                       C N.e.c.c.N.c.e.e.c.e.c.c.c.N.N.v.v.N.v.",
"v.v.v.v.v.v.v.v.v.v.M.j.+                           o o & : : : # o           C M.v.v.v.c.c.N.c.e.e.e.e.c.c.N.c.v.v.v.v.",
"v.v.v.v.M.v.v.v.v.v.v.v.h.-                       X < w x x x x x w 0 &     D M.c.c.N.c.c.c.c.v.e.e.e.c.v.v.v.M.v.v.v.v.",
"v.v.v.v.v.v.v.v.M.v.v.v.v.s.                    # 9 l l l l x l x x x w 2 X <.c.c.c.c.e.c.c.c.c.v.e.v.v.v.v.v.v.v.v.v.v.",
"v.M.v.v.v.v.v.v.v.v.v.v.M.a   X X             X 9 l l w w w t z x x x q 9 = # c.c.c.c.N.v.c.v.v.v.v.v.v.v.v.v.v.v.v.v.v.",
"v.v.v.v.v.v.v.v.v.v.v.v.d.% w & o X X X   o q , # # # # # % % , w x x w , ,   f.c.c.c.c.c.v.v.v.v.v.v.v.v.v.v.v.v.v.v.v.",
"v.v.M.v.v.v.v.v.v.v.v.v.k x G.T U P L J & 9 G.R U P L P P I N & 2 x x x 0 # X <.v.v.c.v.v.c.v.v.v.v.v.v.v.v.M.v.v.v.v.v.",
"v.v.v.v.v.v.v.v.v.v.v.v.3 w T G.G.G.G.G.< , U F.G.H.G.G.G.G.G.z % 9 q w w # . +.v.v.v.v.v.v.v.v.v.v.v.v.v.v.v.v.v.v.v.v.",
"v.v.v.v.M.v.v.v.v.v.M.v.j   & N R H.G.G.q   # v T G.G.G.G.H.P < @ % , & 9 . o f.v.v.v.v.v.v.v.v.M.v.v.v.v.M.v.v.v.v.v.v.",
"v.v.v.v.v.v.v.v.v.v.v.v.h.3 o , v V P U M +   & x B L P U U w   X X     . r u.v.v.v.v.v.v.v.v.v.v.v.v.v.v.v.c.N.e.M.Z.Z.",
"v.v.v.v.v.v.v.v.v.v.v.v.v.v.d.,.j 8 6 6 6 1 3 3 3 p 6 6 6 6 3 3 5 d O.1.f.v.v.v.v.M.v.v.v.v.v.v.v.v.v.v.N.c.c.v.Z.D.D.C.",
"v.v.v.v.v.v.v.v.v.v.v.v.v.v.v.v.v.v.v.M.v.v.v.v.v.v.M.v.c.M.v.v.v.v.e.v.e.v.v.v.v.v.v.v.v.v.v.v.c.v.v.v.c.M.Z.S.D.C.Z.b.",
"v.v.v.v.v.v.v.v.v.v.v.v.v.v.v.v.v.v.v.v.v.v.v.v.v.v.c.c.v.v.v.v.v.v.v.v.v.v.v.v.v.v.v.v.v.v.v.v.v.v.v.b.v.m.v.n.b.x.x.x.",
"M.v.v.v.M.v.v.v.v.v.v.v.v.v.v.v.v.v.v.v.v.v.v.c.c.v.v.v.v.v.v.v.v.v.v.v.v.v.v.v.v.v.v.v.v.v.v.v.v.v.v.v.v.c.v.v.v.c.v.v."
};
