/* XPM */
static char *result[] = {
/* columns rows colors chars-per-pixel */
"60 58 178 2 ",
"   c #010101",
".  c #080706",
"X  c #090907",
"o  c #0B0B0B",
"O  c #13120F",
"+  c #0F1010",
"@  c #131313",
"#  c #181612",
"$  c #1D1C15",
"%  c #171718",
"&  c #1B1C1C",
"*  c #211F1A",
"=  c #24221E",
"-  c #302A1F",
";  c #1F1F20",
":  c #1F2020",
">  c gray14",
",  c #292621",
"<  c #2D2A23",
"1  c #272728",
"2  c #2B2B2C",
"3  c #312D24",
"4  c #333126",
"5  c #36332A",
"6  c #3A352A",
"7  c #3C392C",
"8  c #2F2F30",
"9  c #2F3031",
"0  c #333334",
"q  c #373738",
"w  c #373839",
"e  c #3B3C3C",
"r  c #423B2B",
"t  c #493F2E",
"y  c #433E33",
"u  c #78541F",
"i  c #4E422D",
"p  c #464335",
"a  c #4C4637",
"s  c #544933",
"d  c #5E523B",
"f  c #7D5C2A",
"g  c #69593B",
"h  c #3F3F40",
"j  c #3F4041",
"k  c #414142",
"l  c #474748",
"z  c #474849",
"x  c #4A4B4C",
"c  c #5A5546",
"v  c #4E4F50",
"b  c #4F5052",
"n  c #525354",
"m  c #565758",
"M  c #57585A",
"N  c #58595B",
"B  c #675C45",
"V  c #665E51",
"C  c #68624C",
"Z  c #766343",
"A  c #75664A",
"S  c #7D6B4B",
"D  c #736D53",
"F  c #787459",
"G  c #5E5F60",
"H  c #636465",
"J  c #68696A",
"K  c #6E6F70",
"L  c #6F7072",
"P  c #737475",
"I  c #77787A",
"U  c #7C7D7E",
"Y  c #F05B28",
"T  c #F1632B",
"R  c #F26E2E",
"E  c #F37530",
"W  c #F47C32",
"Q  c #836E4A",
"!  c #88714B",
"~  c #897856",
"^  c #817A63",
"/  c #CA8F38",
"(  c #F58434",
")  c #F68F37",
"_  c #E19E3C",
"`  c #F79539",
"'  c #EFA73C",
"]  c #F0A73D",
"[  c #F9A43C",
"{  c #FAAC3E",
"}  c #9D845C",
"|  c #B58D4E",
" . c #A58B5B",
".. c #878264",
"X. c #8E8A6A",
"o. c #928D6B",
"O. c #94906E",
"+. c #9B936E",
"@. c #9A9474",
"#. c #9D9874",
"$. c #A78D61",
"%. c #AB9466",
"&. c #B59766",
"*. c #BB9B65",
"=. c #A99D75",
"-. c #A8A37C",
";. c #BEA070",
":. c #D29F52",
">. c #F7AB40",
",. c #FAAE40",
"<. c #FAB043",
"1. c #FAB34A",
"2. c #EAB55F",
"3. c #FAB753",
"4. c #FAB856",
"5. c #FABA5B",
"6. c #C39E61",
"7. c #C4A46E",
"8. c #CBA668",
"9. c #CBA66B",
"0. c #D2AC6A",
"q. c #DFB163",
"w. c #DDB36C",
"e. c #D2AD71",
"r. c #DCB371",
"t. c #DEBB75",
"y. c #E4B465",
"u. c #ECB762",
"i. c #EDB965",
"p. c #E4B66B",
"a. c #E6B86C",
"s. c #EDBB69",
"d. c #F8BD63",
"f. c #F1BC69",
"g. c #F9BF68",
"h. c #E1B671",
"j. c #E4BA74",
"k. c #EABC72",
"l. c #E6BE7A",
"z. c #EABF7A",
"x. c #F0BE70",
"c. c #F7C16D",
"v. c #F9C26E",
"b. c #EFC075",
"n. c #E7C07E",
"m. c #ECC17B",
"M. c #F5C374",
"N. c #F9C472",
"B. c #F2C57C",
"V. c #F9C77A",
"C. c #7D7E80",
"Z. c #828385",
"A. c #8B8C8D",
"S. c #9A9A9B",
"D. c #AEA981",
"F. c #B9B389",
"G. c #9FA0A0",
"H. c gray66",
"J. c #B7B7B8",
"K. c #C9C395",
"L. c #D0CA9A",
"P. c #D6D09F",
"I. c #F3C885",
"U. c #F5CA84",
"Y. c #F1C989",
"T. c #DDD7A4",
"R. c #E6D2A7",
"E. c #E8E1AC",
"W. c #EDE6B0",
"Q. c #EFE8B1",
"!. c #F2EBB3",
"~. c #C9C9CA",
"^. c #DADADA",
"/. c #DFE0E0",
"(. c gray88",
"). c #EBECEC",
"_. c gray96",
"`. c #FEFEFE",
/* pixels */
"u.2.u.u.u.u.u.u.2.u.u.c.i.i.i.i.i.i.i.i.u.i.i.i.b.u.i.b.u.c.i.i.i.i.i.i.s.i.u.i.i.i.i.i.i.i.i.i.s.s.i.i.i.I.i.i.i.i.i.i.",
"i.u.u.u.u.i.i.2.y.c.i.i.2.i.i.i.i.i.i.c.b.i.c.i.i.i.i.c.i.i.c.i.i.i.i.i.i.i.f.u.s.u.i.s.i.i.i.s.M.i.i.i.B.N.b.i.i.i.i.f.",
"u.u.u.u.2.u.2.i.2.u.i.2.i.i.i.i.i.i.i.b.i.c.i.u.c.i.i.i.i.i.i.i.i.i.i.i.i.s.i.s.s.u.i.i.i.i.i.f.<.B.i.i.5.v.k.i.i.i.i.i.",
"u.u.u.u.u.u.u.2.2.2.2.2.i.y.i.2.2.2.u.u.i.c.i.b.i.c.b.u.c.u.b.i.i.i.i.s.i.s.e.^ c c c ~ ;.k.i.s.<.5.B.M.{ v.i.i.i.i.i.i.",
"2.2.i.2.i.u.u.i.u.u.c.2.u.2.i.2.i.u.u.i.u.i.i.i.i.i.i.i.i.i.c.y.u.s.u.s.$.y B D -.#.=.| u d } h.<.,.3.<.{ V.s.b.Y.Y.U.i.",
"b.c.y.c.i.i.i.i.u.u.2.b.c.i.i.2.i.i.u.i.i.i.i.u.i.i.i.i.i.c.b.i.s.u.p.d S =.#.O.X.@.+.t._ ' / / >.) { ` [ d.M.5.1.U.U.f.",
"2.2.i.2.i.y.i.u.2.2.u.u.2.2.i.b.y.i.c.i.b.i.c.i.i.i.2.i.9.! g S }  .a =...o.3 4 < 5 6 5 f >.<.[ [ E W R [ { { { N.x.i.i.",
"2.u.i.2.i.i.u.i.b.u.2.2.2.b.m.n.t.y.y.i.2.i.c.i.i.s.c.t.X   . X     O F ! > %.h.i.i.a.;.B u ] ` R T Y Y R ( { v.i.i.i.i.",
"c.u.u.u.i.u.u.u.u.u.u.2.b.b.n.t.y.q.h.a.s.0.&.Q g a p -                 o e.i.i.i.i.s.f.B.:.] [ R Y Y Y T ` <.M.M.s.i.i.",
"y.2.y.c.i.2.u.u.u.u.u.b.n.n.t.b.y.y.8.Q r = = 1 2 %   X @                 7.i.i.i.i.B.v.,.{ [ ( T Y Y Y T W [ <.5.I.Y.s.",
"u.u.2.2.u.u.u.u.2.b.t.b.b.w.q.b.6.d < 2 w j N J G j w e e 0 9 2 2 > o   . e.i.i.i.i.B.N.g.5.1.,.W Y Y Y W [ ,.1.1.4.V.M.",
"u.u.u.2.u.2.y.u.y.y.y.2.y.2.q.Z 5 0 9 1 : P )._.).G.j j k k k k k h e 1 o $.i.i.i.i.i.i.i.i.v.` ( ` R ) ( [ f.u.i.i.i.i.",
"u.c.i.u.i.i.i.i.i.u.i.i.i.0.r 9 8 y U H.N P J.^.~.Z.k k k h k k h k k k >   A k.i.i.i.i.i.x.4.,.<.{ ) { { { 5.u.i.i.i.i.",
"2.y.u.i.y.u.i.i.y.c.i.2.6.7 = 1 P ^.`.).P m N G N m n x l h k h k h h k w o + y j.s.i.i.i.B.,.4.V.3.{ 4.M.1.<.I.u.u.i.i.",
"2.i.2.2.u.i.i.i.i.i.i.6.- O w J.`.`.`.H.M M N N N N N N m x k k k k k h h % 1   < j.i.i.i.d.V.z.i.v.{ M.i.s.5.v.s.i.i.i.",
"i.i.c.y.i.i.i.i.i.i.6.O X n /._.`.`.H.l z m N N N N N N M M n l h k h k h > 8 % @ 7 j.i.i.f.d.i.i.B.,.I.i.i.i.U.z.i.i.i.",
"i.i.i.i.i.i.i.i.u.p.O   m ).`.`.`.S.e l N m N N m v b G N N N n k k k h k 9 q : > . A s.i.i.i.i.i.s.c.b.i.i.i.i.i.i.i.i.",
"i.i.i.i.i.i.i.i.a.i   n ).`.`._.S.n m N m N v 0 8 h v v v N m G v k k k h e h 8 8 @ @ 7.i.i.i.i.i.i.B.c.i.i.i.s.i.i.i.s.",
"i.i.f.2.u.i.i.i. .  e (.`.`./.A.M N N N n 0 1 h x h 8 h b m m N N x k h k k k q w ; > 2 s.i.i.i.i.i.i.i.i.i.i.i.i.i.i.i.",
"i.i.f.u.u.u.i.a.@ . H.`._.H.J M N N N v 8 j n h 2 q v N G m G N N N x h y k k h h > e + o.i.i.i.i.i.i.i.i.i.i.i.i.i.i.i.",
"u.i.i.u.u.u.2.}   2 S.S.m z M N N N n w v n q q x G G m m G m m N N N v z k k h h e h @ * k.i.i.i.i.i.i.i.i.i.i.i.i.i.s.",
"i.i.i.i.u.2.s.* @ 2 . . j N M M N M x n N l v N G m m G m N G N N N N N m z h k h h h &   7.i.i.i.i.i.i.i.i.i.i.i.i.i.i.",
"i.i.i.i.u.f.9.. 1 . . e N N N N N M M N m N N N m m m m m G m m N N N N m n k k h h h &   C f.i.i.i.i.i.i.i.i.i.i.i.i.i.",
"i.i.f.i.u.u.~ . @   8 N N M N M N N N N N N N N n G G m m m m G N N N N N x h k h h j ;   * i.2.i.s.i.i.i.i.s.i.i.i.i.i.",
"i.i.i.i.i.s.y     & n N N N N N N N N N N N m N G m G m m m G m N N N N n k h k h j j &   X w.2.2.2.i.5.2.c.2.y.i.i.i.i.",
"i.i.i.i.i.s.*   o z N N M N N N N N N m N N N N G m m m G m m m N N M v k h k h h e e @     8.2.2.2.i.2.c.2.2.c.i.i.i.i.",
"i.i.i.u.u.h.o   2 N M M z z N N N N N N N N N N n G m m G m m G N N x k k k k h p 0 2 o     %.2.i.5.2.i.2.2.2.c.i.i.s.i.",
"i.i.i.u.u.w.. o b M n 0 : 0 N N N m N N N N N N G n m G n h x m N b k h k k e e j 0 & X     } i.i.i.2.2.u.2.b.2.i.i.i.i.",
"i.u.i.u.i.r.. 9 h & + .   ; N m N N N N N N N N N N N b ; + h v N z k k k k 0 0 j 1 o       } i.2.2.i.i.c.2.2.u.i.i.i.i.",
"u.i.u.u.u.r.o > . . O .   o z N N N m N N N N N v e 8 @   . o h N z h k k k 9 1 j :         } y.u.b.i.2.2.b.2.c.i.i.i.i.",
"i.u.i.i.i.r.o   p -.K.X.@   2 m N N N N N m m e @             2 m v j k k k 1 > e +          .i.u.c.b.2.u.y.2.b.i.i.i.i.",
"i.s.i.i.s.k.@ . F.!.!.!.^   o v N N N N N N q .   . a ....C %   > n z j k k & > w X       . *.i.i.i.2.c.u.c.2.2.i.i.i.i.",
"i.u.s.i.s.s.7   -.!.Q.Q.R.7   0 M M M M M j .   O X.E.!.!.!.F 5 . 9 b j k e @ > >         . w.s.i.i.i.i.i.i.i.i.i.i.s.i.",
"i.s.i.i.i.i.S   ^ !.Q.Q.!.#.. % m M G M m %   o O.!.Q.Q.Q.!.=.< . % x z k 0 . > @         @ i.i.i.i.i.i.i.i.i.i.i.i.i.2.",
"i.i.i.i.i.i.*.  a E.W.Q.Q.T.5 . l M N N w     F W.!.Q.Q.Q.!.F.o o j z z e >   %           d i.i.i.i.i.i.i.s.i.i.i.i.i.u.",
"i.i.i.i.i.i.p.o > P.Q.Q.Q.!.#.. @ e v j +   c R.Q.Q.Q.Q.Q.Q.F.. & M b j e @               &.i.i.s.i.i.i.i.i.i.i.i.i.i.i.",
"s.i.i.s.2.2.2.Z . D.!.!.W.K.D o     . .   p T.!.Q.Q.W.Q.Q.!.#.. 0 b j j 2 .             @ a.i.s.i.i.i.i.u.s.i.s.i.i.i.i.",
"i.i.u.2.2.2.2.0.. < o.O.c $ o w h > + o . p -.T.!.!.!.!.!.P.5 . j k k e @               ! s.i.i.i.i.i.i.s.i.u.u.2.2.2.2.",
"i.u.2.2.2.2.2.2.Z       . . = n N M n v e + X 4 D -.K.L.-.a   1 j k k 1               O a.s.i.i.i.i.s.i.u.u.y.u.2.2.d.s.",
"2.2.2.2.2.u.u.i.r.@     & w % @ e n m M M b 0 @     O @ o X 1 h k j > .                .u.u.s.i.i.s.u.u.2.u.i.i.c.i.s.u.",
"2.2.2.2.u.s.i.i.s.&.      @ 1 > o % 9 h l l z k 0 1 & & 1 w k e 1 o                 s 2.2.d.i.i.f.u.i.u.2.u.i.i.i.i.i.i.",
"u.u.u.s.i.i.i.i.u.u.g         @ & @ . @ 1 w h k k k k k h w 1 + .                 @ a.u.2.u.u.u.u.d.i.f.u.u.u.u.i.f.f.f.",
"s.u.s.u.i.u.i.i.s.i.s.p           . .     . & 2 0 0 1 : @ .                     o 9.2.u.d.2.u.2.u.2.2.u.2.u.u.i.i.i.f.i.",
"i.s.i.i.i.s.i.i.i.i.i.s.p                                 + & : > & & @ .     + 0.i.2.d.u.f.2.2.2.2.u.2.d.u.i.i.i.i.f.i.",
"i.s.u.i.i.i.i.i.i.i.i.i.s.<                           . : w h k j k k e w 1 o # a.i.s.u.s.s.i.i.2.2.u.2.u.i.i.i.i.i.i.i.",
"i.i.i.i.s.i.i.i.i.i.i.i.r.#                         . 1 h h h h h k k k k h 0 o s u.s.s.u.u.u.2.2.2.2.u.u.i.i.i.i.i.s.i.",
"i.i.s.i.i.i.i.i.s.i.i.s.<   % 1 +                   1 e h h j j e k k k h e 9 2   8.u.2.u.u.u.u.u.u.u.i.i.i.i.i.i.i.i.i.",
"i.i.i.i.i.i.i.i.i.i.s.} & 0 & % @ . . .         0 > % % % @ @ @ % & e k h h 2 = + S i.u.u.u.u.s.i.i.i.i.i.i.s.i.i.i.i.i.",
"i.i.i.i.i.i.i.i.i.i.s., m Z.P J H H H H b 9 . % I C.K H H H J J M 1 & k k e e % O t 2.u.u.u.i.i.i.i.i.i.i.u.f.i.i.i.i.i.",
"i.i.i.i.i.i.i.i.i.i.p.O x U Z.Z.Z.Z.Z.Z.Z.I : & K Z.Z.Z.Z.Z.Z.Z.Z.G @ 0 e e k & . - u.u.u.i.i.i.s.i.i.i.i.i.i.i.i.i.i.i.",
"i.i.i.i.i.i.i.i.i.i.y.# . 0 H U Z.Z.Z.Z.Z.M &   @ z L Z.Z.Z.C.Z.I j @ & & : 0 &   Q i.i.i.i.i.i.i.i.f.i.i.i.i.i.i.i.i.i.",
"i.i.i.s.i.i.s.i.i.i.s.*.O o 9 m H L P P K 1       % k V K K P P N @   o . .   o ! s.i.i.i.i.i.i.i.i.i.u.i.i.i.i.i.i.i.i.",
"i.i.i.i.i.i.i.i.i.i.i.i.w. .s 3 , = , , = @ @ # * 7 i = , = - = = @ @ * 3 Z  .q.i.i.i.i.i.i.i.i.i.i.i.i.s.i.i.i.u.f.k.a.",
"i.i.i.i.i.i.i.i.i.i.i.s.i.s.u.s.s.y.s.a.i.i.i.i.i.s.s.u.i.i.s.s.u.y.i.i.u.u.i.i.i.i.s.i.i.i.s.i.i.i.i.i.u.f.u.f.k.z.n.z.",
"i.i.i.i.i.s.i.i.i.i.i.i.i.i.i.i.i.i.i.i.i.i.i.i.i.i.s.u.u.s.i.i.i.i.i.i.i.i.i.i.u.s.i.i.i.i.s.u.i.i.i.i.i.f.s.z.z.l.j.p.",
"i.s.i.i.i.i.i.i.i.i.i.i.i.i.s.i.i.i.i.i.i.i.i.i.i.i.u.u.u.s.i.u.i.i.i.i.i.i.i.i.i.i.i.i.i.i.i.i.i.i.u.s.s.a.a.a.a.y.y.y.",
"i.i.i.i.i.i.i.s.i.i.i.i.i.i.i.i.i.i.i.i.i.i.s.u.i.u.i.u.s.i.i.i.i.i.i.i.i.i.i.i.i.i.i.i.u.s.i.i.i.i.i.i.i.u.u.i.u.i.u.u.",
"i.i.i.i.i.i.i.i.i.i.i.i.i.i.i.i.i.i.i.i.i.i.u.i.u.i.u.s.u.s.i.i.i.i.i.s.i.i.i.i.i.i.s.i.s.u.i.i.i.i.i.i.i.i.i.i.i.i.i.i."
};
