/* XPM */
static char *result[] = {
/* columns rows colors chars-per-pixel */
"60 56 174 2 ",
"   c #010101",
".  c #080807",
"X  c #0C0C0C",
"o  c #110F0C",
"O  c #13120E",
"+  c #141413",
"@  c #191713",
"#  c #1C1A14",
"$  c #171718",
"%  c #1B1B1B",
"&  c #211D14",
"*  c #211E1A",
"=  c #24221E",
"-  c #2A261E",
";  c #1F2020",
":  c #232323",
">  c #292621",
",  c #2E2B24",
"<  c #272728",
"1  c #2B2C2C",
"2  c #342E24",
"3  c #332F28",
"4  c #333127",
"5  c #3E3627",
"6  c #36322C",
"7  c #3E3B2E",
"8  c #2F2F30",
"9  c #333334",
"0  c #3E3A32",
"q  c #363738",
"w  c #373839",
"e  c #3B3C3D",
"r  c #483E2B",
"t  c #443E34",
"y  c #4C412D",
"u  c #5A482B",
"i  c #4B4335",
"p  c #4A4539",
"a  c #554A36",
"s  c #5B4D35",
"d  c #58513C",
"f  c #67502C",
"g  c #6B5636",
"h  c #62533B",
"j  c #3F3F40",
"k  c #3F4041",
"l  c #414142",
"z  c #464748",
"x  c #4A4B4C",
"c  c #534D41",
"v  c #5B5745",
"b  c #4E4F50",
"n  c #4F5051",
"m  c #535355",
"M  c #565758",
"N  c #57585A",
"B  c #58595B",
"V  c #675C44",
"C  c #65624B",
"Z  c #6C664D",
"A  c #736244",
"S  c #7A6B4B",
"D  c #786D55",
"F  c #7A765A",
"G  c #626364",
"H  c #676869",
"J  c #696A6B",
"K  c #6E6F70",
"L  c #6F7070",
"P  c #767779",
"I  c #865D22",
"U  c #F05B28",
"Y  c #F1622A",
"T  c #F26D2D",
"R  c #F3712F",
"E  c #F47C32",
"W  c #89744C",
"Q  c #937A4F",
"!  c #887757",
"~  c #857B6A",
"^  c #CA8F37",
"/  c #D4973C",
"(  c #F58534",
")  c #F79438",
"_  c #F89B3A",
"`  c #EBA43C",
"'  c #F9A33C",
"]  c #F4AA3E",
"[  c #FAAC3E",
"{  c #FCB03E",
"}  c #9C855C",
"|  c #A78A59",
" . c #B89456",
".. c #8B8366",
"X. c #888268",
"o. c #9B8C67",
"O. c #95916F",
"+. c #9F966E",
"@. c #9D9974",
"#. c #AE9262",
"$. c #AA9169",
"%. c #B39564",
"&. c #BA9A66",
"*. c #BB9B68",
"=. c #BEA06E",
"-. c #A7A27C",
";. c #B8A575",
":. c #DAA554",
">. c #FAAE41",
",. c #FAB144",
"<. c #FAB34A",
"1. c #E2B15F",
"2. c #EAB55F",
"3. c #FAB651",
"4. c #FAB857",
"5. c #FABA5B",
"6. c #C9A66B",
"7. c #D5AC64",
"8. c #D5AD6D",
"9. c #DFB163",
"0. c #DDB26D",
"q. c #C6A874",
"w. c #D5AE71",
"e. c #DDB372",
"r. c #D9B576",
"t. c #E4B465",
"y. c #ECB762",
"u. c #EDB965",
"i. c #E4B66A",
"p. c #E9B768",
"a. c #E6B96D",
"s. c #EDBB69",
"d. c #F9BE64",
"f. c #F0BB68",
"g. c #F9BF68",
"h. c #E2B671",
"j. c #E5BA74",
"k. c #EBBD72",
"l. c #E6BE7A",
"z. c #EABF7A",
"x. c #F3BF70",
"c. c #F8C16C",
"v. c #EFC176",
"b. c #E7C07E",
"n. c #F1C175",
"m. c #F9C574",
"M. c #F2C47B",
"N. c #F8C679",
"B. c #7E7F81",
"V. c #7F8082",
"C. c #828385",
"Z. c #949495",
"A. c #B8AB85",
"S. c #BAB48A",
"D. c #A5A5A5",
"F. c #B2B2B2",
"G. c #BABBBB",
"H. c #CEC898",
"J. c #D3CD9D",
"K. c #F2C682",
"L. c #F5C983",
"P. c #F5CB88",
"I. c #F0C98C",
"U. c #DBD4A2",
"Y. c #E4D9A8",
"T. c #EBE5AE",
"R. c #EEE7B1",
"E. c #EFE8B1",
"W. c #F2EAB3",
"Q. c #C9CACA",
"!. c #D7D8D8",
"~. c #E2E2E2",
"^. c gray96",
"/. c #FEFEFE",
/* pixels */
"y.u.u.u.y.u.u.2.y.c.2.9.y.u.u.u.u.u.u.c.u.c.u.v.u.u.c.a.u.u.u.u.u.u.u.u.u.s.u.u.u.u.u.u.u.u.u.u.L.s.u.u.u.v.p.u.u.u.u.u.",
"2.y.2.2.2.2.2.2.2.u.y.c.u.u.u.u.u.u.u.u.u.a.u.u.u.c.u.u.c.u.v.u.u.u.u.u.u.u.u.u.u.u.u.u.u.u.u.u.m.v.u.u.v.m.P.u.u.u.u.u.",
"u.u.y.y.y.y.u.y.2.y.2.2.y.y.y.y.y.y.u.u.u.c.u.c.u.c.a.c.c.u.u.u.u.u.u.s.u.u.u.u.s.f.s.u.u.u.u.u.<.L.u.u.m.5.M.u.u.u.f.u.",
"u.u.u.u.p.y.y.y.y.y.y.1.y.y.u.u.y.y.t.u.u.y.y.u.u.u.y.u.u.u.c.u.u.u.u.u.u.a.=.F c c c Z $.j.u.s.,.3.M.M.{ c.v.u.u.u.u.u.",
"u.u.u.u.u.u.u.u.c.1.c.c.c.2.u.u.u.u.2.u.u.u.a.y.u.y.y.y.u.u.u.u.u.u.u.a.} 0 V o.;.q.;. .I f ! r.,.[ 4.,.[ c.s.u.K.I.M.u.",
"y.u.u.2.y.y.u.u.y.y.1.y.1.2.v.u.t.a.c.u.u.a.u.u.c.u.u.y.a.v.v.a.u.u.0.a Z r.o.+.Z @.F r./ ] ^ ^ ] ) [ _ ' c.M.c.3.g.K.u.",
"y.y.u.u.u.u.y.u.c.1.y.u.2.c.v.b.9.a.u.u.u.c.c.c.i.u.c.y.| 4 & & r h - +...Z 6 4 0 p 6 , u ` { ' ' E E T _ [ { [ d.z.u.u.",
"y.y.y.u.y.u.y.2.y.y.y.2.0.l.b.b.a.9.a.a.u.u.u.a.e.w.r.6.&   . .     X 7 V 4 6.a.s.p.s.w.! g ` ) R Y U Y R ( [ c.x.u.u.u.",
"y.u.y.u.u.2.y.y.y.2.2.j.b.b.0.b.9.9.1.0.#.A i 2 = X                       q.u.u.u.u.u.v.M.:.` _ T U U U Y _ ,.M.x.u.u.u.",
"u.y.y.y.y.y.y.y.y.c.j.j.v.a.u.9.1.6.g 4 : 1 q e k 9 % % 1 $ X X X .       #.u.u.u.u.L.d.,.[ ' ( T U U U Y E ' ,.5.P.I.u.",
"2.1.y.2.2.2.y.y.a.i.a.y.t.t.t.7.g 1 1 q 8 z D.G.F.P k l l e e k j 9 ; .   w.y.s.u.u.M.L.N.c.3.>.E Y U U E ' >.,.,.3.L.u.",
"y.c.1.c.y.t.c.u.u.y.u.u.u.y.| y q 9 l B e H ~./.^.G.z l l l l l l l k w + i j.y.u.u.u.u.u.s.c.' ( ) T ) ( >.f.y.u.u.u.u.",
"y.y.y.y.v.1.u.u.y.u.t.y.c.S , ; 9 Z.!.^.Z.N L V.V.G b k l i e k j l j l 1   > w.u.u.u.u.u.M.<.[ ,.>.) ,.>.[ g.y.y.y.u.u.",
"1.c.2.1.2.2.u.u.u.u.c.y.g @ $ G !././.!.J N M M N N N N b z k k l l l l e O % $ q.u.u.u.u.N.>.g.L.4.>.5.n.<.,.L.y.u.u.u.",
"y.c.1.c.u.u.u.u.u.t.t.y . ; D./././.~.L b m B B N N B B N m n k l j j l t % : X @ q.u.u.f.g.P.n.p.c.[ M.u.v.5.m.x.u.u.u.",
"c.1.c.1.u.u.u.u.y.c.s . ; G./././.!.N w b N B B N N N N B N M b l j l j l < 9 % % = r.u.u.u.u.u.u.N.<.L.u.u.u.L.x.u.u.u.",
"u.u.u.u.u.u.u.u.u.Q   < Q./././.Q.G x B B B N x w e b M M B B M z j j l l 9 j < < . t l.u.u.u.u.u.n.c.M.u.u.u.u.u.s.u.u.",
"u.u.u.y.y.y.u.u.6.  % G././.^.F.H B B B B z 1 1 k x j j x B B B N l l j j j l 8 9 + + $.u.u.u.u.u.u.n.u.u.u.u.u.u.u.u.u.",
"u.u.u.y.u.y.u.s.y   C././.Q.V.N N N B N w 8 x b q 8 j n B B B B B m k j l j l w q ; 8 ; j.y.u.u.u.u.u.u.u.u.u.u.u.u.u.u.",
"u.u.u.d.2.2.2.&.  % Z.F.L x N B B N N e j M l 1 j n B B B B B B N N m x j l l j j 8 e X o.u.u.u.u.u.u.u.s.u.u.u.u.u.u.u.",
"u.u.u.y.y.y.u.a . 8 + X q M N B B B x x B x z m B B B B M B B B B N B N b l l k j j j X ; k.u.u.u.u.u.u.u.u.u.u.u.u.u.u.",
"u.u.u.u.u.s.e.X : O   9 B B N N B B N B N N B B B B B B B B B B B B B B N b j l l j j +   q.u.d.u.u.u.u.u.u.u.u.u.u.u.u.",
"u.f.u.u.u.u.%.  +   1 N B B B B N B B N N B B B B B B B B B B B B B B B N b k k l l j +   S u.2.u.f.u.u.u.u.s.u.u.u.f.u.",
"u.u.u.u.u.u.A     $ m N B B B B B B B B B B N B B B B M B B B B B N B N m z j j j l e o   3 2.2.2.2.u.u.u.u.u.u.u.u.u.u.",
"u.u.u.u.u.s.5   . z B B M B B B B B B N B B B B B B B B M B B B N B B N x j t j k k e X   @ u.2.2.5.2.2.u.2.u.u.u.u.u.u.",
"u.u.u.u.u.a.+   8 B B B z x B B B B B B B B B B B B B B B B B B N N n k j k l l k 9 9 .   . e.u.y.y.d.2.2.c.u.u.s.u.u.u.",
"u.u.y.y.y.i.. + n B n 9 = 8 N B B N B B B B B B B B B B M z m B N b j p k j j k l 1 :       0.u.u.u.2.2.2.u.u.u.u.u.u.u.",
"u.u.u.y.y.e.X 1 w $ X .   % N N B B B B B B B B B B B M 8 ; b M N z j k k l q q l : @       8.u.u.u.u.u.c.u.u.u.u.u.u.u.",
"u.u.u.u.p.e.X %   O % .   . b B B B B N B B B B m z q %   . $ x N l l l k l < 9 k $         8.u.u.u.u.u.u.u.u.u.u.u.u.u.",
"y.u.u.u.u.j.X . C S.J.O.+   8 B B B B B B B N e +           . l B z l l l k : 9 e .         e.u.u.u.u.u.u.u.u.u.u.u.u.u.",
"u.u.u.u.u.a.$ O H.E.W.W.F   O b B N B B B B 1 .   . 7 C v 4   X l m l l k e $ 8 1         . u.u.u.u.u.u.u.u.u.u.u.u.u.u.",
"u.u.u.u.u.s.r . A.W.W.W.U.6   e B B B B B e     @ O.T.W.R.J.p = X x x l l q . 9 %         ; u.u.u.u.u.u.u.u.u.u.u.u.u.u.",
"u.u.u.u.u.u.S   ..W.E.E.W.O.  ; B B B B n +   + -.W.W.R.E.E.F -   1 m l l < . 1 .         s u.u.u.u.u.u.u.u.s.u.u.u.u.y.",
"u.u.u.u.u.u.*.  d T.E.R.W.U., . x N B B <   . O.W.R.R.R.R.W.F . % e x z j % . %           #.u.u.u.u.u.s.u.u.u.u.u.u.p.y.",
"u.u.u.u.u.u.p.o , Y.E.E.R.R.X.  $ w x q X   X.T.W.R.R.E.R.W.X.  1 N x l q .             . a.u.s.u.u.u.u.u.u.u.u.u.u.u.u.",
"u.u.u.u.2.y.2.A X -.W.R.U.-.p X     .     D T.R.R.E.E.E.R.R.C   z n l l %               s u.u.u.u.u.u.u.u.u.u.u.u.u.2.u.",
"u.u.y.2.2.2.2.6.  $ C v , . % x k < $ X . v S.R.W.W.E.W.W.S.@ @ z l l q X               8.u.u.u.u.u.u.u.u.u.u.u.2.d.u.2.",
"u.u.2.2.1.y.2.y.A       X X = m N N m m q X X 0 F A.H.H.@., . 9 l l k %               a u.u.u.u.u.u.u.u.y.y.y.y.2.y.f.u.",
"u.2.2.2.2.y.y.u.h.@     ; w + + q b M M M x < X   . @ # . X 1 l l q %               . t.u.u.u.u.u.u.u.y.y.u.u.u.u.u.u.u.",
"2.2.2.2.y.u.u.u.u.%.      X : ; X + 1 e z x x l 9 : % ; 1 w k e : X                 | u.2.u.u.u.u.u.u.y.2.y.u.u.u.u.u.u.",
"y.u.u.u.u.u.u.s.u.u.A         X % X . + : q k l l l k j j 9 : X                   h 2.2.y.2.u.y.u.u.u.d.u.2.u.2.u.f.f.f.",
"u.u.u.u.u.u.u.u.u.u.a.i           .       X % < 8 < ; $ X                       a 2.2.y.d.y.2.2.2.y.2.2.2.u.2.u.u.u.f.f.",
"u.u.u.u.u.u.u.u.u.u.u.s.d                         . X + + + + X               s y.y.y.d.u.u.2.2.2.2.y.2.u.u.u.u.u.u.u.u.",
"u.u.u.u.u.u.u.u.u.u.u.u.f.W                     o 8 j j l l j e 9 : .       A u.u.u.u.u.u.u.u.d.2.2.2.2.2.u.u.u.u.u.u.u.",
"u.u.u.u.u.u.u.u.u.u.u.u.u.u.*.+               $ 9 j l l k k k l k l q X   Q u.u.u.y.u.u.u.y.y.u.y.2.2.2.y.u.u.u.u.u.u.u.",
"u.u.s.u.u.u.u.u.u.u.s.u.u.u.u.>             $ j l l j j j k l k k e 9 9 . %.u.u.y.y.y.y.2.y.y.y.2.y.u.d.u.s.u.u.u.u.u.u.",
"u.u.u.u.u.u.u.u.u.u.u.u.u.u.&.$ : X     $ : + $ $ $ $ $ $ ; q p l l 1 : $ r y.y.y.y.u.y.y.u.u.u.u.u.u.u.u.u.u.u.u.u.f.u.",
"u.u.u.u.u.s.u.u.u.u.u.u.u.u.r m B.J x X N P H N n n M M b 1 $ e l l l % $ * y.y.y.y.y.y.u.y.u.u.u.u.u.u.u.u.u.u.u.u.u.u.",
"u.u.u.u.u.u.u.u.u.u.s.u.u.p.# M B.C.G o B B.C.C.C.C.C.C.C.L $ 1 w w l < . @ y.y.u.y.u.y.y.y.u.s.u.u.u.u.u.f.u.u.u.u.u.u.",
"u.u.u.u.u.u.u.u.u.u.u.u.u.s.& . w J G . X t K V.C.B.C.C.V.M % ; ; : 9 >   a u.u.u.u.u.u.u.s.u.u.u.u.u.u.u.u.u.u.u.u.u.u.",
"u.u.s.u.u.u.s.u.u.u.u.u.u.u. .X X 9 B 8   O j G L P P ~ J ; . O . . . . s u.u.y.u.u.u.u.u.y.s.u.u.u.u.u.u.y.u.u.u.u.u.y.",
"u.u.u.u.u.u.u.u.u.u.u.u.u.u.s.i.| V 5 - & @ * % 2 3 6 r > # O O > y Q 7.u.u.u.u.u.u.u.u.u.u.u.u.u.u.u.u.u.f.y.f.y.s.k.j.",
"s.u.u.u.u.u.u.u.u.s.u.u.s.u.u.u.u.u.u.u.u.u.u.u.u.p.u.y.u.u.u.u.u.u.u.u.y.u.u.u.u.u.u.u.u.u.u.u.u.u.u.u.u.u.u.u.k.z.b.l.",
"u.u.u.u.u.u.u.u.u.u.u.u.u.u.u.u.u.u.s.u.u.u.u.u.u.u.u.u.u.u.u.u.u.u.u.u.u.u.u.u.f.u.u.u.u.s.u.u.u.u.u.u.f.u.k.z.l.l.j.i.",
"u.u.u.u.u.u.u.s.u.u.u.u.u.u.u.u.u.u.u.u.u.u.u.u.u.u.y.y.y.u.u.u.u.u.u.u.u.u.u.u.u.u.u.u.u.u.u.u.u.u.u.u.p.p.p.p.t.p.t.t.",
"u.u.u.u.u.u.u.u.u.u.u.u.u.u.u.u.u.u.u.u.u.u.u.y.u.u.p.u.u.u.u.u.u.u.u.s.u.u.u.u.u.u.u.u.u.u.u.u.u.u.u.p.u.u.y.u.y.u.u.u."
};
