/* XPM */
static char *result[] = {
/* columns rows colors chars-per-pixel */
"60 57 174 2 ",
"   c #010101",
".  c #080806",
"X  c #070708",
"o  c #0C0C0B",
"O  c #13110E",
"+  c #0E0F10",
"@  c gray8",
"#  c #181714",
"$  c #1C1A15",
"%  c #171718",
"&  c #1B1B1B",
"*  c #211E19",
"=  c #24211C",
"-  c #29261E",
";  c #2A291F",
":  c #1F2020",
">  c #232424",
",  c #282623",
"<  c #2E2B22",
"1  c #272728",
"2  c #2B2B2C",
"3  c #322D24",
"4  c #312E28",
"5  c #363125",
"6  c #3C3426",
"7  c #35322B",
"8  c #3A342B",
"9  c #3D392E",
"0  c #2F2F30",
"q  c #2F3030",
"w  c #333334",
"e  c #3D3931",
"r  c #373738",
"t  c #3B3B3C",
"y  c #522A1F",
"u  c #463B29",
"i  c #433B2C",
"p  c #593628",
"a  c #413D32",
"s  c #6B2820",
"d  c #4D412E",
"f  c #484335",
"g  c #564C35",
"h  c #53513E",
"j  c #5E5038",
"k  c #734735",
"l  c #6A5A3E",
"z  c #3F3F40",
"x  c #414142",
"c  c #464748",
"v  c #474849",
"b  c #4A4A4C",
"n  c #534D42",
"m  c #5C5847",
"M  c #4E4F50",
"N  c #4F5052",
"B  c #525355",
"V  c #565758",
"C  c #57585A",
"Z  c #58595B",
"A  c #675E46",
"S  c #796646",
"D  c #7D6B4A",
"F  c #6F6650",
"G  c #766A51",
"H  c #787459",
"J  c #5E5F61",
"K  c #5F6062",
"L  c #656668",
"P  c #676869",
"I  c #6E6E70",
"U  c #717274",
"Y  c #7A7B7C",
"T  c #932F23",
"R  c #9C2E23",
"E  c #9C3226",
"W  c #94392B",
"Q  c #A03629",
"!  c #A33A2E",
"~  c #A53E31",
"^  c #A83F33",
"/  c #904A37",
"(  c #A64234",
")  c #AA4636",
"_  c #A9493B",
"`  c #AF523F",
"'  c #B34D42",
"]  c #AF5342",
"[  c #B35746",
"{  c #B6574A",
"}  c #BE5C51",
"|  c #8A734C",
" . c #927A4E",
".. c #927C54",
"X. c #AF6E56",
"o. c #BC6D57",
"O. c #C05F54",
"+. c #C6665C",
"@. c #C4795A",
"#. c #CC6E64",
"$. c #D3776D",
"%. c #D77C72",
"&. c #9A8259",
"*. c #A58B5D",
"=. c #A88C5B",
"-. c #B1925C",
";. c #8A8566",
":. c #8F8866",
">. c #9C8662",
",. c #96916F",
"<. c #A78E64",
"1. c #AA8F62",
"2. c #AF9669",
"3. c #B39463",
"4. c #BA9B67",
"5. c #AD9873",
"6. c #A7A27C",
"7. c #EAB55F",
"8. c #CA8463",
"9. c #CD8A67",
"0. c #DA866C",
"q. c #D4976C",
"w. c #D79C6E",
"e. c #C4A26A",
"r. c #C9A56B",
"t. c #CCA76B",
"y. c #D7AD6A",
"u. c #DBB26F",
"i. c #C7A677",
"p. c #DBA273",
"a. c #D4AE71",
"s. c #D9B475",
"d. c #E3B363",
"f. c #ECB762",
"g. c #EDB965",
"h. c #E4B66B",
"j. c #E9B76A",
"k. c #E6B96D",
"l. c #EDBB69",
"z. c #F1BB69",
"x. c #E2AE76",
"c. c #E3B474",
"v. c #E8B674",
"b. c #E6BB72",
"n. c #EABC73",
"m. c #E5B579",
"M. c #E7BE7B",
"N. c #EABD7A",
"B. c #EBC07B",
"V. c #7E7F81",
"C. c #7F8082",
"Z. c #838485",
"A. c #858688",
"S. c #8A8A8B",
"D. c #929292",
"F. c #B1A889",
"G. c #B9B489",
"H. c #BFB98E",
"J. c #E58E85",
"K. c #C0BB8F",
"L. c #CBC596",
"P. c #D2CC9C",
"I. c #DCD5A3",
"U. c #E6D4A8",
"Y. c #E8E1AC",
"T. c #EEE7B0",
"R. c #F2EBB3",
"E. c #CACACB",
"W. c gray84",
"Q. c gainsboro",
"!. c #E4E4E4",
"~. c gray93",
"^. c #F3F3F3",
"/. c #FEFEFE",
/* pixels */
"f.f.f.f.f.g.f.f.f.g.g.g.g.g.g.g.g.g.g.g.g.z.l.z.l.z.z.g.z.l.g.g.g.g.g.g.g.g.g.g.g.g.g.g.g.g.g.n.g.g.g.g.g.f.l.f.g.g.g.g.",
"f.f.f.g.f.f.f.f.f.g.g.g.g.g.g.g.g.g.g.g.z.l.z.l.z.l.z.g.z.z.l.l.g.g.g.g.7.B.g.g.g.g.f.z.g.g.g.w.l.g.g.g.l.x.f.l.g.g.g.g.",
"f.f.f.f.7.f.f.7.7.f.g.g.g.g.g.g.g.g.g.g.z.z.g.l.l.z.z.z.g.z.z.g.g.g.g.g.g.g.g.g.z.f.g.z.g.g.g._ m.g.g.f.0.o.z.g.z.g.g.g.",
"g.g.f.f.d.f.f.f.f.7.7.7.7.7.g.7.g.g.g.g.g.g.g.g.g.l.g.g.z.l.z.l.g.g.g.g.g.g.g.g.f.z.f.f.g.g.l.( _ n.g.c.E 9.g.g.g.g.g.g.",
"7.7.7.7.f.f.g.f.g.g.f.g.g.g.f.f.g.g.g.f.g.f.g.g.g.g.g.g.g.z.z.g.B.7.7.f.g.g.c.e.-.3.e.s.B.7.g.) R 8.m.) R q.g.g.g.g.g.g.",
"f.B.7.B.f.g.g.g.g.g.f.g.g.g.g.B.f.g.g.g.g.g.l.l.g.g.g.g.g.z.z.z.g.g.B.7.t.D g F ;.*./ s k -.l.` E E ^ Q E p.g.g.v.c.m.g.",
"f.f.g.f.f.f.g.g.g.f.f.7.7.g.B.b.d.d.k.g.g.l.l.l.g.g.g.g.g.g.l.g.g.g.u.S &.H G.;.P.:.i.) R T W E ' ' E { Q o.@.[ ( [ n.g.",
"f.g.f.f.g.g.g.7.f.f.f.7.g.B.M.M.k.d.k.g.g.g.l.l.g.g.g.g.y.-.:.-.t.3.l ;.,.,.h < f ; G p T E ( ( ' $.#.#.! E E R { l.z.g.",
"g.f.g.g.g.g.f.g.7.7.g.g.b.M.M.b.y.d.d.k.f.B.f.B.l.l.B.e..           a F.j 5 | r.a.a.>.f y T ' $.%.J.J.%.#.} E { n.g.l.f.",
"f.g.f.f.g.7.7.7.g.g.k.b.M.b.b.k.7.d.d.d.g.u.-.&. .H F ; .             O d u.g.g.g.g.g.N.X.T Q #.J.J.J.J.$.^ E x.f.g.g.g.",
"f.f.f.f.7.f.7.7.f.k.k.k.k.d.g.d.7.d.4.D 9 = : 1 ; + . . o               5 l.g.g.g.N.w.] E E O.%.J.J.J.J.0.O.! ( 8.n.l.g.",
"f.f.f.f.7.g.g.g.d.d.g.g.d.g.f.7.=.d * q r v J J h r w t r 1 2 > > @     i g.g.g.l.@.) ! E E ^ { J.J.J.J.+.' ~ T R ^ 8.n.",
"g.f.f.f.f.g.g.g.g.g.g.g.g.f.y.g , q q 1 > D.~.~.W.I a x x x x x x z 2 + 4 b.g.g.l.l.n.v.x.@.T } $.%.%.%.O.E _ @.8.9.p.f.",
"f.f.7.g.f.g.g.g.g.g.g.g.f.-.a w 2 b S.D.N S.E.Q.E.I z x x x x x z x x r o , a.l.f.g.g.g.l.8.Q ' ! O.} ^ { Q %.f.7.f.g.g.",
"g.g.g.g.f.g.g.g.g.g.g.g.&.; : 2 D.~./.W.K C J J C B N v x z x z z x z z * o & e.g.g.g.g.N.^ R ~ ! ^ ^ Q Q R ] l.f.f.z.g.",
"g.g.g.g.g.g.g.g.g.g.g.D O o V W././.^.A.V Z Z Z Z Z Z C N c z x x x z z 0 % & + 4.l.g.g.8.R { m.9.Q Q w.w.^ Q x.z.f.g.g.",
"f.z.f.f.g.g.g.g.f.g. .O o U ^././.^.S.c M V Z Z Z Z Z Z Z Z v x z z x x r & 2 o # i.g.k.' 9.B.g.B.R ( B.B.k.) o.z.g.g.g.",
"z.f.z.f.g.g.g.f.g.3.  o S.^././.^.Y t v Z Z Z Z N N Z Z Z Z Z b z z z x t 2 r & % * s.g.l.z.l.g.7.( O.B.7.g.g.w.B.g.g.g.",
"f.z.f.z.f.f.g.g.u.O o S./././.!.Z.N Z Z Z Z v q q v N N V Z Z Z c z z x z t t 1 1   m B.g.g.g.g.B.@.p.f.f.f.g.g.7.g.g.g.",
"g.g.z.f.f.7.f.f.l   P ^././.E.U V Z Z Z b 2 2 x b t w x V Z Z Z B c z z z x z w q & & 5.z.g.g.g.7.y.B.f.z.g.g.z.g.g.g.g.",
"7.g.g.g.f.f.f.r.  & W./.Q.D.K Z Z Z Z c 2 c N t 2 t N Z V Z Z Z Z N c z z z z z q q 1 4 B.g.g.g.f.f.f.f.g.g.g.g.g.g.g.g.",
"g.g.g.g.f.g.g.g   c S.U x M Z Z Z Z c t N b w x B Z Z Z Z Z Z Z Z Z B c x z z x r t q X 5.g.g.g.f.z.g.z.g.g.z.f.g.g.g.g.",
"g.g.g.g.g.g.y.. > >   & N Z Z Z Z V b Z B b B Z Z Z Z Z Z Z Z Z Z Z Z Z M x z x x x w   e B.g.g.g.g.g.g.g.g.g.g.g.g.g.g.",
"g.g.g.g.g.g.&.o >   @ b Z Z Z Z Z V Z Z Z Z Z Z Z Z Z Z Z Z V Z Z Z Z Z Z v x z x x r   + s.f.f.f.f.g.g.g.g.g.g.z.g.g.g.",
"g.g.7.g.g.7.d o X o c Z Z Z Z V Z Z Z Z Z Z Z Z Z Z Z Z Z Z Z Z Z Z Z Z B c z x x x w .   2.f.f.f.g.z.7.z.z.7.z.g.g.g.7.",
"g.g.7.B.g.B.#     w Z Z Z Z Z Z Z Z Z Z Z Z Z Z Z Z Z Z Z Z Z Z Z Z Z Z M z x z z x w     A f.7.f.f.7.7.7.f.g.g.g.g.g.B.",
"g.g.g.7.f.a.    & V Z Z V Z V Z Z Z Z Z Z Z Z Z Z Z Z Z Z Z Z Z Z Z Z M z z z x z t 2     e g.7.g.7.7.7.7.g.g.g.g.g.g.z.",
"g.g.g.g.f.e.  . c Z Z B t B Z Z Z Z Z Z Z Z Z Z Z Z Z Z Z Z Z Z Z B c z z z z x t w >     ; B.g.g.g.g.g.z.g.g.g.g.g.g.g.",
"g.g.f.g.g.3.  2 Z M x 1 @ v Z Z Z Z Z Z Z Z Z Z Z Z Z Z v t Z Z V c a x x x r z z > @     $ n.z.g.g.g.g.f.g.g.g.g.g.g.g.",
"f.f.g.g.f.1.. t 2 o X     q Z Z Z V Z Z Z Z Z Z Z Z Z x + q v V B x x z x x 2 t t @ .     # k.g.g.g.g.g.z.f.g.g.g.f.g.g.",
"g.g.g.g.g.3.o @   $ *     % B Z Z Z Z Z Z Z Z Z b w > X   X & V B z z x z t > t w .       $ B.g.g.g.g.g.g.g.g.g.g.z.g.g.",
"g.g.g.g.g.4.  # ;.L.P.H .   x Z V Z Z Z Z Z b 1 X           o x V c x x x t & r 2       . ; g.g.g.g.z.g.g.g.g.g.g.g.g.g.",
"g.g.g.g.g.a.  8 Y.R.R.Y.h   & Z Z Z Z Z Z N @     , H ,.H f X o x N z z x q @ r &         7 l.l.g.g.z.g.g.g.g.g.g.g.g.f.",
"g.g.g.g.g.b.o - I.T.T.R.K.O o b Z Z Z Z Z >     f L.R.R.R.L.f $ @ N v f x 1 o w o         n g.g.g.g.g.g.g.g.g.g.g.g.f.f.",
"g.g.g.g.g.k.- o H.R.T.R.R.m   w Z Z Z Z x     9 P.R.R.R.T.I.h O o r N x x & o 2           >.g.g.g.g.g.g.g.g.g.g.z.f.f.g.",
"g.g.g.g.f.f.D   ;.T.T.T.R.G.O % B Z Z B %   < L.R.T.T.T.T.T.h   q x N x r o o o         o s.g.g.g.g.g.g.g.g.z.g.g.g.g.f.",
"g.g.f.f.f.7.r.  A R.T.T.R.T.m   & t c >   $ G.R.T.T.R.T.R.T.h   x C c x :               7 l.l.g.g.g.g.g.f.z.f.g.f.f.7.f.",
"g.g.7.7.7.7.k.& ; L.R.T.I.,.< X         o 6.R.R.T.R.T.T.R.I.7 + N c z t +               <.g.g.g.g.g.g.g.f.f.f.f.f.f.z.f.",
"g.7.7.7.7.f.7.&.  9 H m < X > b t > @ + O F G.U.R.R.R.R.T.H o 1 c z x 2               $ l.g.g.g.g.g.B.f.f.f.f.f.g.f.z.g.",
"f.7.7.7.7.f.f.b.&       @ o q B Z Z B N w o o 8 H 6.H.G.G o O t z x r o               <.f.g.g.g.g.g.7.f.f.f.g.g.z.f.f.g.",
"7.7.g.g.g.g.g.g.e.    . 2 w @ @ z B B V V b 2 o     O o   % r x z 2 o               3 f.f.f.f.f.g.g.g.f.f.f.g.f.g.g.l.g.",
"f.g.g.g.g.g.g.g.g.D       @ 1 & o & w z c v c z 2 > & > w z z w & o               X y.f.f.7.f.f.f.7.g.g.f.7.f.f.g.g.z.l.",
"g.g.g.g.g.g.g.g.g.k.6       . @ & o . @ 2 r z x x x x t r 2 % .                   =.g.f.g.g.f.7.7.f.f.f.7.f.g.g.g.g.g.g.",
"g.g.g.g.g.g.g.g.g.g.h.$           .       o & 2 2 1 & + X                       ..g.g.g.g.z.f.f.7.7.7.7.f.g.g.g.g.g.g.g.",
"g.g.g.g.g.g.g.g.g.g.g.u.&                           . @ : 1 1 > & @ o         ..z.f.z.f.7.f.g.f.7.7.7.7.g.g.g.g.g.g.g.g.",
"g.g.g.g.g.g.g.l.g.g.g.g.b.7                       o 2 z x x x x x x w > .   ..g.f.f.f.f.f.f.g.f.7.7.g.g.f.g.g.g.g.g.g.g.",
"g.g.l.g.g.g.g.g.g.g.g.g.g.t.                    % r z x x x z x x x x t 0 X  .f.f.f.f.f.f.f.g.7.g.f.g.g.g.g.g.g.g.g.g.g.",
"g.g.g.g.g.z.g.g.g.g.g.g.k.7   X .             X 4 r t r r r t x x x x w 0 > @ f.f.f.f.f.f.f.g.z.g.g.g.g.g.g.g.g.g.g.g.l.",
"g.g.g.g.g.g.g.g.g.g.g.g.e.& x 1 @ o o .   o x 2 & @ @ @ % @ @ : t x z z > > . r.f.f.f.f.f.l.g.l.g.g.g.z.f.g.g.g.g.g.g.g.",
"l.g.l.g.g.g.g.g.g.g.g.g.l v A.Y U I I P > w Z.V.U P I I I I K : 2 x x c w @ . =.g.f.f.f.f.f.g.g.f.z.g.g.g.g.g.g.g.g.g.g.",
"g.g.g.g.z.g.l.g.g.l.g.g.* 2 I Z.Z.Z.Z.Z.2 & P V.Z.Z.Z.Z.Z.Z.C.v @ 2 w r a O   *.g.l.g.g.l.g.g.g.g.f.l.f.z.f.g.g.g.g.g.g.",
"g.g.g.g.g.g.g.g.g.g.g.g.l   & B U A.Z.Z.t   @ c U Z.Z.Z.Z.Z.P 1 @ & & & 4 . . y.g.g.g.g.g.f.g.g.f.z.f.z.f.g.g.g.f.l.l.l.",
"g.g.g.g.g.g.g.g.z.g.g.g.h.u o > c V L P V o   & a V J L P P t   .       X i t.f.f.g.l.g.g.g.g.g.f.l.g.g.g.g.f.z.l.n.N.b.",
"g.l.g.g.g.g.g.g.g.g.g.g.g.g.y.-.A a 7 8 8 4 3 3 4 a e 7 8 8 5 6 u l | -.y.f.g.g.z.g.g.g.l.g.g.g.f.g.g.g.z.g.l.l.M.M.M.h.",
"z.g.g.g.g.l.g.g.g.g.l.g.g.g.g.g.f.z.g.g.g.g.g.g.g.g.f.g.f.g.g.7.g.g.g.z.g.f.g.g.f.g.g.z.g.g.g.g.g.g.g.g.g.l.l.b.l.k.h.d.",
"g.g.g.g.g.g.g.g.g.g.g.g.g.g.g.g.g.g.g.g.g.g.g.g.g.f.g.f.g.g.g.g.g.g.g.g.g.z.g.g.g.g.g.g.g.g.l.g.g.g.f.g.h.l.h.j.h.f.h.g.",
"g.g.g.g.g.g.g.g.g.g.g.g.l.g.g.g.g.g.g.g.g.g.g.g.g.f.g.g.g.g.g.g.g.g.g.g.g.g.g.g.g.g.g.g.g.g.g.g.g.g.g.g.f.g.f.f.g.g.g.f."
};
