/* XPM */
static char *result[] = {
/* columns rows colors chars-per-pixel */
"60 58 170 2 ",
"   c #010101",
".  c #080706",
"X  c #090907",
"o  c #070708",
"O  c #0C0B0B",
"+  c #100F0D",
"@  c #11100D",
"#  c #151514",
"$  c #1C1A15",
"%  c #1B1B1B",
"&  c #25221C",
"*  c #2A251C",
"=  c #1F1F20",
"-  c #232323",
";  c #2D2A22",
":  c #272728",
">  c #272828",
",  c #2B2B2C",
"<  c #332E25",
"1  c #363024",
"2  c #3B3323",
"3  c #36332B",
"4  c #3A352C",
"5  c #3E3C2E",
"6  c #2F2F30",
"7  c #333334",
"8  c #373738",
"9  c #373839",
"0  c #3C3C3D",
"q  c #70261D",
"w  c #443C2C",
"e  c #463D33",
"r  c #50452F",
"t  c #494335",
"y  c #4B453A",
"u  c #554B38",
"i  c #5D513C",
"p  c #635339",
"a  c #3F3F40",
"s  c #414142",
"d  c #464748",
"f  c #474849",
"g  c #4B4B4D",
"h  c #4E4F51",
"j  c #4F5052",
"k  c #535455",
"l  c #565759",
"z  c #57585A",
"x  c #58595B",
"c  c #645B48",
"v  c #725E40",
"b  c #655E51",
"n  c #65624B",
"m  c #6D654E",
"M  c #766648",
"N  c #6C6554",
"B  c #777358",
"V  c #7B775B",
"C  c #7D795D",
"Z  c #626365",
"A  c #6A6A6B",
"S  c #777779",
"D  c #862B21",
"F  c #9C2F23",
"G  c #953226",
"H  c #9E3226",
"J  c #A1362A",
"K  c #A3392D",
"L  c #A53D30",
"P  c #A83F34",
"I  c #A64234",
"U  c #AC4539",
"Y  c #845942",
"T  c #B34D42",
"R  c #AD5242",
"E  c #B35445",
"W  c #B9564B",
"Q  c #B25B49",
"!  c #BC5B4E",
"~  c #BF5D52",
"^  c #826D4A",
"/  c #86714B",
"(  c #8A734B",
")  c #91784E",
"_  c #8B7952",
"`  c #947D54",
"'  c #BB694E",
"]  c #BA6D59",
"[  c #B97359",
"{  c #827C63",
"}  c #C05F54",
"|  c #C26157",
" . c #C37A5C",
".. c #CB6D63",
"X. c #C87662",
"o. c #D2766C",
"O. c #D87D73",
"+. c #978054",
"@. c #9C8459",
"#. c #A28759",
"$. c #B3935D",
"%. c #8A8264",
"&. c #968A6A",
"*. c #9C9477",
"=. c #AC9367",
"-. c #BB9B68",
";. c #B09972",
":. c #BFA16B",
">. c #A9A47D",
",. c #BAA677",
"<. c #C8815F",
"1. c #E4B25E",
"2. c #EAB45F",
"3. c #CB8866",
"4. c #CE8B65",
"5. c #C79F69",
"6. c #D2936B",
"7. c #D69A6E",
"8. c #DB8178",
"9. c #C6A36A",
"0. c #CAA66C",
"q. c #CEA96A",
"w. c #D3AC6C",
"e. c #DFB163",
"r. c #DBB26D",
"t. c #CDAA72",
"y. c #DBA474",
"u. c #D5AE71",
"i. c #DBA77C",
"p. c #D9B172",
"a. c #E4B464",
"s. c #ECB762",
"d. c #EDB965",
"f. c #E4B66B",
"g. c #E6B86D",
"h. c #EEBB69",
"j. c #F1BB68",
"k. c #E1AD76",
"l. c #E5B474",
"z. c #E8B675",
"x. c #E6BA73",
"c. c #EBBC73",
"v. c #E6B57A",
"b. c #EABE7A",
"n. c #E7C07E",
"m. c #EBC17D",
"M. c #7E7F81",
"N. c #7F8082",
"B. c #828384",
"V. c #88898A",
"C. c #929292",
"Z. c #B4AA85",
"A. c #BBB68B",
"S. c #A3A4A5",
"D. c #B3B3B4",
"F. c gray73",
"G. c #E58E85",
"H. c #C3B58C",
"J. c #CEC899",
"K. c #D4CE9D",
"L. c #E9C080",
"P. c #DDD7A4",
"I. c #ECE5AF",
"U. c #EFE8B1",
"Y. c #F2EBB3",
"T. c #C6C6C6",
"R. c #D5D5D5",
"E. c #E9E9E9",
"W. c gray95",
"Q. c #FEFEFE",
/* pixels */
"s.2.s.s.s.s.s.s.s.s.d.d.d.d.d.d.d.d.d.d.d.j.j.j.j.j.j.h.d.h.d.d.d.d.d.d.d.h.d.d.d.d.d.d.d.d.d.d.v.d.d.d.d.h.h.h.h.d.d.d.",
"d.s.s.s.s.d.d.2.s.d.d.d.d.d.d.d.d.d.d.d.d.j.j.j.j.j.h.j.j.h.h.d.d.d.d.d.h.s.s.h.h.d.d.d.d.d.d.d. .c.d.d.d.h.6.d.d.d.d.d.",
"s.s.s.s.d.2.2.2.s.s.d.d.d.d.d.d.d.d.d.m.j.j.j.d.j.j.h.d.j.h.j.d.h.d.d.d.d.d.d.d.d.d.d.d.d.d.d.d.! <.h.d.d. ...d.d.d.d.d.",
"s.s.s.s.s.s.s.d.2.s.s.s.d.d.s.s.s.s.s.d.d.j.d.j.d.j.j.j.h.j.j.d.d.d.d.d.d.d.d.d.d.h.h.d.d.d.d.d.' K f.d.7.H 6.h.d.d.d.d.",
"d.d.d.d.s.s.s.s.d.s.d.s.d.2.s.2.s.s.s.d.s.s.d.d.d.d.d.h.j.j.d.j.d.d.d.d.d.d.x.=.c y y v Y 9.c.h.' F E 7.K F y.s.s.h.s.h.",
"d.s.d.d.d.d.d.d.d.d.d.d.d.d.d.s.d.d.d.s.d.d.d.s.d.d.d.d.d.h.j.d.d.d.d.d.g.@.t _ =.,.,.-.G q Y 5.Q K K J K H l.h.h.z.y.v.",
"s.d.s.d.d.s.d.s.s.s.s.s.d.s.m.s.d.m.s.d.d.d.m.j.d.d.d.d.d.d.h.c.g.h.d.p.u _ A.%.&.V %.&.[ F H G H U W K } J Q R I K 3.h.",
"m.a.s.d.s.d.s.d.s.s.s.s.d.d.n.n.a.a.d.d.d.h.d.j.d.d.h.j.h.q.1 @ O & u $ *.&.m ; 3 3 5 3 < q H U U ! O.o...K K H J 4.s.d.",
"2.s.s.s.s.d.s.s.s.s.s.2.m.n.n.g.f.e.f.g.m.2.h.h.m.g.w.w.w.5 .           5 M 4 -.c.d.h.x.-.y D P o.8.G.G.O.o.W J 3.d.d.d.",
"2.2.d.s.s.s.s.s.s.s.2.m.n.n.n.s.a.e.1.f.d.9./ r 1 * # X X X                 0.d.s.d.d.j.z.[ G J | G.G.G.G...J I z.s.d.d.",
"d.s.s.d.s.s.s.s.2.m.m.m.n.a.g.a.1.e.r.` 2 = , 9 5 s 0 - % > % + + o o       :.d.d.d.l.[ L H K ~ 8.G.G.G.G.O.! K I 7.h.d.",
"s.s.s.s.s.s.s.s.1.s.1.1.s.a.a.s.a.@.& > 7 7 6 S F.F.C.h s s s 0 0 9 7 = o   p.h.d.h.7.] R P K J E G.G.G.G.} U K F F R i.",
"s.d.d.s.d.d.d.d.s.s.d.d.d.d.d.a.p > 7 7 g l 9 S.W.Q.E.A 0 a s a s s s a 6 # m g.d.d.d.d.h.z.7.H } ..O.o.o.E H Q  .4.6.y.",
"s.s.s.d.s.d.s.d.d.s.d.d.d.d.w.5 & - k F.W.R.Z Z S V.S h d s a s s a a s s >   e v.d.d.d.d.h.X.H U J } E K T H l.s.j.d.h.",
"s.s.s.s.s.s.m.s.d.d.d.s.d.q.1 # : C.W.Q.Q.S.x z z z z z z h d a a s s a s 9 # # 5 p.d.d.s.L.P F U I I K P J H <.s.s.h.s.",
"d.d.d.d.d.d.2.2.d.d.d.d.e.* X 7 T.Q.Q.Q.F.k l z z z x x x x z d s s a s a a % >   e m.d.s. .J ] b.3.F J k.4.J U j.d.s.j.",
"d.j.s.s.h.s.j.s.d.d.d.d.1   0 R.Q.Q.Q.D.s s k z z z l z z z x z g s a a s a - 6 # # b c.h.! i.m.h.k.F E m.d.y.I g.j.d.d.",
"d.s.j.s.s.s.s.j.s.s.s.^   8 R.Q.Q.Q.D.g l z z z l g y f z z z x z d a s a s 6 0 = = o ,.h.h.h.s.s.c.K 3.j.d.d.c.q.d.d.d.",
"d.d.j.s.s.d.j.s.d.d.0.  $ T.Q.Q.W.S.z l z z z 0 > 6 d g s f z x x k s a s a a a , , o 3 b.j.d.d.h.h.Q v.d.d.d.d.s.s.d.d.",
"d.d.j.d.d.s.s.j.d.h.r   V.Q.Q.R.N.z z z l k 7 6 f g 7 , s k x z x z h s a s a a 7 7 = $ %.j.d.d.d.s.y.m.d.d.d.d.s.j.d.d.",
"d.s.d.d.s.2.s.s.d.0.  - D.T.B.k l z z x l 7 s l 0 6 s z x x x x x x l g s s s a a 7 6 , ; b.d.d.d.j.d.d.d.d.d.d.d.d.j.s.",
"d.d.d.s.s.s.s.s.d.p O 7 = # 0 l z z z z d g l 0 a z z x x x x x x x x x k s a s a 0 a 7   ;.d.d.d.d.d.d.d.d.d.d.d.d.s.j.",
"d.d.d.d.s.h.d.d.f.O - +   7 x x z x x z l z l z z z x x x x x x l x x x x l s s s a s 7   y c.d.d.d.d.d.d.d.d.d.d.d.j.s.",
"d.j.d.d.d.d.h.s.-.o #   > z x x x x z x z z z z z z x x x x x x x x x x x x h a a s s 8 o % x.s.s.d.d.d.d.d.h.d.d.d.j.d.",
"d.d.d.d.d.h.d.2.M     # l z z z x x x x x x z x x x x x x x x x x x x x x l g 0 s a a 8 .   t.s.s.s.s.s.s.s.j.s.d.d.d.d.",
"d.d.d.d.d.d.d.h.<   . f z z z z x z x x x x x x x x x x x x x x z x x x l h s s a s s 7     &.s.s.s.s.s.s.j.s.j.d.d.d.d.",
"d.d.d.d.d.s.d.d.#   , z z z g k x x z x z x x x x x x x x z x x x x x l g s a a s e 8 ,     c s.s.j.s.s.s.s.j.s.d.d.d.d.",
"d.j.s.s.s.s.d.g.. O j x l y : h x x x x x x x x x x x x x z z z x l l d a a a s s s 6 &     y d.s.s.2.s.s.d.d.d.d.d.d.d.",
"s.d.d.s.d.d.d.p.. 6 d , : o   0 x x x x x x x z x x x z x h 6 j l l g a a s a 9 a a = #     5 d.d.d.d.d.j.d.d.d.d.j.d.d.",
"d.s.d.s.s.d.d.r.O , o         : x x x x x x x x x x x k f # + 0 h l d 0 s a a 6 a 8 # o     4 d.d.d.d.d.s.j.d.d.d.d.d.d.",
"d.s.d.d.m.2.d.r.. . < B { ;   # k x x x x x z z z f > = o     O g l f a a s a = a 7         r d.d.d.d.d.d.d.d.d.d.d.d.d.",
"d.d.d.s.2.2.m.r.. + J.Y.Y.A.$   0 x x x x z z l 6 o     o o     6 l g s a s 0 # 0 :         y d.d.d.d.d.d.d.s.j.d.d.d.d.",
"d.d.d.d.d.d.d.d.# $ K.Y.Y.Y.V   % z z z z z z 6     $ V Z.>.V # o 6 j s s s 8 # 0 #         c h.d.d.d.d.d.d.d.d.d.d.d.d.",
"d.d.d.d.d.d.d.d.r @ A.Y.Y.Y.J.$ o g z z x x s o   & Z.I.Y.Y.I.n ; o d g s s : o 7 o         =.d.d.d.d.d.d.d.d.j.d.d.d.d.",
"d.d.d.d.d.d.m.2.M   *.Y.U.U.Y.m   0 x z x k %   # Z.U.U.U.U.U.V $ o 3 j s s $ # :         o p.h.d.d.d.d.d.d.d.d.d.d.d.s.",
"d.d.d.d.d.2.2.2.9.  n Y.U.U.Y.H.# % k z x 0   o *.Y.U.U.U.U.U.%.o - d g s 9 o O o         - h.d.d.d.d.d.d.d.d.d.d.d.d.d.",
"d.d.d.d.s.s.2.2.a.@ t I.Y.Y.Y.P.5   + > , o   V I.U.U.U.U.U.U.V   9 l d a >               m d.d.d.d.d.d.j.d.j.s.d.d.s.s.",
"d.d.s.2.2.2.2.2.s.M @ *.P.J.*.5 # % o       u I.Y.U.U.U.U.U.I.c o d h a 0 #             o u.s.h.d.d.d.d.s.d.s.s.s.d.s.s.",
"d.s.2.2.2.2.2.s.s.w.  @ ; $   X s x f 6 - # $ N A.I.I.U.Y.Y.>.O = d a s ,               4 d.j.s.d.d.s.d.d.d.2.2.s.s.s.d.",
"d.2.2.2.2.2.s.s.d.d.v     o > # > j z x z k , o @ t V >.>.C # O 9 a a 9 +             X q.s.h.h.d.d.j.2.s.s.j.s.d.d.d.j.",
"2.2.2.2.s.d.d.d.d.d.r.O     - 7 # # 8 h h k l d = o     o   # 8 s s 7 o               i 2.s.d.d.s.j.s.s.s.s.j.j.d.d.d.d.",
"2.d.d.d.d.d.d.d.d.d.d.@.      O : $ o # 7 s s d a 0 > - - , 0 s 9 % o               # g.2.s.s.s.j.s.j.s.s.s.s.s.d.s.m.d.",
"h.d.d.d.h.2.d.d.d.d.h.h.u         # # o o # 6 0 s s s s s 0 6 % o                   -.d.s.s.s.s.s.s.s.s.s.s.s.s.s.d.h.j.",
"d.d.d.d.d.h.d.d.d.d.d.d.g.&                   + - , > - # o                       #.2.s.d.j.s.2.2.2.s.s.s.s.j.s.d.d.j.d.",
"d.d.d.d.d.d.d.h.d.d.d.d.d.r.$                       o     o                     ) j.d.d.d.j.s.s.s.2.2.2.2.d.d.d.d.d.d.d.",
"d.d.d.d.d.d.d.d.d.d.d.d.d.d.r.3                 O > 7 9 8 7 6 : #           o @.j.s.j.s.d.s.s.s.2.2.s.s.d.d.d.d.d.d.d.d.",
"d.d.h.d.d.d.d.d.h.d.d.d.d.d.h.h./ o           # 8 a s s s s s s 0 , o     $ 0.s.s.2.s.2.s.s.s.s.2.s.d.s.s.d.d.d.d.j.d.d.",
"d.d.d.d.d.d.d.d.d.d.h.d.d.d.d.d.d.9.@       - 0 s s s s s s a a s 9 7   r g.s.s.s.2.s.j.s.s.s.j.d.d.d.d.s.j.d.d.d.2.2.m.",
"d.d.d.d.d.d.d.d.d.d.d.d.d.d.d.d.d.g.#   o   - > 6 , > , 6 a a a s 7 , # p s.d.s.s.s.j.s.s.s.d.d.d.d.d.d.s.s.d.d.s.j.d.d.",
"d.d.d.d.d.d.d.d.h.d.d.d.d.d.d.d.d.` $ # l k 7 > : > , > % $ a a s 0 % % # d.d.s.s.2.s.s.s.d.d.d.h.d.d.d.d.d.d.j.d.d.d.d.",
"d.d.d.d.d.d.d.d.d.d.d.d.d.d.d.d.d.w > - M.V.B.M.M.M.N.B.S > - s 0 s > O o f.d.d.d.h.d.d.d.d.d.d.d.d.j.j.d.d.d.d.h.s.j.s.",
"d.d.h.d.d.d.h.d.d.s.h.d.d.d.d.h.d.* o o 0 A M.B.B.B.B.B.S 7 # > 7 8 8 o O f.d.d.d.d.d.d.d.d.d.d.d.d.d.s.d.d.d.d.d.h.s.s.",
"d.d.d.d.d.d.d.d.d.d.d.d.d.d.d.d.d.M       7 Z M.B.B.V.B.z # # $ # % $   ( d.d.d.d.d.d.d.d.d.d.d.d.d.d.d.h.d.j.j.2.j.c.g.",
"d.d.d.d.d.d.d.d.d.d.d.d.d.d.d.d.d.d.( @ o o = 8 s d d d -         O 2 $.d.d.d.d.d.d.d.d.d.d.d.d.d.d.d.d.d.s.s.s.c.m.L.n.",
"d.h.d.d.d.d.d.d.d.d.d.s.d.d.d.d.d.d.d.h.q.$.+.( / ( ( / ) ) ) #.:.r.h.d.d.d.d.d.s.h.d.h.d.d.d.d.d.d.d.d.s.d.c.m.b.x.x.f.",
"d.d.d.d.d.h.d.d.j.d.d.h.d.d.d.d.d.d.d.d.d.d.d.d.h.d.s.s.s.d.h.s.s.s.d.d.d.d.d.d.d.d.d.d.d.d.d.h.d.d.s.h.h.g.g.h.f.a.a.a.",
"d.d.d.d.d.d.d.d.d.d.d.d.d.d.d.h.d.d.d.d.d.d.d.s.d.d.s.d.d.d.d.d.h.d.d.d.s.d.d.d.d.d.d.d.d.d.d.d.d.d.d.s.s.d.s.s.d.d.s.d.",
"d.d.d.d.d.d.d.h.d.d.d.d.d.d.d.d.d.d.d.d.d.d.d.d.s.s.s.d.d.h.d.d.d.d.d.d.h.d.d.h.d.d.d.d.d.d.d.d.d.d.d.h.d.d.d.s.h.d.d.d."
};
