/* XPM */
static char *result[] = {
/* columns rows colors chars-per-pixel */
"60 59 184 2 ",
"   c #010101",
".  c #090806",
"X  c #070708",
"o  c #0B0B0B",
"O  c #100F0C",
"+  c #13120E",
"@  c #0F0F10",
"#  c #0F1010",
"$  c #141413",
"%  c #181714",
"&  c #1C1A15",
"*  c #1B1B1B",
"=  c #381913",
"-  c #25221D",
";  c #29251D",
":  c #332B1E",
">  c #1F1F20",
",  c #232323",
"<  c #282623",
"1  c #2C2923",
"2  c #272828",
"3  c #2B2B2C",
"4  c #332E24",
"5  c #3C352A",
"6  c #3D3B2E",
"7  c #2F2F30",
"8  c #2F3030",
"9  c #333334",
"0  c #3B3834",
"q  c #373738",
"w  c #3C3C3D",
"e  c #7E261C",
"r  c #463C2D",
"t  c #5D3027",
"y  c #423E31",
"u  c #743125",
"i  c #454234",
"p  c #4C4432",
"a  c #4A4538",
"s  c #554B38",
"d  c #57513D",
"f  c #62573D",
"g  c #6D5B3B",
"h  c #3F3F40",
"j  c #3F4041",
"k  c #414142",
"l  c #464748",
"z  c #474849",
"x  c #4A4A4C",
"c  c #524C41",
"v  c #5F5947",
"b  c #4E4F50",
"n  c #4F5051",
"m  c #525355",
"M  c #565759",
"N  c #57585A",
"B  c #58595B",
"V  c #675B44",
"C  c #66634C",
"Z  c #6B644E",
"A  c #6B684F",
"S  c #776644",
"D  c #7A6644",
"F  c #7E6B4B",
"G  c #756B58",
"H  c #7E7351",
"J  c #5E5F60",
"K  c #636465",
"L  c #676869",
"P  c #6B6C6D",
"I  c #7D7464",
"U  c #727375",
"Y  c #77787A",
"T  c #7A7B7D",
"R  c #8C2D22",
"E  c #9C2F23",
"W  c #9D3226",
"Q  c #9D3529",
"!  c #A13226",
"~  c #A1362A",
"^  c #A2392D",
"/  c #A53D30",
"(  c #A64234",
")  c #A94236",
"_  c #AC463A",
"`  c #AC4D3E",
"'  c #B04A3F",
"]  c #B24D41",
"[  c #AF5443",
"{  c #B25445",
"}  c #B55649",
"|  c #B95A4C",
" . c #84694D",
".. c #97684F",
"X. c #88724D",
"o. c #8E7A56",
"O. c #937C55",
"+. c #987E53",
"@. c #BC6C57",
"#. c #8A7D68",
"$. c #C26156",
"%. c #C6665C",
"&. c #C07459",
"*. c #C77C5A",
"=. c #CB6C62",
"-. c #D2766C",
";. c #D77C73",
":. c #9B8358",
">. c #A18556",
",. c #A48A5A",
"<. c #BD9A5F",
"1. c #898264",
"2. c #8D8868",
"3. c #978464",
"4. c #938F6D",
"5. c #98916C",
"6. c #9A9277",
"7. c #A68D64",
"8. c #A6996F",
"9. c #B39563",
"0. c #B99868",
"q. c #A9A47D",
"w. c #EAB55F",
"e. c #CA8666",
"r. c #CC8A66",
"t. c #CA8968",
"y. c #C09E65",
"u. c #D5976A",
"i. c #DE857C",
"p. c #D79D73",
"a. c #CDA76A",
"s. c #D5AA6B",
"d. c #D6B06F",
"f. c #DCB26C",
"g. c #CCAC74",
"h. c #C4A67C",
"j. c #DCA475",
"k. c #D4AF71",
"l. c #DDA778",
"z. c #DEB573",
"x. c #E3B364",
"c. c #ECB762",
"v. c #EDB965",
"b. c #E4B669",
"n. c #E9B76A",
"m. c #E6B86D",
"M. c #EDBB69",
"N. c #F0BB69",
"B. c #E1AC73",
"V. c #E1AF7C",
"C. c #E4B574",
"Z. c #E9B673",
"A. c #E4BA73",
"S. c #EBBD74",
"D. c #E5B479",
"F. c #E8B67B",
"G. c #E7BD7C",
"H. c #EABB7A",
"J. c #ECC079",
"K. c #7D7E80",
"L. c #838485",
"P. c gray54",
"I. c #949495",
"U. c #BDA782",
"Y. c #B1AC84",
"T. c #B9B489",
"R. c #A8A8A9",
"E. c gray74",
"W. c #E48D84",
"Q. c #D1B88C",
"!. c #EBBE80",
"~. c #D3CD9D",
"^. c #EAC484",
"/. c #E5DEAA",
"(. c #E9E2AD",
"). c #EEE7B1",
"_. c #EFE8B1",
"`. c #F2EBB3",
"'. c #C2C2C3",
"]. c #D9D9DA",
"[. c #E2E2E2",
"{. c #EBEBEC",
"}. c #F3F3F3",
"|. c white",
/* pixels */
"c.c.c.c.v.c.c.c.c.c.v.v.v.c.v.v.c.v.v.v.N.N.v.N.N.N.v.N.N.v.v.v.v.v.v.M.v.v.v.v.v.N.v.v.v.v.M.H.v.v.v.v.v.F.v.v.v.v.v.c.",
"c.c.c.c.c.c.c.c.c.c.v.v.v.v.c.v.v.v.v.v.v.v.N.N.N.v.N.N.v.N.v.v.v.v.v.v.v.v.v.v.v.v.v.v.v.v.B.e.S.v.v.v.p.j.v.v.v.v.v.v.",
"c.c.c.c.c.c.c.c.c.v.v.v.v.v.v.v.v.v.v.N.M.N.M.v.N.v.N.v.N.M.M.M.v.v.N.v.v.v.v.v.v.v.v.v.v.v.B.^ D.v.v.D.( l.v.v.v.v.v.v.",
"c.c.c.v.w.c.w.c.w.c.c.v.c.v.c.v.v.v.v.N.N.N.v.v.N.N.N.N.v.N.M.v.v.v.v.v.v.v.M.v.v.v.v.v.v.v.n.W ` H.H.{ W D.v.v.v.v.v.v.",
"c.c.c.v.c.c.c.x.c.w.c.w.v.w.v.w.c.c.c.v.v.v.v.v.v.v.v.v.N.N.v.v.v.v.v.v.M.z.9.C c V  .7.z.m.D.Q W &.| ~ ~ F.v.v.v.S.S.M.",
"v.v.v.v.c.c.v.v.c.v.v.v.c.v.c.w.v.v.c.c.v.v.v.v.v.v.v.v.v.N.N.N.v.v.v.k.Z a H 9.g.0.( e u ..t.~ / ~ ~ / ~ V.F.j.%.| F.v.",
"c.v.c.v.v.c.v.v.v.v.c.c.c.c.J.w.c.v.v.v.v.v.M.v.v.v.v.c.c.v.v.v.v.m.:.f 5.2.Y.G T.A h.Q Q W W W $.{ } | ! ^ Q W / F.v.v.",
"v.c.c.c.c.c.v.c.c.c.c.w.w.J.J.A.c.b.v.v.v.M.J.v.v.v.v.b.,.H H >.9.d :.4.1.f 1 < i 1 0 = R ~ { } =.i.i.%.] ' W ( F.v.v.v.",
"c.c.v.c.v.v.c.v.c.v.v.w.J.J.J.G.c.f.b.c.M.c.v.v.M.N.J.g             c 2.& D k.S.M.m.g.G t E ] ;.W.W.W.W.;._ ~ B.v.v.v.v.",
"c.v.c.v.c.v.c.w.w.w.w.J.A.J.m.m.f.x.f.b.m.k.9.:.H H d .               o O.M.v.v.v.M.S.l./ ~ _ -.W.W.W.W.=./ ~ r.H.v.v.v.",
"v.c.v.c.c.w.c.w.w.J.v.J.J.x.J.x.w.x.<.V 5 - > 2 & . . # .               S v.v.v.M.j.{ W E ) %.;.W.W.W.W.;.$.( ! / e.!.H.",
"c.c.c.c.c.w.c.c.w.x.m.x.J.x.x.w.,.5 , 8 j z J M l 6 q j q 3 9 8 3 $     O.v.v.v.m.u.&.{ _ / Q } i.W.W.W.] ~ ~ ^ / ` @.V.",
"c.b.w.w.w.w.c.c.w.c.v.c.c.c.a.p 1 8 8 - j E.{.{.E.m k k j k k k k h 7 @ 0 C.v.v.v.v.v.v.M.&./ =.} -.%.$.| ~ r.Z.N.v.v.v.",
"w.J.J.c.c.c.v.v.c.v.v.v.v.:.i 9 8 m P.P J R.].].R.m y j j j j k k k k 9   * g.M.v.v.v.v.S.] ~ ~ E | _ W ^ ! e.S.w.v.v.v.",
"w.c.c.c.c.v.v.v.J.v.v.c.S 1 > w R.}.|.R.M M J J J m x z k w k k k h h h * $ $ 3.M.v.v.v.p.E ! &.] ~ ~ | ` W / H.w.v.v.v.",
"w.w.c.c.v.c.v.v.w.w.v.g & % L [.|.|.[.P M M J N N J B B m z k j h k h k 2 * > X G N.v.S.[ ) B.J.p.! ^ H.N.*.~ r.N.v.v.v.",
"v.v.v.v.v.v.v.v.v.v.g X $ P.}.|.|.[.U z n N N N N N N N N B z k h k h k 9 , 3 $ $ #.M.D.@.J.v.v.F.~ | N.v.c.x.*.J.v.v.v.",
"v.v.v.v.v.c.v.v.v.X.  $ R.|.|.|.[.B w m B B J N n n N N N B B z h h k k w 7 9 > $ $ U.v.v.v.v.v.M.] e.N.v.c.w.N.v.v.v.N.",
"v.v.v.v.v.v.v.c.y.  $ R.|.|.|.].P n B B N m k 3 q b n b N N N N l h h h h h w 3 2 o q ^.c.c.v.v.v.r.H.c.v.v.v.v.v.v.v.v.",
"v.v.v.v.v.c.v.n.:   L.|.|.|.'.P B B B B l 2 9 z z q q z M J N N m l h h h h w 9 3 2 % I J.v.v.v.v.H.N.v.v.v.v.v.v.v.v.v.",
"v.c.v.c.c.c.v.:.  w }.|.[.I.J N B B B j 9 z x 9 8 j m J N N J N M m l h k k h h 7 9 2 * Q.v.v.v.v.v.v.v.v.v.v.v.v.v.v.v.",
"v.v.v.c.w.w.M.- . P E.L.n n N N B B k j m z 9 l m J N N N N N N M J M x k h k k h j 7   G N.v.v.v.v.v.v.v.v.v.v.v.v.v.v.",
"v.v.v.c.v.v.9.  3 * . * n N B B B m z B m l B B K m N N N N N N M M J M m k k h h k 9   3 ^.v.v.v.v.v.v.N.v.v.v.v.v.v.N.",
"v.v.N.v.v.v.s $ ,   * m J B N B B N B B M B N N B B M J N N N J J M M M J z h k h j 9 X o h.v.v.v.v.v.v.v.v.v.v.v.v.v.v.",
"v.v.v.v.v.m.$ * X o z B B B B B N B B B B B N B N J B J N m N N M M J J m l k h k k 9 o   G c.c.c.v.c.v.c.c.N.c.v.v.v.v.",
"v.v.v.v.v.s.      w N B B B N B B B B B B B B B m N N m m K N J J M M m l h h k k w 9     p v.c.c.v.c.c.c.N.v.v.v.v.v.v.",
"v.v.N.c.v.9.    , N N N N N B B B B B N N B B B K B J K N J m K J M m z h h h h k 9 3     < S.w.c.w.c.c.w.v.v.v.v.N.v.v.",
"v.v.c.v.c.O.  o z N N N j N B B B B B B B B B B m N N m m N N m M m l k h h h h k 3 ,     $ A.c.c.c.w.c.c.v.v.v.v.v.v.v.",
"v.v.v.c.c.F   3 N N z 7 * b B B N B B B B B B N B B B B k w N M M l y k k k q w w , $     + A.v.c.v.v.v.v.v.v.v.v.v.v.v.",
"c.c.v.c.v.F X l 9 % #     j J B B B B N B N B B B B N w $ 2 w m m k k w k w 3 w w $       o A.v.v.v.v.v.v.v.v.v.N.v.v.v.",
"v.c.v.c.v.F * *   X .     , N B B B B B B B N N z 8 ,       , m M k k k j w 2 q 9 X       o N.v.c.v.v.v.v.v.v.v.v.v.v.v.",
"v.v.v.v.v.o.  $ Z Y.Y.a   o x B B N B B N N n , X           X w N z j k k w $ q 3         % N.v.v.v.v.v.v.v.N.v.v.v.v.v.",
"v.v.v.v.c.9.  a (.`.`.~.6   , B B B B B B n *     < 1.q.6.v o X 0 b j j k q o q *         - M.v.v.v.v.v.v.v.v.v.v.v.v.v.",
"v.v.v.v.M.a.  0 /.`._.`.q.. o x B B B B N ,     a ~.`.`.`.~.d - X l z j k 3 X q X         0 v.v.v.v.v.v.v.v.v.v.v.v.c.v.",
"v.v.v.v.v.A.o * ~.`._._.(.i   w B B B B j X   6 ~.`.).).`.(.C + o 8 m k k * X ,           o.v.v.v.v.v.v.v.v.v.c.v.c.c.c.",
"v.v.v.v.v.M.y   6.`._._._.q.. * N B B m *   - Q.`._._._.).).C   3 m x k w o X X           k.v.v.v.v.v.v.v.v.v.J.v.v.c.v.",
"v.v.v.v.v.c.,.  A ).).)._.(.d   , h z 2   % q.`._._.`._._.`.A   w B l j 3               , M.v.v.v.J.w.v.v.v.v.v.v.v.v.c.",
"v.v.v.c.w.w.f.X 6 ).`.`.(.Y.6       X   o 4.`.)._._.`.`._.(.i o x z j w $               :.v.v.v.v.v.c.v.v.v.v.c.v.c.c.w.",
"v.v.w.w.w.w.w.D   v 8.1.i o > l 9 * $ o o C Y./._.`.`.`._.2.. , z j j 3               + m.v.v.v.v.v.v.c.v.c.c.v.v.c.v.v.",
"v.w.w.w.w.w.w.z.$       o X 9 m B B m m 9 o X 4 C 4.Y.q.C O O q i j q @               ,.v.v.v.v.v.v.v.v.c.c.v.c.v.c.v.v.",
"w.w.w.w.c.v.v.v.,.    X 3 9 o * l m M N N z 9 o     . . X $ 9 k w 3 X               r w.w.v.v.v.v.v.v.c.c.c.v.v.v.v.v.v.",
"c.w.w.c.v.v.v.v.m.s     X * 3 * # * 9 k z z l k 9 , , , 9 j k 8 * X               X s.c.w.w.v.v.v.c.v.c.c.c.v.c.v.v.N.v.",
"c.c.v.v.v.v.v.v.v.C.&       X $ * o X $ 3 w w j k k k w q , $ X                   ,.w.c.c.c.w.c.c.c.v.v.w.w.c.c.v.M.M.M.",
"v.v.v.v.v.v.v.v.v.v.d.$           X       o $ 2 3 , * $ X                       +.v.w.v.c.c.c.w.w.c.c.c.c.c.v.c.v.v.v.v.",
"v.v.v.v.M.v.v.v.v.v.v.d.%                                   X X $ $ $ $ @ X   $ b.v.v.v.v.v.v.c.w.w.w.c.w.v.v.v.v.v.v.v.",
"v.v.v.v.v.v.v.v.v.v.v.C.-                                 o 3 w w h h w h q , X * f.v.v.c.v.c.c.w.w.w.w.v.v.v.v.v.v.v.v.",
"v.v.M.v.v.v.v.v.v.v.m.-   $ $ X                         * q j j k k k k h k j q $ * w.w.c.c.c.c.w.w.w.c.v.v.v.v.v.M.v.v.",
"v.v.v.v.v.v.v.v.v.M.s   $ w w 3 $                     * w j j j h h k k h k y 9 9 X >.c.c.c.c.c.v.v.v.v.w.v.v.v.v.v.v.v.",
"v.v.v.v.v.v.v.v.v.0.+ , + % * * $ X               * * $ * * * * * * , q h k k 9 , * : c.v.c.M.v.v.v.v.v.v.c.v.v.v.v.v.v.",
"v.v.v.v.v.M.v.v.M.p m T L M m m m m m 9 . * $ o X N T L m x m m m b 9 $ w k k h > % o c.c.c.v.v.v.v.v.v.v.v.v.v.v.v.v.v.",
"v.v.v.v.v.v.v.v.m.& n K.L.L.L.L.L.L.L.Y , , 9 3 o N L.L.L.L.L.L.L.L.U * 3 q w h 7 X X x.v.c.M.v.v.v.v.v.N.v.v.v.v.v.v.c.",
"M.v.v.v.M.v.v.v.m.$ o 6 K T L.L.L.L.L.J , * * 2   o w L K.L.L.L.L.L.N * * * , 9 7   : v.v.c.v.v.v.v.v.v.v.v.v.v.v.v.v.v.",
"v.v.M.v.v.v.v.v.M.,.. o q K U Y T T Y 9 X o X o     O w L U T T T Y 1 o $ X o X X - a.v.v.v.v.v.v.v.v.v.v.v.v.v.c.v.M.M.",
"v.v.v.v.v.v.v.v.v.v.f.:.r 1 < < < < < + o + & ; d :.X.p < < < < < , + o o & 1 S y.M.c.v.v.v.N.v.v.v.v.v.v.v.v.v.M.S.G.S.",
"v.v.v.v.v.v.v.v.v.v.v.v.v.M.v.b.b.M.M.b.v.v.v.v.v.v.v.c.v.v.c.c.v.v.v.c.c.v.v.v.v.v.v.v.v.v.v.v.c.v.v.v.v.N.N.M.S.G.G.A.",
"M.v.v.v.v.M.v.v.v.v.v.v.v.v.v.v.v.v.v.v.v.v.v.v.v.v.v.c.v.v.v.v.v.v.v.v.M.v.v.v.v.v.v.v.v.v.v.v.v.v.v.v.M.n.M.Z.A.m.m.x.",
"v.v.v.v.v.v.v.v.v.v.v.v.v.v.v.v.v.v.v.v.v.v.v.v.v.v.v.c.v.v.v.v.v.v.v.v.v.v.v.v.v.v.M.v.M.v.v.v.v.v.v.v.M.n.n.n.c.c.b.c.",
"v.v.v.v.v.v.v.M.v.v.v.v.N.v.v.v.v.v.v.v.v.v.v.v.v.w.v.v.v.v.v.v.v.M.v.v.v.v.v.v.v.v.v.v.v.v.v.v.v.v.v.v.c.v.c.c.v.c.c.c.",
"v.v.v.N.v.v.v.v.v.v.M.v.v.v.v.v.v.v.v.v.v.v.v.v.v.v.w.v.v.v.v.v.v.v.v.v.v.M.v.v.v.v.v.v.v.v.v.v.v.v.v.v.v.v.v.v.v.v.v.v."
};
