/* XPM */
static char *result[] = {
/* columns rows colors chars-per-pixel */
"60 59 180 2 ",
"   c #020202",
".  c #090807",
"X  c #0B0B0B",
"o  c #12110F",
"O  c #0F0F10",
"+  c #141413",
"@  c #1D1B15",
"#  c #171718",
"$  c #171818",
"%  c #1B1B1B",
"&  c #201E1A",
"*  c #25231D",
"=  c #29271E",
"-  c #352D1F",
";  c #1F1F20",
":  c #1F2020",
">  c #232324",
",  c #282624",
"<  c #2C2A24",
"1  c #272728",
"2  c #2B2B2C",
"3  c #312D24",
"4  c #323025",
"5  c #38342B",
"6  c #3E382C",
"7  c #2F2F30",
"8  c #333334",
"9  c #373738",
"0  c #373839",
"q  c #3B3C3D",
"w  c #443D2D",
"e  c #433D32",
"r  c #4A422F",
"t  c #474033",
"y  c #4B4332",
"u  c #4E4A3B",
"i  c #524836",
"p  c #554934",
"a  c #5A4C35",
"s  c #54523F",
"d  c #5E513B",
"f  c #67563A",
"g  c #765930",
"h  c #7A643E",
"j  c #3F3F40",
"k  c #3F4042",
"l  c #414142",
"z  c #464748",
"x  c #47484A",
"c  c #4A4A4C",
"v  c #534D41",
"b  c #595642",
"n  c #4D4E50",
"m  c #4F5052",
"M  c #525355",
"N  c #565759",
"B  c #57585A",
"V  c #58595B",
"C  c #6A5C42",
"Z  c #745F42",
"A  c #6C654F",
"S  c #746244",
"D  c #79674A",
"F  c #7C6849",
"G  c #6E6B52",
"H  c #756C54",
"J  c #7F6D50",
"K  c #7A765B",
"L  c #7F795B",
"P  c #5F6061",
"I  c #666769",
"U  c #68696A",
"Y  c #747476",
"T  c #767778",
"R  c #777879",
"E  c #7C7C7E",
"W  c #9D6D27",
"Q  c #F05B28",
"!  c #F1642B",
"~  c #F26C2D",
"^  c #F3702E",
"/  c #F47A31",
"(  c #816D49",
")  c #8B734B",
"_  c #8B7957",
"`  c #947D57",
"'  c #867A64",
"]  c #C68F3D",
"[  c #DC9A39",
"{  c #F58434",
"}  c #F68C36",
"|  c #F79538",
" . c #F89C3A",
".. c #F6A53C",
"X. c #FAAC3D",
"o. c #9A8258",
"O. c #9D845A",
"+. c #A48652",
"@. c #A38A5C",
"#. c #B38F56",
"$. c #B79459",
"%. c #868263",
"&. c #8B8669",
"*. c #998868",
"=. c #9D9579",
"-. c #A28D64",
";. c #AB8F60",
":. c #AB9364",
">. c #B39563",
",. c #BA9A65",
"<. c #BD9F6D",
"1. c #A7A27C",
"2. c #B9A176",
"3. c #BBA876",
"4. c #C59F5B",
"5. c #CBA35E",
"6. c #F7AE43",
"7. c #FAAD40",
"8. c #FAB144",
"9. c #FAB44A",
"0. c #EAB45E",
"q. c #FAB651",
"w. c #FAB855",
"e. c #FABA5B",
"r. c #C4A26A",
"t. c #CBA769",
"y. c #D4AC6A",
"u. c #D7B06E",
"i. c #DEB36D",
"p. c #CCAC76",
"a. c #D3AD72",
"s. c #C7B07A",
"d. c #D8B274",
"f. c #E3B363",
"g. c #ECB762",
"h. c #EDB965",
"j. c #E4B66A",
"k. c #E9B769",
"l. c #E6B86D",
"z. c #EDBB69",
"x. c #F9BE63",
"c. c #F1BB69",
"v. c #E1B670",
"b. c #E5BB73",
"n. c #EABD73",
"m. c #E7BF7B",
"M. c #E9BE79",
"N. c #F7C16B",
"B. c #F8C26D",
"V. c #EEC175",
"C. c #ECC17A",
"Z. c #F4C273",
"A. c #F3C57C",
"S. c #F8C678",
"D. c #7E7F81",
"F. c #7F8080",
"G. c #828385",
"H. c gray54",
"J. c #B1AA87",
"K. c #BBB58A",
"L. c #AAABAC",
"P. c #AFAFB0",
"I. c #B8B8B9",
"U. c #C8B48B",
"Y. c #C9C395",
"T. c #D2CC9B",
"R. c #F3C985",
"E. c #F5CA87",
"W. c #F8CA85",
"Q. c #F6D49B",
"!. c #DAD4A2",
"~. c #EBE4AE",
"^. c #EFE8B1",
"/. c #F2EBB3",
"(. c #C6C6C6",
"). c gainsboro",
"_. c gray89",
"`. c #ECECEC",
"'. c #F4F4F4",
"]. c #FEFEFE",
/* pixels */
"g.g.g.g.h.g.g.g.g.g.h.h.h.h.h.h.h.h.h.h.h.z.z.N.h.V.z.x.N.f.h.h.h.z.h.h.h.h.h.h.h.z.h.h.h.h.z.h.h.h.h.h.h.h.h.h.h.h.h.g.",
"g.g.g.g.g.g.g.g.g.g.h.h.h.h.g.h.h.h.h.h.z.z.x.h.h.h.h.h.h.N.h.h.h.h.h.h.h.h.h.h.h.h.h.h.h.h.h.h.h.h.h.h.h.h.h.h.h.h.h.h.",
"g.g.g.g.g.g.g.g.g.g.h.g.h.h.h.h.h.h.h.z.h.z.h.N.z.z.h.h.h.N.N.h.h.h.h.h.h.z.h.h.z.h.h.h.h.h.h.h.E.h.h.h.h.E.V.h.h.h.h.h.",
"g.g.g.h.g.g.0.g.g.g.g.g.h.g.h.h.h.h.h.z.h.V.h.h.z.z.x.V.N.h.l.h.h.h.h.z.h.h.h.h.h.h.h.h.h.h.h.h.x.A.h.h.A.x.R.h.h.h.h.h.",
"h.g.h.g.g.g.g.f.g.g.g.g.g.g.f.f.g.g.g.h.h.h.h.h.h.h.h.g.h.h.N.h.h.h.h.h.h.h.h.h.h.z.z.h.h.h.h.h.8.A.z.z.w.e.z.h.h.h.h.h.",
"h.h.k.h.g.g.h.g.h.h.g.g.g.g.g.N.h.g.g.g.h.h.h.g.h.g.h.V.h.l.N.h.h.h.h.h.h.h.p._ v u s S _ s.n.A.8.8.E.B.X.B.z.h.c.n.A.h.",
"0.h.g.h.g.h.g.g.h.g.g.g.h.g.N.f.g.h.h.h.h.h.z.g.h.h.h.g.0.V.h.h.h.h.h.h.<.u s L 3.s.3.5.W g W <.7.7.8.X.X.B.V.A.W.S.Q.h.",
"g.h.h.g.h.h.g.h.g.g.g.g.0.N.b.C.j.h.l.g.h.N.V.h.N.h.g.g.h.N.l.h.h.h.l.f A 1.&.=.G 2.H 3.4...6.] 7.}  .}  .9.q.8.8.W.z.z.",
"g.g.h.g.g.h.g.g.g.g.g.0.V.l.m.m.f.i.j.h.h.c.z.c.N.f.z.c.b.@.( F ` >.y :.&.%.q < < r 4 < r 5.7. .| / ~ ! }  ...8.A.z.h.h.",
"g.g.N.g.g.g.g.g.g.g.0.N.V.m.b.b.f.i.f.j.z.h.z.c.N.N.z.N.a           . b _ % o.j.h.h.l.j.-.g [ ..^ Q Q Q ! { X.Z.z.h.h.h.",
"f.0.f.0.g.g.g.g.g.g.l.V.l.b.l.l.f.f.f.f.j.l.i.,.o._ h f .                 ;.h.h.h.h.h.z.A.0... .^ Q Q Q Q { X.w.A.A.Z.h.",
"N.N.g.0.0.g.g.g.f.l.j.j.V.f.l.f.f.0.g.y.F w - , * $     . .               _ h.h.h.h.V.x.X...X.} / Q Q Q ! {  .X.X.w.E.R.",
"0.0.g.g.g.g.f.h.N.f.g.f.h.g.f.h.0.t.f = 2 q l M M l 8 8 q 8 1 2 2 1 # .   ;.h.h.h.h.Z.A.Z.B.e.8.} ! ! ! ^ ..9.N.Z.S.W.Z.",
"g.f.g.g.f.N.g.f.h.f.h.h.N.g.g.0.h 5 7 7 1 k I._._.P.c l l l l l l l q 2 O i z.h.h.h.h.h.h.h.A.7.|  ./ | |  .e.z.0.g.h.h.",
"g.0.i.g.0.g.N.N.h.h.h.h.f.g.5.s 8 8 z Y V V I._.).P.c l j l l l l j l l 8   & a.h.h.h.h.h.h.x.X.8.9. .X.9.X.8.A.0.h.h.h.",
"N.0.g.g.g.g.f.g.h.h.h.h.g.$.w = < H._.].L.V N I I V M c z j l j j l j l q # + # >.h.h.h.h.R.7.q.R.Z.X.9.Z.Z.8.x.c.h.h.h.",
"h.h.h.h.h.h.h.h.g.h.h.h.#.* + x (.].]._.Y V V V V V V V V c x k k j l j l 1 : # . ;.h.h.z.Z.S.A.h.V.X.N.z.h.A.e.E.h.z.h.",
"h.h.h.h.h.h.h.h.h.h.h.+.o # U `.].].'.G.x M V V V V V V V V M x j j j l l 8 , 1 # + :.h.h.c.h.h.h.z.q.R.h.h.h.z.N.h.h.h.",
"h.h.h.g.h.g.g.h.g.h.>.  . &.'.].].`.U q c V V V V M M V V V V V c j j j j q 7 8 ; # # d.h.h.h.h.h.h.Z.A.h.h.h.h.h.h.h.h.",
"h.h.h.h.h.g.h.h.h.j.+   D.'.].].`.G.x V V V V x 8 2 x M m V V V M z j j l j q 0 2 > O e n.h.h.h.h.h.N.z.h.h.h.h.h.h.h.h.",
"h.h.h.h.0.h.h.h.h.f   V '.].].).G.M V V V c 2 2 k c q q x V V V V M z j k j j j 0 2 7 # *.h.h.h.h.h.h.h.h.h.h.h.h.h.h.h.",
"h.h.h.g.h.0.0.e.r.  1 ).].'.P.U M V V V c 2 x c 9 2 q M V V V V N V M z k j j j j 7 0 > % b.z.h.h.h.h.h.h.h.h.z.h.h.z.h.",
"h.h.h.h.h.h.g.g.p   U `.I.I m B V V V x 9 M c 8 k M V V V V V V V V N V n k j j j j j 7   *.h.h.h.h.h.h.h.h.z.h.h.h.h.h.",
"h.h.h.h.g.h.h.u.  % 9 2 : x V V V V M z M M l M V V M V V V V V V V V N V n z j j k j 8   3 z.h.h.h.z.h.h.h.h.h.h.h.h.h.",
"h.h.h.h.h.h.h.` . 2   . j B V V V V V M V V V V V V V V V V V V V V V V V V z e j l j 8 . . a.h.h.h.h.h.h.h.h.h.h.h.h.h.",
"h.h.h.h.h.h.g.- # . . q B B V V V V V V V V V V V V V V V V V V V V V V V M z l l j l 0 .   ` 0.0.0.e.0.g.h.h.h.h.h.h.h.",
"h.h.h.h.h.g.j.X .   1 V B V V V V V V V V V V V V V V V V V V V V V V V N c l j j l j 8     e h.h.g.h.h.0.h.h.h.c.h.h.h.",
"h.h.h.h.g.h.t.    O n V B V V V V V V V V V V V V V V V V V V V V V V M c q j l l j 0 2     < h.0.e.0.0.0.h.h.h.h.h.h.h.",
"g.g.h.g.h.h.,.    9 V V V x M V V V V N V V V V V V V V V V V V V V M z j j j j j j 2 >     + l.h.h.h.h.h.h.N.g.h.h.h.h.",
"h.h.g.h.g.h.@.  # M P n k 1 m V V V V V V V V V V V V V V c 0 V V N z j l l j 9 q l % +     . j.h.h.h.h.h.h.h.h.h.h.h.h.",
"g.h.h.g.h.h.o.  q c 8 1 X . q V V V V V V V V V V V V V z + 1 x M N l l j l j 2 q q + .     . j.h.h.h.h.h.h.h.h.h.h.h.h.",
"h.g.h.h.h.h.O.O 8 .         > N V V V V V V V V V c k 2 .   . $ M M z j l j q > 0 9 .       X l.h.h.h.h.h.h.h.h.h.h.h.h.",
"h.h.h.h.h.h.>.. . < H %.4   X x V V V V V V N N 8 .           . q V z q l l j % 0 7         O h.h.h.h.h.h.h.h.h.z.h.h.h.",
"h.h.h.h.h.h.r.  * Y././.Y.4   > V V V V V V N 2     . b %.K u . . 9 M l j l 0 X 8 >         @ h.z.h.h.h.h.h.h.h.h.h.h.h.",
"h.z.h.h.h.h.u.. * !.^.^./.=.. . c V V V V V 0     * 1.~././.!.v * . l c l l 7 . 7 O         5 h.h.h.h.h.h.h.h.h.h.g.g.g.",
"h.h.h.h.h.g.b.@ X U./.^.^.~.t   8 V V V V n O   @ J././.^./.~.G @ . 2 M k j : . 1 .         J h.h.h.h.h.z.h.h.h.h.h.g.h.",
"h.h.h.h.h.g.g.f   *./.^.^./.1.X # N N V B 2   . =.^.^.^.^.^./.K   ; x c z q X . .           r.h.h.h.h.h.h.h.h.h.h.h.h.h.",
"h.h.g.g.0.0.0.;.  b ~.~.^.^.~.v   2 n N l .   G ~.^.^.^.^.^./.%.  2 V x l 8 .             + z.h.h.h.h.z.h.h.g.h.h.g.0.0.",
"h.g.g.0.0.0.0.j.+ 4 ~.^././.~.H     X + .   b !./.^.^.^.^.^.^.A   z c l l %               D h.h.h.h.h.h.h.h.h.g.g.h.h.h.",
"h.g.0.0.0.0.g.g.O.  K Y.Y.&.5 + 7 1 O . . . G Y.~././.^././.K.+ # z k k 8 .             . u.h.h.h.h.h.g.g.g.g.h.g.h.h.h.",
"0.0.0.0.g.h.h.h.j.+   @ o     2 V V M c z 2 . + u &.K.T.T.=.= . 8 l j q +               f h.h.h.h.h.h.0.0.h.h.h.h.h.h.h.",
"g.0.g.g.h.h.h.h.h.@.      > 1 + 2 c V V V V z > .   X @ @ . . 2 l l 9 #               o i.g.g.h.h.h.h.h.0.0.g.g.h.h.c.h.",
"g.g.h.h.h.g.h.h.h.z.6     . 1 2 # + 1 q z c n c q 2 % + % 1 0 l 0 > .                 >.0.0.0.h.0.h.h.x.e.0.g.g.h.c.h.c.",
"h.h.h.h.h.h.h.h.h.h.i.#       . % ; X . % 7 j j l l l l l q 8 % .                   Z g.x.h.0.0.g.0.0.0.h.g.h.h.h.h.h.h.",
"h.h.h.h.h.h.h.z.h.h.h.y..         . . .   . . > 8 0 8 2 % + .                     w z.h.h.c.h.0.0.0.h.0.g.h.h.h.h.h.h.h.",
"h.h.z.h.h.h.h.h.h.h.h.h.r..                       . .                             J h.h.h.0.0.h.0.0.0.0.g.h.h.h.h.h.h.h.",
"h.h.h.h.h.h.h.h.h.h.h.l.` .                                     . # 1 2 2 2 1 > + . & r.g.h.h.0.0.0.g.g.h.h.z.h.h.h.h.h.",
"h.h.h.h.h.h.z.h.h.h.z.e   . % +                               . > 0 l q l l l l q 9 + . >.0.h.h.h.g.h.h.g.h.h.h.h.h.h.h.",
"h.h.h.z.h.h.h.h.h.z.i   O 8 j q > .                         . 8 j l q l l q j l j j q % O i.h.h.h.h.h.h.h.h.h.h.h.h.h.h.",
"z.h.h.h.h.h.h.h.z.,.. . > 8 8 0 0 2 $ .                     % 9 9 0 8 0 q q l j j q 2 7 . ) h.h.h.h.h.h.h.h.h.h.h.h.h.h.",
"h.h.h.h.h.h.h.h.z.% z k 1 % % % % ; # O > ; + . .     . q z 2 % % % % % @ + 7 l j z 0 % $ , h.h.h.h.c.h.h.h.h.h.h.h.h.h.",
"h.h.h.h.h.h.h.z.2.; ' G.E R Y Y R R Y q # j q 9 8 + . o Y G.E R Y Y Y R Y c + q l j j % # + j.h.h.h.h.h.h.h.h.h.h.h.h.g.",
"h.h.h.h.h.h.h.h.@.o m R G.G.G.G.G.G.G.V + 2 9 0 j : . . c T F.F.G.G.G.G.G.I # 1 2 8 k 2   + z.h.h.h.h.h.h.h.h.h.g.z.z.l.",
"h.h.h.h.h.h.h.z.r.. . 0 I G.G.G.G.G.Y 8 . % # % 1 o       7 P F.G.G.G.G.D.q X % @ @ > $   S l.h.h.h.h.h.h.h.h.h.z.n.M.b.",
"h.c.h.h.h.h.h.h.z.@.% + 1 z m V V V j .   .     . * >.:.= O > q M V V V c X   .     . & ` k.c.h.h.h.h.h.h.h.c.z.n.m.M.v.",
"h.h.z.h.h.h.h.h.h.h.l.>.) C i i y r w w y d F O.y.j.h.g.k.r.o.S d f a a a p y a S ` r.j.h.g.h.h.h.h.h.h.z.l.z.n.b.l.l.j.",
"h.h.h.h.h.z.h.h.h.h.h.h.z.h.h.z.h.z.h.z.h.h.h.g.h.h.h.g.h.h.h.h.h.h.h.h.h.h.h.h.h.z.h.h.h.h.h.h.h.h.h.h.k.h.k.k.g.g.g.k.",
"h.h.h.h.h.h.h.h.h.h.c.h.h.h.h.h.h.h.h.h.h.h.g.h.h.g.h.g.h.h.h.h.h.h.h.h.h.l.h.h.h.h.h.h.h.h.h.h.h.h.h.h.h.h.g.k.g.g.g.g.",
"h.h.z.h.h.h.h.h.h.h.h.h.h.h.h.h.h.h.h.h.h.g.h.h.h.g.h.h.h.h.h.h.h.h.h.h.h.h.h.h.h.h.h.h.z.h.h.h.h.h.h.h.h.h.h.h.h.h.h.h."
};
