/* XPM */
static char *result[] = {
/* columns rows colors chars-per-pixel */
"60 58 172 2 ",
"   c #010101",
".  c #090806",
"X  c #0B0B0B",
"o  c #100F0C",
"O  c #12110D",
"+  c gray8",
"@  c #191713",
"#  c #1C1A15",
"$  c gray11",
"%  c #211F19",
"&  c #24221C",
"*  c #29251C",
"=  c #312C1F",
"-  c #1F1F20",
";  c #242424",
":  c #292722",
">  c #2E2A23",
",  c #272728",
"<  c #272828",
"1  c #2B2B2C",
"2  c #342F25",
"3  c #343226",
"4  c #36332B",
"5  c #3B3529",
"6  c #3B392C",
"7  c #2F2F30",
"8  c #2F3031",
"9  c #333334",
"0  c #373738",
"q  c #3B3B3C",
"w  c #423929",
"e  c #413E32",
"r  c #694A1E",
"t  c #4D422F",
"y  c #55452C",
"u  c #4A463A",
"i  c #544934",
"p  c #534C3B",
"a  c #5E513A",
"s  c #624E2D",
"d  c #64553A",
"f  c #3F3F40",
"g  c #3F4041",
"h  c #414142",
"j  c #464748",
"k  c #474849",
"l  c #4B4B4D",
"z  c #5A5545",
"x  c #4E4F50",
"c  c #4F5052",
"v  c #525355",
"b  c #565759",
"n  c #57585A",
"m  c #58595B",
"M  c #675A44",
"N  c #655E50",
"B  c #6A644C",
"V  c #796647",
"C  c #75644A",
"Z  c #7E6B49",
"A  c #696451",
"S  c #736A55",
"D  c #7A765A",
"F  c #5E5E60",
"G  c #5F6061",
"H  c #656668",
"J  c #6E6F71",
"K  c #737475",
"L  c #7B7B7C",
"P  c #AE7D36",
"I  c #F05B28",
"U  c #F26B2D",
"Y  c #F37630",
"T  c #F47B31",
"R  c #816E4A",
"E  c #87714E",
"W  c #89724C",
"Q  c #8B7754",
"!  c #927C53",
"~  c #867B64",
"^  c #D89838",
"/  c #F58434",
"(  c #F68A36",
")  c #E09D39",
"_  c #F89A3A",
"`  c #F9A43C",
"'  c #FAAC3E",
"]  c #8B805E",
"[  c #9C845A",
"{  c #A38858",
"}  c #B5955A",
"|  c #868263",
" . c #8C8564",
".. c #8E8A69",
"X. c #9A8A65",
"o. c #95916E",
"O. c #AD9161",
"+. c #B29563",
"@. c #BC9C66",
"#. c #A49A7A",
"$. c #A6A17B",
"%. c #ACA67F",
"&. c #BEA170",
"*. c #C49F5C",
"=. c #EDAA46",
"-. c #FAAF42",
";. c #FBB144",
":. c #FAB44C",
">. c #EAB55F",
",. c #FAB856",
"<. c #FABA5B",
"1. c #C19D64",
"2. c #C6A266",
"3. c #C5A36D",
"4. c #D3AC6B",
"5. c #D6AD68",
"6. c #DFB163",
"7. c #DCB26C",
"8. c #C9A975",
"9. c #D4AE70",
"0. c #D8B374",
"q. c #E4B465",
"w. c #ECB762",
"e. c #EDB965",
"r. c #E4B66A",
"t. c #E7B96E",
"y. c #EEBB69",
"u. c #F7BD64",
"i. c #F9BE64",
"p. c #F1BD6A",
"a. c #E1B672",
"s. c #E5BA74",
"d. c #EABC72",
"f. c #E5BD79",
"g. c #EABF7A",
"h. c #F0BF71",
"j. c #F7C06A",
"k. c #F9C16B",
"l. c #E9C07B",
"z. c #EBC27C",
"x. c #F2C175",
"c. c #F9C472",
"v. c #F3C57C",
"b. c #F9C87C",
"n. c #7E7F80",
"m. c #7F8081",
"M. c #838485",
"N. c #89898A",
"B. c #989999",
"V. c #AFA687",
"C. c #B7B187",
"Z. c gray66",
"A. c #B6B6B7",
"S. c #C6BC98",
"D. c #C9C395",
"F. c #E9C080",
"G. c #F3C782",
"H. c #F5CA85",
"J. c #F6CC89",
"K. c #F3CF94",
"L. c #F7D296",
"P. c #E4D7A8",
"I. c #F6D9A7",
"U. c #EAE3AD",
"Y. c #EEE7B0",
"T. c #EFE8B1",
"R. c #F2EBB3",
"E. c #C3C3C4",
"W. c #D8D8D8",
"Q. c #E7E7E7",
"!. c #F4F4F4",
"~. c #FEFEFE",
/* pixels */
"w.>.w.w.w.w.w.w.>.e.j.j.q.e.w.e.e.e.j.q.e.j.e.j.e.j.e.e.e.e.e.e.e.e.e.e.e.e.e.e.e.e.e.y.e.e.e.y.G.y.e.e.e.e.e.e.e.e.e.e.",
"e.w.w.w.w.e.w.>.w.e.w.w.w.w.e.e.e.e.e.j.r.j.e.t.j.r.j.r.x.e.e.j.e.e.e.e.y.e.e.e.e.e.e.e.e.e.e.e.c.G.e.e.e.L.K.e.e.e.e.e.",
"w.w.w.w.>.w.w.w.w.e.q.j.j.w.j.e.e.e.e.j.e.e.e.j.e.r.j.j.e.j.e.e.e.e.y.e.e.e.e.e.e.e.e.e.e.e.e.e.,.G.p.e.H.,.K.y.e.e.e.e.",
"w.w.w.w.w.w.w.w.>.>.>.w.q.w.6.w.>.w.q.e.j.t.e.e.e.j.e.e.r.e.x.e.e.e.e.e.e.e.a.&.Q N S X.8.d.e.e.,.:.G.h.,.:.J.e.y.e.e.e.",
"j.e.q.>.e.w.w.q.w.w.j.>.>.>.e.>.w.w.w.e.w.e.e.e.>.j.j.j.e.j.e.r.e.e.y.e.9.M u B ~ o. .! r s X.g.,.-.<.,.' ,.v.e.h.K.I.y.",
">.e.e.j.e.e.e.e.w.q.q.w.j.>.j.e.e.e.w.w.e.e.e.e.q.>.6.q.e.j.j.e.e.y.y.! a o...C.D D.] z.) ) P P =._ -.' ` ,.H.H.c.i.L.y.",
">.q.e.e.w.e.w.e.w.j.w.w.>.q.x.r.6.t.j.e.j.j.e.e.j.q.>.>.0.Z d M E O.d { ....M 6 , p & z y =.;.' ' ( ( T ( -.-.-.-.J.y.e.",
">.j.>.q.j.w.e.w.w.w.w.>.>.x.l.z.r.r.r.e.w.e.x.e.e.x.j.l.w   . .       z | % C 3.a.t.9.X.p s ) ` T U I I T ( ` :.J.e.y.e.",
">.w.w.j.w.w.e.w.w.w.w.w.t.l.l.l.r.6.r.y.r.@.W d t * & &                   [ e.e.e.e.e.y.g.1.^ ' T I I I I ( ' c.v.e.e.e.",
"j.6.w.6.e.w.w.w.w.>.>.x.l.l.l.7.q.q.O.a 3 ; < 8 9 < X X $ X               Q e.e.e.e.x.v.<.;.' ( U I I I I Y ` :.p.J.G.e.",
"e.w.w.w.w.>.q.w.q.j.t.f.x.7.r.q.{ 5 1 7 0 g J M.L b q g h 0 9 9 7 , +     +.e.e.e.e.c.i.<.:.-.` ( I I I U _ ` -.' :.b.y.",
"w.>.w.w.w.w.w.w.q.r.q.w.>.q.4.i 4 9 8 8 ; n Q.~.~.E.k e g h h h h g f 1 X V y.y.e.e.w.y.w.y.v.-./ / U T Y _ <.v.p.h.e.e.",
"e.e.w.w.j.q.j.q.e.w.e.e.e.} 6 4 < n Z.W.M.F N.A.A.n.k g g g g g g f h h 1   p s.e.e.e.e.e.y.j.' ` ' ( ` ` ` <.e.e.e.e.e.",
">.w.w.>.q.w.w.e.q.j.e.w.[ = # 8 B.!.~.!.n.n n n b b n x k h g g h f g h f X + 2 s.y.e.e.e.H.;.;.p.,.' ;.i.-.-.H.w.e.e.e.",
"w.q.>.q.w.e.e.e.w.e.j.R o O G W.~.~.!.B.b b m m m n m m m x k e g g f f f - ; X % 0.e.e.e.k.,.H.p.x.' i.y.v.:.i.d.w.y.e.",
"w.j.w.j.e.e.e.e.e.e.] . . L !.~.~.~.N.g k b m m m m m m m m b k g g g f h , 1 $ + 4 f.e.e.G.v.e.e.h.' v.y.e.p.i.J.e.y.e.",
"e.e.e.e.e.e.e.e.w.2.  . M.~.~.~.!.N.g v n m m m c k x m m m m b j e h g h 9 0 , ; . M y.e.e.e.e.e.y.,.v.e.e.e.e.e.e.e.e.",
"e.e.e.e.e.w.e.e.r.*   N.~.~.~.Q.M.v n n n n h 1 7 h x l x b m m v h g g h q q 8 < + X 3.e.e.e.e.e.e.b.d.e.e.y.e.e.e.p.e.",
"e.y.e.e.e.w.e.e.C   n !.~.!.A.J n m n m l 7 7 k l 0 7 g c m b m n c h g g g g 9 0 - , 1 s.w.e.e.e.e.e.e.e.e.e.e.e.e.e.e.",
"e.e.u.w.w.w.y.5.  + A.~.E.K n n n m m k 7 k v 0 1 g v m m m m m n n c g g g g g g < 0 X X.e.e.e.e.e.e.e.e.e.e.e.e.e.e.e.",
"e.w.e.w.w.w.w.V   9 l g 8 c n n m m l q v c 0 g b m m m m m m m m m n c j g g g g 0 f + % d.e.e.e.e.e.e.e.e.e.e.e.e.e.e.",
"e.e.y.e.e.w.r.X $ $   $ c m n n m n v n n c n m n m m m m m m m m m m m b k g g f g f $   3.e.e.e.e.e.e.e.e.e.e.e.e.e.e.",
"w.w.w.y.e.e.+.X $   + x m m m m m n m m m m m m m n m n n m m m m n n m n v h g h h h $   C e.e.y.e.e.e.e.e.e.e.e.e.e.y.",
"y.y.y.w.e.e.V     X j m m m m m m m m m m m m m m m m m m m m m m m m n n x h g h f h $   ; e.>.w.e.e.e.e.e.p.e.e.e.e.e.",
"w.y.e.e.e.y.=     9 n m m m m m m m m m m m n m m m m n m m n m m m m m c j g h h h h +   X r.w.w.w.w.w.w.e.e.e.e.e.e.e.",
"y.w.e.e.e.s.o   $ n m m c n m m m m n m m m m m m n m m m m m m b m b c g g h g h q q +     4.>.<.w.w.<.e.e.e.e.e.e.e.e.",
"w.u.e.e.e.7.  X k n n c 0 h n m n m m m n m m m m m m m m n b m b b x f g g h h h 9 1 X     @.u.w.w.>.w.>.e.e.e.e.e.e.e.",
"y.w.w.w.e.4.  ; v h 0 $ X 1 m m m m n m m m n m m n m m c 9 x m b x f f g g q q h 8 ;       O.e.e.w.w.>.u.e.e.e.p.e.e.e.",
"w.e.w.e.e.9.X 9 #         + b m m m m m m m n m m n b j + + g x b j g f h h 9 9 h ; X       O.e.e.e.e.e.e.e.e.e.e.e.e.e.",
"e.w.e.w.w.9.X X O u z *   . h m m n n m m m m n g , $ .     . j G j g g h h 1 1 h $         O.e.e.e.e.e.e.e.e.e.e.e.e.e.",
"w.e.e.e.y.0.  O V.U.Y.D.>   ; n m m m m n m v ; .     .       , v c t g h h ; < q X         3.e.e.e.e.e.e.e.e.e.e.e.e.e.",
"e.e.e.e.w.t.X + D.T.Y.R.#.. X l m n m m m v $     & ~ V.$.D $   < c j g g g + < 9           7.e.e.e.e.e.e.e.e.e.e.e.e.e.",
"e.e.e.e.e.y.> . C.R.T.T.U.u   9 m m m m m 1     6 S.R.R.R.T.S 3   0 c g h q X 1 -         X e.e.e.e.e.e.e.e.e.e.e.e.e.e.",
"e.e.e.e.e.e.Z   ..R.T.T.R.$.. $ n m m m j .   3 D.R.T.T.T.R.| & . ; c j h 1   ; X         5 e.e.e.e.e.e.e.e.e.e.y.e.w.e.",
"e.p.e.e.e.e.@.  p U.T.T.T.P.6 . f m m n -   @ C.R.T.T.T.T.R.o.  @ k l j g $   +           Q e.e.e.e.e.e.y.e.e.e.e.e.e.w.",
"e.e.e.e.e.w.r.X 3 P.R.T.T.R.|   . ; 0 ;   + $.R.T.T.T.T.T.R.o.  1 n l g 9 X               7.e.e.e.y.e.e.e.e.e.e.e.e.e.e.",
"e.e.e.e.w.>.>.V . ..P.P.C.A & @ X         | R.R.R.Y.R.R.U.T.B   h x g g -               5 e.e.e.e.e.e.e.e.e.e.e.e.e.w.w.",
"e.e.w.>.>.>.>.4.. . 3 : X   < n c q , $ + 3 | D.U.R.R.R.R.$.o $ g g g 0 .               @.w.e.e.e.e.e.e.e.e.w.w.>.w.w.w.",
"e.e.>.>.>.>.>.w.Z       - + $ k n m m n k $   @ u ~ $.%.D O X 9 g g g #               w e.e.e.e.e.e.e.w.e.e.q.w.w.w.y.w.",
"w.>.>.>.>.w.w.e.t.@     # 9 - X , j c c v v q $ X     .   + 9 g g 9 +               . 7.e.e.e.e.e.e.e.w.w.w.e.e.e.e.w.y.",
">.>.w.w.w.y.e.e.w.2.        $ ; + X $ 0 h j k h 0 7 < 1 9 q g 9 $                   [ >.<.w.e.e.y.w.y.w.w.w.e.e.p.e.e.e.",
"q.e.w.e.e.e.e.e.e.e.!         X + +   X $ 9 q q h h f g 0 8 @ .                   a >.w.w.w.w.w.u.w.w.e.w.w.e.w.e.e.p.y.",
"e.e.e.e.e.e.e.e.e.e.e.C                     + ; , - + X .                       t w.<.e.w.u.w.>.w.>.>.u.<.w.w.e.w.e.p.p.",
"e.e.e.e.e.e.e.e.e.e.e.e.Z                         . + $ $ & - + X             d w.w.w.w.e.e.>.>.>.>.>.>.e.w.e.e.e.e.e.e.",
"e.e.e.e.e.e.e.e.e.e.e.e.e.[                     + 9 f f g g g g q 1 +       Z e.e.w.e.e.e.e.e.e.>.>.>.>.w.w.e.e.e.e.e.e.",
"e.e.e.e.e.y.e.e.e.e.e.e.e.e.3.@               $ 0 f h f q g g g q h 0 $   Q w.e.y.y.e.e.w.w.w.w.>.>.w.w.w.e.y.e.e.e.e.y.",
"e.e.e.e.e.e.e.e.y.e.e.e.e.e.d.&             $ 0 f f f f g g g g h q 1 0 X W w.e.w.>.>.>.w.w.y.>.w.w.e.w.e.e.e.e.e.e.e.e.",
"e.e.e.e.e.e.e.e.e.e.e.e.e.e.[ $ 1 +     - < $ + + + + + + - 8 g h h 9 ; & # q.w.<.w.y.w.w.w.w.y.e.e.e.e.e.e.e.e.e.e.y.e.",
"e.e.e.e.e.e.e.e.e.e.e.e.e.y.; b m.K c X F m.J H m m G G F e + g h g h ; + X r.w.e.w.e.w.w.e.e.e.e.e.e.e.e.e.e.e.e.e.e.e.",
"e.e.e.e.e.e.y.e.e.e.e.e.e.r.O v m.M.H X v m.M.M.M.M.M.M.M.K - ; 9 q g 9 X   5.w.w.e.w.e.e.w.e.e.e.e.e.e.e.e.e.y.e.e.e.e.",
"e.e.e.e.e.e.e.e.e.e.e.y.e.r.O . 9 H H X X 0 H n.M.m.M.M.m.v $ - $ ; 1 1   = e.e.e.e.e.y.e.e.e.e.e.e.e.e.e.e.e.e.e.e.e.e.",
"e.y.e.e.e.e.e.e.e.e.e.e.e.e.*.. X 0 n 1   X 0 F J K K K J ; . X   X     w 4.e.e.e.e.e.e.e.w.e.e.e.e.e.e.e.e.e.e.e.e.e.e.",
"e.e.e.e.e.e.e.e.e.e.e.e.e.e.e.7.[ i 3 $ + X X @ & % : * & O o o % y W 2.e.e.e.e.e.e.e.e.e.e.e.e.y.e.e.e.e.y.e.e.e.y.d.t.",
"e.y.e.e.e.e.y.e.e.e.e.e.e.e.e.e.e.e.e.y.e.r.r.y.r.r.r.r.q.7.t.y.e.e.e.e.w.e.e.e.e.e.e.e.e.e.e.e.w.e.e.e.e.e.e.e.d.g.F.g.",
"e.e.e.e.e.e.e.e.e.e.e.e.e.e.e.e.e.e.e.e.e.e.e.e.e.e.e.w.w.e.e.w.e.e.e.e.y.e.e.e.e.e.e.e.e.e.e.e.e.e.e.e.e.y.d.g.g.d.s.r.",
"e.e.e.e.e.e.e.e.e.e.e.y.e.e.e.e.e.e.e.e.e.e.e.e.e.e.e.e.w.e.e.e.y.e.e.e.e.e.e.e.e.e.e.y.e.e.e.y.e.e.e.r.e.t.t.e.r.q.q.q.",
"e.e.e.e.e.e.e.e.e.e.e.e.e.e.e.e.e.e.e.e.e.e.e.w.e.w.e.w.e.e.e.e.e.e.e.e.e.e.e.y.e.e.e.e.e.e.e.e.e.e.e.e.e.e.w.w.e.w.e.w.",
"e.e.e.e.e.y.e.e.e.e.e.e.e.y.e.e.e.e.e.e.e.e.e.e.w.e.e.e.e.e.e.e.e.e.e.e.e.e.e.e.e.e.e.e.e.e.e.e.e.e.e.e.e.e.e.e.e.e.e.e."
};
